M48
;Layer_Color=9474304
;FILE_FORMAT=2:5
INCH,TZ
;TYPE=PLATED
T1F00S00C0.01181
T2F00S00C0.03937
T3F00S00C0.04016
T4F00S00C0.04724
T5F00S00C0.07087
T6F00S00C0.08661
T7F00S00C0.09843
T8F00S00C0.12598
;TYPE=NON_PLATED
T9F00S00C0.03150
T10F00S00C0.03543
T11F00S00C0.04016
%
T01
X324803Y26575
X335630
X353346Y31496
X152559Y63976
X145669
X152559Y72835
X275590Y62008
X291339Y64961
Y53150
X309055Y49213
X327756Y51181
X333661Y45276
X334646Y62992
X345472
X346457Y73819
X352362
X359252Y80709
X361221Y83661
X363189Y86614
Y62992
X337598Y81693
X339567Y84646
X337598Y87598
X327756Y92520
X319882Y88583
X315945Y74803
X314961Y106299
Y109252
X309055
Y106299
X318898
X322835Y111221
X327756Y105315
X330709Y114173
X327756Y126969
X333661Y132874
X353346Y133858
Y124016
Y107283
Y104331
X346457Y105315
X314961Y115157
X309055Y120079
Y124016
X306102Y134843
X300984Y110039
X297244Y111221
X278543Y90551
X279528Y175197
X275590Y178150
X319882Y154528
X371063Y163386
X370079Y115157
X368110Y76772
X371063Y196850
X361221
X292323
X282480
X213583
X203740
X134843
X125000
X57087
X46260
T02
X377795Y77677
X387795
X397795
Y87677
X387795
X377795
T03
X216535Y44882
Y54882
T04
X202520Y175984
X212520
X222520
X232520
T05
X392776Y36417
X422776
X260768
X230768
X202303
X172303
X40295
X10295
T06
X403543Y198819
X344488
X324803
X265748
X246063
X187008
X167323
X108268
X88583
X29528
T07
X171260Y79134
Y172835
X263779
Y79134
T08
X421260Y82677
Y216535
X11811
T09
X9685Y102795
Y112795
Y122795
Y132795
Y142795
Y152795
Y162795
Y172795
X29685Y162795
Y142795
Y122795
Y102795
X403386
Y112795
Y122795
Y132795
Y142795
Y152795
Y162795
Y172795
X423386Y162795
Y142795
Y122795
Y102795
T10
X16732Y61417
Y88189
T11
X19685Y102795
Y112795
Y122795
Y132795
Y142795
Y152795
Y162795
Y172795
X413386
Y162795
Y152795
Y142795
Y132795
Y122795
Y112795
Y102795
M30
