G04*
G04 #@! TF.GenerationSoftware,Altium Limited,Altium Designer,18.0.7 (293)*
G04*
G04 Layer_Color=32896*
%FSLAX25Y25*%
%MOIN*%
G70*
G01*
G75*
%ADD10C,0.00984*%
%ADD12C,0.00591*%
%ADD15C,0.00787*%
G36*
X105444Y139568D02*
X104804D01*
X103151Y142717D01*
X103987D01*
X105109Y140345D01*
X106260Y142717D01*
X107097D01*
X105444Y139568D01*
D02*
G37*
G36*
X107953Y137698D02*
X105375D01*
Y136576D01*
X107953Y135445D01*
Y134589D01*
X107904D01*
X105198Y135819D01*
X105099Y135651D01*
X105001Y135504D01*
X104893Y135376D01*
X104784Y135268D01*
X104686Y135189D01*
X104607Y135130D01*
X104558Y135090D01*
X104538Y135081D01*
X104371Y134992D01*
X104194Y134933D01*
X104017Y134884D01*
X103859Y134854D01*
X103712Y134835D01*
X103603Y134825D01*
X103564D01*
X103535D01*
X103515D01*
X103505D01*
X103338Y134835D01*
X103171Y134845D01*
X103023Y134864D01*
X102885Y134904D01*
X102757Y134933D01*
X102639Y134973D01*
X102541Y135022D01*
X102442Y135061D01*
X102354Y135110D01*
X102285Y135150D01*
X102216Y135199D01*
X102167Y135228D01*
X102128Y135258D01*
X102098Y135287D01*
X102088Y135297D01*
X102078Y135307D01*
X101990Y135396D01*
X101911Y135504D01*
X101852Y135612D01*
X101793Y135730D01*
X101704Y135957D01*
X101645Y136183D01*
X101616Y136389D01*
X101596Y136478D01*
Y136557D01*
X101586Y136626D01*
Y138505D01*
X107953D01*
Y137698D01*
D02*
G37*
G36*
Y133191D02*
X105473Y131961D01*
X107953Y130741D01*
Y129787D01*
X104745Y131479D01*
X101586Y129826D01*
Y130761D01*
X104027Y131961D01*
X101586Y133172D01*
Y134107D01*
X104745Y132434D01*
X107953Y134136D01*
Y133191D01*
D02*
G37*
G36*
X218888Y60630D02*
X218190D01*
X216202Y66996D01*
X217088D01*
X218544Y61850D01*
X219990Y66996D01*
X220866D01*
X218888Y60630D01*
D02*
G37*
G36*
X214205Y64044D02*
X215651D01*
Y63277D01*
X214205D01*
Y61260D01*
X213427D01*
Y63277D01*
X211981D01*
Y64044D01*
X213427D01*
Y65894D01*
X214205D01*
Y64044D01*
D02*
G37*
G36*
X364385Y143995D02*
X363310D01*
Y150528D01*
X359911Y143995D01*
X358836D01*
Y152483D01*
X359898D01*
Y145910D01*
X363310Y152483D01*
X364385D01*
Y143995D01*
D02*
G37*
G36*
X373031D02*
X368623D01*
Y144913D01*
X371956D01*
Y152483D01*
X373031D01*
Y143995D01*
D02*
G37*
G36*
X367311D02*
X366248D01*
Y152483D01*
X367311D01*
Y143995D01*
D02*
G37*
G36*
X349835D02*
X347329D01*
X347119Y144008D01*
X346923Y144021D01*
X346568Y144100D01*
X346398Y144139D01*
X346254Y144205D01*
X346122Y144257D01*
X346004Y144323D01*
X345899Y144375D01*
X345808Y144441D01*
X345729Y144493D01*
X345663Y144533D01*
X345611Y144585D01*
X345571Y144611D01*
X345558Y144624D01*
X345545Y144638D01*
X345440Y144769D01*
X345335Y144900D01*
X345178Y145202D01*
X345073Y145490D01*
X344994Y145779D01*
X344942Y146041D01*
X344929Y146146D01*
Y146251D01*
X344915Y146330D01*
Y146382D01*
Y146422D01*
Y146435D01*
X344929Y146711D01*
X344968Y146960D01*
X345020Y147183D01*
X345086Y147366D01*
X345151Y147524D01*
X345204Y147642D01*
X345243Y147708D01*
X345256Y147734D01*
X345388Y147917D01*
X345545Y148075D01*
X345703Y148206D01*
X345847Y148298D01*
X345978Y148377D01*
X346096Y148416D01*
X346162Y148442D01*
X346175Y148455D01*
X346188D01*
X346004Y148560D01*
X345847Y148679D01*
X345716Y148797D01*
X345598Y148915D01*
X345506Y149006D01*
X345440Y149085D01*
X345401Y149151D01*
X345388Y149164D01*
X345283Y149348D01*
X345217Y149518D01*
X345165Y149702D01*
X345125Y149859D01*
X345099Y150004D01*
X345086Y150109D01*
Y150187D01*
Y150214D01*
Y150423D01*
X345112Y150607D01*
X345138Y150791D01*
X345178Y150948D01*
X345217Y151106D01*
X345270Y151250D01*
X345322Y151368D01*
X345374Y151486D01*
X345440Y151578D01*
X345493Y151670D01*
X345545Y151735D01*
X345585Y151801D01*
X345624Y151840D01*
X345650Y151880D01*
X345663Y151906D01*
X345676D01*
X345794Y152011D01*
X345913Y152103D01*
X346188Y152234D01*
X346477Y152339D01*
X346752Y152418D01*
X347014Y152457D01*
X347119Y152470D01*
X347224D01*
X347303Y152483D01*
X349835D01*
Y143995D01*
D02*
G37*
G36*
X343275Y143995D02*
X342213D01*
Y152483D01*
X343275D01*
Y143995D01*
D02*
G37*
G36*
X340914Y151565D02*
X338683D01*
Y143995D01*
X337621D01*
Y151565D01*
X335390D01*
Y152483D01*
X340914D01*
Y151565D01*
D02*
G37*
G36*
X354572Y152588D02*
X354795Y152562D01*
X355018Y152509D01*
X355228Y152444D01*
X355411Y152378D01*
X355582Y152300D01*
X355739Y152208D01*
X355884Y152116D01*
X356015Y152024D01*
X356120Y151932D01*
X356212Y151854D01*
X356290Y151788D01*
X356356Y151722D01*
X356395Y151670D01*
X356422Y151644D01*
X356435Y151630D01*
X356566Y151447D01*
X356684Y151237D01*
X356776Y151027D01*
X356868Y150804D01*
X356933Y150581D01*
X356999Y150358D01*
X357091Y149938D01*
X357117Y149741D01*
X357143Y149557D01*
X357156Y149387D01*
X357169Y149243D01*
X357183Y149125D01*
Y149046D01*
Y148980D01*
Y148967D01*
Y147366D01*
X357169Y147065D01*
X357143Y146776D01*
X357104Y146514D01*
X357051Y146264D01*
X356986Y146028D01*
X356920Y145818D01*
X356855Y145622D01*
X356776Y145451D01*
X356710Y145293D01*
X356631Y145162D01*
X356566Y145044D01*
X356513Y144952D01*
X356461Y144874D01*
X356422Y144821D01*
X356409Y144795D01*
X356395Y144782D01*
X356251Y144624D01*
X356094Y144480D01*
X355923Y144362D01*
X355752Y144257D01*
X355582Y144165D01*
X355398Y144100D01*
X355241Y144034D01*
X355070Y143995D01*
X354913Y143955D01*
X354782Y143929D01*
X354650Y143903D01*
X354532Y143890D01*
X354454Y143877D01*
X354322D01*
X354073Y143890D01*
X353837Y143916D01*
X353627Y143968D01*
X353417Y144021D01*
X353233Y144087D01*
X353063Y144165D01*
X352905Y144257D01*
X352761Y144349D01*
X352630Y144428D01*
X352525Y144519D01*
X352433Y144598D01*
X352354Y144664D01*
X352302Y144716D01*
X352262Y144769D01*
X352236Y144795D01*
X352223Y144808D01*
X352092Y144992D01*
X351974Y145189D01*
X351882Y145412D01*
X351790Y145622D01*
X351712Y145845D01*
X351659Y146068D01*
X351567Y146501D01*
X351541Y146697D01*
X351515Y146881D01*
X351502Y147052D01*
X351488Y147196D01*
X351475Y147314D01*
Y147406D01*
Y147471D01*
Y147485D01*
Y149033D01*
X351488Y149348D01*
X351515Y149636D01*
X351554Y149912D01*
X351593Y150174D01*
X351659Y150410D01*
X351725Y150620D01*
X351790Y150817D01*
X351856Y151001D01*
X351935Y151158D01*
X352000Y151289D01*
X352066Y151407D01*
X352118Y151499D01*
X352171Y151578D01*
X352210Y151630D01*
X352223Y151657D01*
X352236Y151670D01*
X352381Y151840D01*
X352538Y151972D01*
X352709Y152103D01*
X352879Y152208D01*
X353050Y152300D01*
X353220Y152378D01*
X353391Y152431D01*
X353561Y152483D01*
X353719Y152523D01*
X353863Y152549D01*
X353994Y152575D01*
X354099Y152588D01*
X354191Y152601D01*
X354322D01*
X354572Y152588D01*
D02*
G37*
G36*
X338054Y136734D02*
Y133572D01*
X336991D01*
Y136734D01*
X334577Y142061D01*
X335784D01*
X337516Y137797D01*
X339261Y142061D01*
X340468D01*
X338054Y136734D01*
D02*
G37*
G36*
X371352Y133572D02*
X370381D01*
X368912Y139752D01*
X368820Y140250D01*
X368728Y139752D01*
X367311Y133572D01*
X366353D01*
X364661Y142061D01*
X365737D01*
X366773Y136249D01*
X366891Y135265D01*
X367062Y136130D01*
X368374Y142061D01*
X369266D01*
X370631Y136130D01*
X370801Y135291D01*
X370906Y136235D01*
X371969Y142061D01*
X373031D01*
X371352Y133572D01*
D02*
G37*
G36*
X363441D02*
X358875D01*
Y134491D01*
X362365D01*
Y137495D01*
X359374D01*
Y138413D01*
X362365D01*
Y141142D01*
X358927D01*
Y142061D01*
X363441D01*
Y133572D01*
D02*
G37*
G36*
X351331D02*
X346923D01*
Y134491D01*
X350255D01*
Y142061D01*
X351331D01*
Y133572D01*
D02*
G37*
G36*
X345663D02*
X341097Y133572D01*
Y134491D01*
X344587Y134491D01*
Y137495D01*
X341596Y137495D01*
Y138413D01*
X344587Y138413D01*
Y141142D01*
X341150Y141142D01*
Y142061D01*
X345663Y142061D01*
Y133572D01*
D02*
G37*
G36*
X330746Y133572D02*
X326337D01*
Y134491D01*
X329670D01*
Y142061D01*
X330746D01*
Y133572D01*
D02*
G37*
G36*
X325078D02*
X320512D01*
Y134491D01*
X324002D01*
Y137495D01*
X321011D01*
Y138413D01*
X324002D01*
Y141142D01*
X320565D01*
Y142061D01*
X325078D01*
Y133572D01*
D02*
G37*
G36*
X319148D02*
X314582D01*
Y134491D01*
X318072D01*
Y137495D01*
X315080D01*
Y138413D01*
X318072D01*
Y141142D01*
X314634D01*
Y142061D01*
X319148D01*
Y133572D01*
D02*
G37*
G36*
X355464Y142166D02*
X355661Y142153D01*
X356002Y142074D01*
X356304Y141969D01*
X356566Y141851D01*
X356671Y141785D01*
X356763Y141733D01*
X356841Y141680D01*
X356920Y141628D01*
X356973Y141588D01*
X357012Y141549D01*
X357025Y141536D01*
X357038Y141523D01*
X357156Y141392D01*
X357261Y141260D01*
X357353Y141129D01*
X357419Y140985D01*
X357550Y140709D01*
X357629Y140447D01*
X357668Y140211D01*
X357681Y140106D01*
X357694Y140027D01*
X357707Y139948D01*
Y139896D01*
Y139870D01*
Y139857D01*
X357694Y139647D01*
X357668Y139450D01*
X357629Y139279D01*
X357589Y139122D01*
X357550Y138991D01*
X357510Y138899D01*
X357484Y138846D01*
X357471Y138820D01*
X357366Y138663D01*
X357261Y138505D01*
X357143Y138374D01*
X357025Y138256D01*
X356920Y138151D01*
X356841Y138085D01*
X356789Y138033D01*
X356763Y138020D01*
X356566Y137889D01*
X356356Y137770D01*
X356120Y137652D01*
X355897Y137548D01*
X355700Y137456D01*
X355621Y137429D01*
X355542Y137390D01*
X355477Y137377D01*
X355438Y137351D01*
X355411Y137338D01*
X355398D01*
X355241Y137285D01*
X355083Y137220D01*
X354821Y137101D01*
X354611Y136996D01*
X354440Y136891D01*
X354309Y136813D01*
X354217Y136734D01*
X354165Y136695D01*
X354152Y136681D01*
X354034Y136550D01*
X353942Y136393D01*
X353889Y136235D01*
X353837Y136078D01*
X353811Y135934D01*
X353798Y135816D01*
Y135737D01*
Y135724D01*
Y135711D01*
X353811Y135488D01*
X353850Y135291D01*
X353916Y135133D01*
X353981Y134989D01*
X354047Y134871D01*
X354113Y134792D01*
X354152Y134740D01*
X354165Y134727D01*
X354309Y134609D01*
X354480Y134517D01*
X354650Y134464D01*
X354821Y134412D01*
X354978Y134386D01*
X355097Y134372D01*
X355215D01*
X355490Y134386D01*
X355726Y134438D01*
X355936Y134504D01*
X356107Y134596D01*
X356238Y134674D01*
X356343Y134740D01*
X356395Y134792D01*
X356422Y134805D01*
X356566Y134989D01*
X356671Y135173D01*
X356750Y135383D01*
X356802Y135580D01*
X356828Y135750D01*
X356841Y135894D01*
X356855Y135947D01*
Y135986D01*
Y136012D01*
Y136026D01*
X357930D01*
X357917Y135750D01*
X357878Y135488D01*
X357812Y135265D01*
X357747Y135068D01*
X357694Y134897D01*
X357629Y134779D01*
X357589Y134700D01*
X357576Y134687D01*
Y134674D01*
X357432Y134464D01*
X357261Y134294D01*
X357104Y134136D01*
X356946Y134005D01*
X356802Y133900D01*
X356697Y133835D01*
X356618Y133782D01*
X356605Y133769D01*
X356592D01*
X356356Y133664D01*
X356107Y133585D01*
X355884Y133533D01*
X355661Y133493D01*
X355490Y133467D01*
X355346Y133454D01*
X355215D01*
X355005Y133467D01*
X354808Y133480D01*
X354440Y133546D01*
X354126Y133651D01*
X353994Y133703D01*
X353863Y133769D01*
X353758Y133821D01*
X353666Y133874D01*
X353574Y133926D01*
X353509Y133979D01*
X353456Y134018D01*
X353417Y134044D01*
X353404Y134071D01*
X353391D01*
X353273Y134189D01*
X353168Y134320D01*
X353076Y134451D01*
X352997Y134596D01*
X352879Y134871D01*
X352800Y135133D01*
X352761Y135370D01*
X352748Y135461D01*
X352735Y135553D01*
X352722Y135619D01*
Y135684D01*
Y135711D01*
Y135724D01*
X352748Y136078D01*
X352800Y136393D01*
X352892Y136655D01*
X352984Y136891D01*
X353089Y137075D01*
X353181Y137206D01*
X353207Y137246D01*
X353233Y137285D01*
X353260Y137298D01*
Y137311D01*
X353365Y137416D01*
X353496Y137534D01*
X353771Y137731D01*
X354060Y137902D01*
X354362Y138046D01*
X354624Y138164D01*
X354742Y138217D01*
X354847Y138256D01*
X354939Y138295D01*
X355005Y138322D01*
X355044Y138335D01*
X355057D01*
X355333Y138440D01*
X355582Y138558D01*
X355792Y138663D01*
X355949Y138754D01*
X356081Y138846D01*
X356172Y138912D01*
X356238Y138964D01*
X356251Y138978D01*
X356382Y139122D01*
X356474Y139279D01*
X356540Y139424D01*
X356579Y139568D01*
X356605Y139699D01*
X356631Y139791D01*
Y139857D01*
Y139883D01*
X356618Y140106D01*
X356579Y140316D01*
X356513Y140486D01*
X356448Y140631D01*
X356395Y140749D01*
X356330Y140828D01*
X356290Y140880D01*
X356277Y140893D01*
X356133Y141011D01*
X355976Y141103D01*
X355805Y141169D01*
X355634Y141221D01*
X355490Y141247D01*
X355372Y141260D01*
X355267D01*
X355018Y141247D01*
X354795Y141195D01*
X354611Y141129D01*
X354454Y141051D01*
X354335Y140959D01*
X354244Y140893D01*
X354191Y140841D01*
X354178Y140828D01*
X354047Y140657D01*
X353955Y140460D01*
X353889Y140250D01*
X353850Y140053D01*
X353811Y139883D01*
X353798Y139739D01*
Y139686D01*
Y139647D01*
Y139620D01*
Y139607D01*
X352735D01*
X352748Y139870D01*
X352787Y140106D01*
X352840Y140329D01*
X352892Y140526D01*
X352945Y140683D01*
X352997Y140801D01*
X353037Y140880D01*
X353050Y140906D01*
X353181Y141116D01*
X353325Y141313D01*
X353470Y141470D01*
X353614Y141602D01*
X353745Y141707D01*
X353850Y141772D01*
X353916Y141825D01*
X353929Y141838D01*
X353942D01*
X354165Y141956D01*
X354388Y142034D01*
X354611Y142100D01*
X354821Y142139D01*
X355005Y142166D01*
X355136Y142179D01*
X355267D01*
X355464Y142166D01*
D02*
G37*
G36*
X338158Y130523D02*
Y129539D01*
X336374Y130326D01*
Y123150D01*
X335338D01*
Y131678D01*
X335508D01*
X338158Y130523D01*
D02*
G37*
G36*
X348143Y131743D02*
X348340Y131730D01*
X348681Y131638D01*
X348983Y131520D01*
X349232Y131389D01*
X349337Y131323D01*
X349429Y131258D01*
X349507Y131192D01*
X349573Y131140D01*
X349625Y131087D01*
X349665Y131048D01*
X349678Y131035D01*
X349691Y131022D01*
X349809Y130877D01*
X349901Y130733D01*
X349993Y130576D01*
X350058Y130418D01*
X350177Y130103D01*
X350255Y129801D01*
X350281Y129670D01*
X350294Y129539D01*
X350308Y129421D01*
X350321Y129329D01*
X350334Y129250D01*
Y129185D01*
Y129145D01*
Y129132D01*
X349297D01*
X349284Y129434D01*
X349245Y129683D01*
X349179Y129906D01*
X349114Y130090D01*
X349061Y130234D01*
X348996Y130339D01*
X348956Y130392D01*
X348943Y130418D01*
X348799Y130562D01*
X348641Y130681D01*
X348471Y130759D01*
X348313Y130812D01*
X348169Y130838D01*
X348051Y130864D01*
X347946D01*
X347762Y130851D01*
X347605Y130798D01*
X347461Y130733D01*
X347342Y130654D01*
X347251Y130576D01*
X347172Y130510D01*
X347133Y130457D01*
X347119Y130444D01*
X347014Y130274D01*
X346936Y130090D01*
X346883Y129906D01*
X346844Y129736D01*
X346818Y129578D01*
X346805Y129460D01*
Y129408D01*
Y129368D01*
Y129355D01*
Y129342D01*
X346818Y129145D01*
X346831Y128962D01*
X346870Y128791D01*
X346910Y128647D01*
X346949Y128516D01*
X346975Y128411D01*
X347001Y128358D01*
X347014Y128332D01*
X347106Y128148D01*
X347224Y127938D01*
X347342Y127742D01*
X347474Y127558D01*
X347592Y127387D01*
X347684Y127243D01*
X347723Y127190D01*
X347749Y127164D01*
X347762Y127138D01*
X347776Y127125D01*
X350203Y123924D01*
Y123150D01*
X345453D01*
Y124029D01*
X348969D01*
X347080Y126495D01*
X346844Y126810D01*
X346647Y127112D01*
X346477Y127414D01*
X346319Y127689D01*
X346188Y127952D01*
X346083Y128188D01*
X346004Y128424D01*
X345926Y128634D01*
X345873Y128817D01*
X345834Y128988D01*
X345808Y129132D01*
X345794Y129250D01*
X345781Y129342D01*
X345768Y129421D01*
Y129460D01*
Y129473D01*
Y129657D01*
X345794Y129841D01*
X345860Y130169D01*
X345952Y130457D01*
X346057Y130694D01*
X346175Y130877D01*
X346227Y130956D01*
X346267Y131009D01*
X346306Y131061D01*
X346332Y131100D01*
X346345Y131113D01*
X346358Y131126D01*
X346477Y131231D01*
X346595Y131336D01*
X346844Y131494D01*
X347119Y131599D01*
X347369Y131678D01*
X347592Y131730D01*
X347697Y131743D01*
X347776D01*
X347854Y131756D01*
X347946D01*
X348143Y131743D01*
D02*
G37*
G36*
X363244D02*
X363467Y131717D01*
X363690Y131665D01*
X363887Y131599D01*
X364084Y131533D01*
X364254Y131455D01*
X364412Y131363D01*
X364556Y131271D01*
X364674Y131179D01*
X364792Y131087D01*
X364884Y131009D01*
X364963Y130943D01*
X365028Y130877D01*
X365068Y130825D01*
X365094Y130798D01*
X365107Y130785D01*
X365238Y130602D01*
X365356Y130405D01*
X365461Y130195D01*
X365540Y129972D01*
X365619Y129762D01*
X365684Y129539D01*
X365776Y129119D01*
X365802Y128922D01*
X365829Y128752D01*
X365842Y128581D01*
X365855Y128450D01*
X365868Y128332D01*
Y128253D01*
Y128188D01*
Y128174D01*
Y126626D01*
X365855Y126325D01*
X365842Y126036D01*
X365802Y125774D01*
X365750Y125524D01*
X365697Y125288D01*
X365632Y125065D01*
X365566Y124868D01*
X365488Y124698D01*
X365422Y124540D01*
X365356Y124396D01*
X365291Y124278D01*
X365238Y124186D01*
X365186Y124107D01*
X365146Y124042D01*
X365133Y124015D01*
X365120Y124002D01*
X364976Y123832D01*
X364818Y123688D01*
X364648Y123556D01*
X364490Y123438D01*
X364320Y123346D01*
X364149Y123268D01*
X363979Y123202D01*
X363821Y123150D01*
X363677Y123110D01*
X363533Y123084D01*
X363401Y123058D01*
X363297Y123045D01*
X363205D01*
X363139Y123031D01*
X363087D01*
X362850Y123045D01*
X362641Y123058D01*
X362444Y123097D01*
X362247Y123150D01*
X362076Y123202D01*
X361919Y123255D01*
X361761Y123320D01*
X361630Y123399D01*
X361525Y123465D01*
X361420Y123530D01*
X361329Y123582D01*
X361263Y123635D01*
X361197Y123688D01*
X361158Y123727D01*
X361145Y123740D01*
X361132Y123753D01*
X361000Y123897D01*
X360895Y124055D01*
X360790Y124212D01*
X360712Y124383D01*
X360581Y124737D01*
X360476Y125065D01*
X360449Y125223D01*
X360410Y125367D01*
X360397Y125498D01*
X360384Y125616D01*
X360371Y125708D01*
X360358Y125774D01*
Y125826D01*
Y125839D01*
X361433D01*
X361460Y125642D01*
X361473Y125472D01*
X361512Y125314D01*
X361538Y125157D01*
X361578Y125026D01*
X361617Y124908D01*
X361696Y124698D01*
X361774Y124540D01*
X361827Y124435D01*
X361879Y124383D01*
X361893Y124357D01*
X362050Y124225D01*
X362234Y124120D01*
X362431Y124055D01*
X362627Y124002D01*
X362811Y123976D01*
X362968Y123963D01*
X363021Y123950D01*
X363100D01*
X363244Y123963D01*
X363388Y123976D01*
X363651Y124055D01*
X363861Y124160D01*
X364044Y124291D01*
X364176Y124422D01*
X364281Y124527D01*
X364333Y124606D01*
X364359Y124619D01*
Y124632D01*
X364438Y124763D01*
X364504Y124908D01*
X364609Y125223D01*
X364687Y125550D01*
X364740Y125879D01*
X364753Y126023D01*
X364766Y126154D01*
X364779Y126285D01*
Y126390D01*
X364792Y126482D01*
Y126548D01*
Y126587D01*
Y126600D01*
Y128161D01*
Y128398D01*
X364766Y128621D01*
X364753Y128831D01*
X364713Y129027D01*
X364687Y129211D01*
X364648Y129368D01*
X364609Y129513D01*
X364556Y129657D01*
X364517Y129775D01*
X364477Y129867D01*
X364438Y129959D01*
X364399Y130025D01*
X364372Y130090D01*
X364346Y130129D01*
X364333Y130142D01*
Y130156D01*
X364241Y130274D01*
X364136Y130379D01*
X364031Y130471D01*
X363926Y130549D01*
X363703Y130667D01*
X363480Y130759D01*
X363297Y130798D01*
X363139Y130825D01*
X363073Y130838D01*
X362995D01*
X362732Y130825D01*
X362509Y130772D01*
X362313Y130694D01*
X362155Y130615D01*
X362037Y130536D01*
X361945Y130457D01*
X361893Y130405D01*
X361879Y130392D01*
X361814Y130300D01*
X361748Y130195D01*
X361656Y129972D01*
X361578Y129723D01*
X361512Y129487D01*
X361473Y129263D01*
X361460Y129158D01*
X361446Y129080D01*
Y129014D01*
X361433Y128949D01*
Y128922D01*
Y128909D01*
X360358D01*
X360371Y129158D01*
X360410Y129395D01*
X360449Y129605D01*
X360489Y129815D01*
X360554Y129998D01*
X360607Y130169D01*
X360672Y130326D01*
X360738Y130471D01*
X360804Y130602D01*
X360869Y130707D01*
X360935Y130798D01*
X360987Y130877D01*
X361027Y130930D01*
X361066Y130969D01*
X361079Y130995D01*
X361092Y131009D01*
X361224Y131140D01*
X361368Y131258D01*
X361512Y131350D01*
X361670Y131441D01*
X361827Y131520D01*
X361984Y131573D01*
X362299Y131665D01*
X362575Y131717D01*
X362693Y131730D01*
X362785Y131743D01*
X362877Y131756D01*
X362995D01*
X363244Y131743D01*
D02*
G37*
G36*
X359478Y130720D02*
X357248D01*
Y123150D01*
X356185D01*
Y130720D01*
X353955D01*
Y131638D01*
X359478D01*
Y130720D01*
D02*
G37*
G36*
X370421Y131743D02*
X370644Y131717D01*
X370867Y131665D01*
X371077Y131599D01*
X371260Y131533D01*
X371431Y131455D01*
X371588Y131363D01*
X371733Y131271D01*
X371864Y131179D01*
X371969Y131087D01*
X372061Y131009D01*
X372139Y130943D01*
X372205Y130877D01*
X372244Y130825D01*
X372270Y130798D01*
X372284Y130785D01*
X372415Y130602D01*
X372533Y130392D01*
X372625Y130182D01*
X372717Y129959D01*
X372782Y129736D01*
X372848Y129513D01*
X372940Y129093D01*
X372966Y128896D01*
X372992Y128712D01*
X373005Y128542D01*
X373018Y128398D01*
X373031Y128279D01*
Y128201D01*
Y128135D01*
Y128122D01*
Y126521D01*
X373018Y126220D01*
X372992Y125931D01*
X372953Y125669D01*
X372900Y125419D01*
X372835Y125183D01*
X372769Y124973D01*
X372704Y124776D01*
X372625Y124606D01*
X372559Y124449D01*
X372481Y124317D01*
X372415Y124199D01*
X372362Y124107D01*
X372310Y124029D01*
X372270Y123976D01*
X372257Y123950D01*
X372244Y123937D01*
X372100Y123779D01*
X371942Y123635D01*
X371772Y123517D01*
X371601Y123412D01*
X371431Y123320D01*
X371247Y123255D01*
X371090Y123189D01*
X370919Y123150D01*
X370762Y123110D01*
X370631Y123084D01*
X370499Y123058D01*
X370381Y123045D01*
X370303Y123031D01*
X370171D01*
X369922Y123045D01*
X369686Y123071D01*
X369476Y123123D01*
X369266Y123176D01*
X369082Y123241D01*
X368912Y123320D01*
X368754Y123412D01*
X368610Y123504D01*
X368479Y123582D01*
X368374Y123674D01*
X368282Y123753D01*
X368203Y123819D01*
X368151Y123871D01*
X368111Y123924D01*
X368085Y123950D01*
X368072Y123963D01*
X367941Y124147D01*
X367823Y124344D01*
X367731Y124566D01*
X367639Y124776D01*
X367561Y124999D01*
X367508Y125223D01*
X367416Y125655D01*
X367390Y125852D01*
X367364Y126036D01*
X367351Y126207D01*
X367337Y126351D01*
X367324Y126469D01*
Y126561D01*
Y126626D01*
Y126639D01*
Y128188D01*
X367337Y128503D01*
X367364Y128791D01*
X367403Y129067D01*
X367442Y129329D01*
X367508Y129565D01*
X367574Y129775D01*
X367639Y129972D01*
X367705Y130156D01*
X367783Y130313D01*
X367849Y130444D01*
X367915Y130562D01*
X367967Y130654D01*
X368020Y130733D01*
X368059Y130785D01*
X368072Y130812D01*
X368085Y130825D01*
X368230Y130995D01*
X368387Y131126D01*
X368558Y131258D01*
X368728Y131363D01*
X368899Y131455D01*
X369069Y131533D01*
X369240Y131586D01*
X369410Y131638D01*
X369568Y131678D01*
X369712Y131704D01*
X369843Y131730D01*
X369948Y131743D01*
X370040Y131756D01*
X370171D01*
X370421Y131743D01*
D02*
G37*
G36*
X342265Y131743D02*
X342462Y131717D01*
X342646Y131678D01*
X342803Y131612D01*
X342961Y131546D01*
X343105Y131468D01*
X343223Y131389D01*
X343341Y131297D01*
X343446Y131218D01*
X343525Y131126D01*
X343603Y131048D01*
X343656Y130982D01*
X343708Y130917D01*
X343735Y130877D01*
X343748Y130851D01*
X343761Y130838D01*
X343853Y130654D01*
X343945Y130457D01*
X344010Y130234D01*
X344076Y130011D01*
X344181Y129552D01*
X344246Y129106D01*
X344259Y128896D01*
X344286Y128699D01*
X344299Y128516D01*
Y128358D01*
X344312Y128240D01*
Y128135D01*
Y128083D01*
Y128056D01*
Y126600D01*
X344299Y126272D01*
X344286Y125970D01*
X344259Y125695D01*
X344220Y125432D01*
X344167Y125183D01*
X344128Y124973D01*
X344076Y124776D01*
X344023Y124593D01*
X343971Y124435D01*
X343918Y124304D01*
X343866Y124186D01*
X343826Y124094D01*
X343787Y124015D01*
X343761Y123963D01*
X343735Y123937D01*
Y123924D01*
X343617Y123766D01*
X343498Y123635D01*
X343367Y123517D01*
X343236Y123412D01*
X343092Y123320D01*
X342947Y123255D01*
X342672Y123150D01*
X342423Y123084D01*
X342318Y123058D01*
X342226Y123045D01*
X342147Y123031D01*
X342042D01*
X341832Y123045D01*
X341622Y123071D01*
X341439Y123110D01*
X341281Y123176D01*
X341124Y123241D01*
X340979Y123320D01*
X340848Y123412D01*
X340743Y123491D01*
X340638Y123582D01*
X340560Y123661D01*
X340481Y123740D01*
X340428Y123806D01*
X340376Y123871D01*
X340350Y123910D01*
X340323Y123937D01*
Y123950D01*
X340231Y124134D01*
X340140Y124344D01*
X340061Y124553D01*
X340008Y124776D01*
X339903Y125249D01*
X339838Y125708D01*
X339812Y125918D01*
X339798Y126115D01*
X339785Y126298D01*
Y126456D01*
X339772Y126574D01*
Y126679D01*
Y126731D01*
Y126758D01*
Y128253D01*
X339785Y128568D01*
X339798Y128870D01*
X339838Y129145D01*
X339877Y129408D01*
X339917Y129644D01*
X339969Y129854D01*
X340022Y130051D01*
X340074Y130221D01*
X340126Y130379D01*
X340179Y130510D01*
X340218Y130628D01*
X340258Y130720D01*
X340297Y130785D01*
X340323Y130838D01*
X340336Y130864D01*
X340350Y130877D01*
X340455Y131035D01*
X340586Y131166D01*
X340717Y131284D01*
X340848Y131389D01*
X340992Y131468D01*
X341137Y131546D01*
X341412Y131651D01*
X341662Y131704D01*
X341767Y131730D01*
X341872Y131743D01*
X341950Y131756D01*
X342055D01*
X342265Y131743D01*
D02*
G37*
G36*
X330431D02*
X330601Y131730D01*
X330903Y131665D01*
X331166Y131560D01*
X331389Y131441D01*
X331559Y131323D01*
X331690Y131231D01*
X331769Y131153D01*
X331782Y131140D01*
X331795Y131126D01*
X331900Y131008D01*
X331979Y130877D01*
X332123Y130589D01*
X332228Y130313D01*
X332294Y130038D01*
X332346Y129801D01*
X332360Y129697D01*
Y129605D01*
X332373Y129526D01*
Y129473D01*
Y129434D01*
Y129421D01*
X332360Y129185D01*
X332333Y128975D01*
X332281Y128778D01*
X332228Y128607D01*
X332189Y128476D01*
X332137Y128371D01*
X332110Y128306D01*
X332097Y128279D01*
X331979Y128109D01*
X331861Y127952D01*
X331743Y127820D01*
X331625Y127715D01*
X331507Y127637D01*
X331428Y127571D01*
X331376Y127532D01*
X331349Y127518D01*
X331546Y127401D01*
X331717Y127269D01*
X331861Y127138D01*
X331992Y127007D01*
X332084Y126876D01*
X332163Y126784D01*
X332202Y126718D01*
X332215Y126692D01*
X332320Y126482D01*
X332399Y126259D01*
X332451Y126049D01*
X332491Y125852D01*
X332517Y125682D01*
X332530Y125550D01*
Y125498D01*
Y125459D01*
Y125446D01*
Y125432D01*
X332517Y125236D01*
X332504Y125039D01*
X332438Y124698D01*
X332333Y124396D01*
X332215Y124147D01*
X332163Y124042D01*
X332110Y123950D01*
X332058Y123871D01*
X332005Y123806D01*
X331966Y123753D01*
X331940Y123714D01*
X331913Y123701D01*
Y123688D01*
X331795Y123569D01*
X331664Y123478D01*
X331533Y123386D01*
X331389Y123307D01*
X331113Y123189D01*
X330851Y123110D01*
X330614Y123071D01*
X330523Y123058D01*
X330431Y123045D01*
X330352Y123031D01*
X330260D01*
X330077Y123045D01*
X329893Y123058D01*
X329578Y123136D01*
X329289Y123241D01*
X329053Y123360D01*
X328870Y123478D01*
X328791Y123530D01*
X328738Y123582D01*
X328686Y123622D01*
X328646Y123661D01*
X328633Y123674D01*
X328620Y123688D01*
X328515Y123819D01*
X328410Y123950D01*
X328253Y124239D01*
X328148Y124527D01*
X328069Y124803D01*
X328017Y125052D01*
X328004Y125157D01*
Y125249D01*
X327991Y125328D01*
Y125380D01*
Y125419D01*
Y125432D01*
X328004Y125682D01*
X328043Y125918D01*
X328096Y126128D01*
X328148Y126312D01*
X328214Y126456D01*
X328266Y126574D01*
X328305Y126639D01*
X328319Y126666D01*
X328450Y126863D01*
X328594Y127033D01*
X328738Y127177D01*
X328870Y127295D01*
X329001Y127401D01*
X329106Y127466D01*
X329171Y127505D01*
X329185Y127518D01*
X329198D01*
X329027Y127637D01*
X328883Y127755D01*
X328751Y127886D01*
X328646Y128004D01*
X328568Y128109D01*
X328502Y128201D01*
X328463Y128253D01*
X328450Y128279D01*
X328358Y128476D01*
X328279Y128673D01*
X328227Y128857D01*
X328201Y129041D01*
X328174Y129198D01*
X328161Y129316D01*
Y129395D01*
Y129408D01*
Y129421D01*
Y129618D01*
X328187Y129801D01*
X328253Y130142D01*
X328345Y130431D01*
X328450Y130680D01*
X328502Y130785D01*
X328555Y130877D01*
X328607Y130943D01*
X328646Y131008D01*
X328686Y131061D01*
X328712Y131100D01*
X328725Y131113D01*
X328738Y131126D01*
X328856Y131231D01*
X328975Y131336D01*
X329224Y131494D01*
X329473Y131599D01*
X329709Y131678D01*
X329932Y131730D01*
X330024Y131743D01*
X330103D01*
X330169Y131756D01*
X330260D01*
X330431Y131743D01*
D02*
G37*
G36*
X127864Y141910D02*
X125286D01*
Y140788D01*
X127864Y139656D01*
Y138800D01*
X127815D01*
X125109Y140030D01*
X125011Y139863D01*
X124912Y139715D01*
X124804Y139587D01*
X124696Y139479D01*
X124597Y139400D01*
X124519Y139341D01*
X124469Y139302D01*
X124450Y139292D01*
X124282Y139204D01*
X124105Y139145D01*
X123928Y139095D01*
X123771Y139066D01*
X123623Y139046D01*
X123515Y139036D01*
X123476D01*
X123446D01*
X123426D01*
X123416D01*
X123249Y139046D01*
X123082Y139056D01*
X122934Y139076D01*
X122797Y139115D01*
X122669Y139145D01*
X122551Y139184D01*
X122452Y139233D01*
X122354Y139272D01*
X122265Y139322D01*
X122196Y139361D01*
X122127Y139410D01*
X122078Y139440D01*
X122039Y139469D01*
X122009Y139499D01*
X122000Y139509D01*
X121990Y139518D01*
X121901Y139607D01*
X121822Y139715D01*
X121763Y139824D01*
X121704Y139942D01*
X121616Y140168D01*
X121557Y140394D01*
X121527Y140601D01*
X121508Y140690D01*
Y140768D01*
X121498Y140837D01*
Y142717D01*
X127864D01*
Y141910D01*
D02*
G37*
G36*
X122187Y136714D02*
X127864D01*
Y135917D01*
X122187D01*
Y134244D01*
X121498D01*
Y138387D01*
X122187D01*
Y136714D01*
D02*
G37*
G36*
X126231Y133605D02*
X126428Y133575D01*
X126595Y133526D01*
X126742Y133477D01*
X126870Y133437D01*
X126959Y133388D01*
X127018Y133359D01*
X127028Y133349D01*
X127038D01*
X127195Y133241D01*
X127323Y133113D01*
X127441Y132995D01*
X127540Y132877D01*
X127618Y132768D01*
X127667Y132690D01*
X127707Y132631D01*
X127717Y132621D01*
Y132611D01*
X127795Y132434D01*
X127854Y132247D01*
X127894Y132080D01*
X127923Y131912D01*
X127943Y131784D01*
X127953Y131676D01*
Y131578D01*
X127943Y131420D01*
X127933Y131273D01*
X127884Y130997D01*
X127805Y130761D01*
X127766Y130663D01*
X127717Y130564D01*
X127677Y130485D01*
X127638Y130417D01*
X127599Y130348D01*
X127559Y130298D01*
X127530Y130259D01*
X127510Y130230D01*
X127490Y130220D01*
Y130210D01*
X127402Y130121D01*
X127303Y130043D01*
X127205Y129974D01*
X127097Y129915D01*
X126890Y129826D01*
X126693Y129767D01*
X126516Y129738D01*
X126447Y129728D01*
X126378Y129718D01*
X126329Y129708D01*
X126280D01*
X126260D01*
X126250D01*
X125985Y129728D01*
X125749Y129767D01*
X125552Y129836D01*
X125375Y129905D01*
X125237Y129984D01*
X125138Y130052D01*
X125109Y130072D01*
X125080Y130092D01*
X125070Y130112D01*
X125060D01*
X124981Y130190D01*
X124892Y130289D01*
X124745Y130495D01*
X124617Y130712D01*
X124509Y130938D01*
X124420Y131135D01*
X124381Y131223D01*
X124351Y131302D01*
X124322Y131371D01*
X124302Y131420D01*
X124292Y131450D01*
Y131460D01*
X124214Y131666D01*
X124125Y131853D01*
X124046Y132011D01*
X123977Y132129D01*
X123908Y132227D01*
X123859Y132296D01*
X123820Y132345D01*
X123810Y132355D01*
X123702Y132453D01*
X123584Y132522D01*
X123476Y132571D01*
X123367Y132601D01*
X123269Y132621D01*
X123200Y132640D01*
X123151D01*
X123131D01*
X122964Y132631D01*
X122806Y132601D01*
X122678Y132552D01*
X122570Y132503D01*
X122482Y132463D01*
X122423Y132414D01*
X122383Y132385D01*
X122373Y132375D01*
X122285Y132266D01*
X122216Y132148D01*
X122167Y132020D01*
X122127Y131893D01*
X122108Y131784D01*
X122098Y131696D01*
Y131617D01*
X122108Y131430D01*
X122147Y131263D01*
X122196Y131125D01*
X122255Y131007D01*
X122324Y130918D01*
X122373Y130850D01*
X122413Y130810D01*
X122423Y130800D01*
X122551Y130702D01*
X122698Y130633D01*
X122856Y130584D01*
X123003Y130554D01*
X123131Y130525D01*
X123239Y130515D01*
X123279D01*
X123308D01*
X123328D01*
X123338D01*
Y129718D01*
X123141Y129728D01*
X122964Y129757D01*
X122797Y129797D01*
X122649Y129836D01*
X122531Y129875D01*
X122442Y129915D01*
X122383Y129944D01*
X122364Y129954D01*
X122206Y130052D01*
X122059Y130161D01*
X121941Y130269D01*
X121842Y130377D01*
X121763Y130476D01*
X121714Y130554D01*
X121675Y130604D01*
X121665Y130613D01*
Y130623D01*
X121576Y130790D01*
X121517Y130958D01*
X121468Y131125D01*
X121439Y131282D01*
X121419Y131420D01*
X121409Y131519D01*
Y131617D01*
X121419Y131765D01*
X121429Y131912D01*
X121488Y132168D01*
X121567Y132394D01*
X121655Y132591D01*
X121704Y132670D01*
X121744Y132739D01*
X121783Y132798D01*
X121822Y132857D01*
X121852Y132896D01*
X121881Y132926D01*
X121891Y132936D01*
X121901Y132945D01*
X122000Y133034D01*
X122098Y133113D01*
X122196Y133182D01*
X122305Y133231D01*
X122511Y133329D01*
X122708Y133388D01*
X122885Y133418D01*
X122964Y133428D01*
X123023Y133437D01*
X123082Y133447D01*
X123121D01*
X123141D01*
X123151D01*
X123308Y133437D01*
X123456Y133418D01*
X123584Y133388D01*
X123702Y133359D01*
X123800Y133329D01*
X123869Y133300D01*
X123908Y133280D01*
X123928Y133270D01*
X124046Y133191D01*
X124164Y133113D01*
X124263Y133024D01*
X124351Y132936D01*
X124430Y132857D01*
X124479Y132798D01*
X124519Y132758D01*
X124528Y132739D01*
X124627Y132591D01*
X124715Y132434D01*
X124804Y132257D01*
X124883Y132089D01*
X124952Y131942D01*
X124971Y131883D01*
X125001Y131824D01*
X125011Y131774D01*
X125030Y131745D01*
X125040Y131725D01*
Y131715D01*
X125080Y131597D01*
X125129Y131479D01*
X125217Y131282D01*
X125296Y131125D01*
X125375Y130997D01*
X125434Y130899D01*
X125493Y130830D01*
X125522Y130790D01*
X125532Y130781D01*
X125630Y130692D01*
X125749Y130623D01*
X125867Y130584D01*
X125985Y130544D01*
X126093Y130525D01*
X126182Y130515D01*
X126241D01*
X126250D01*
X126260D01*
X126428Y130525D01*
X126575Y130554D01*
X126693Y130604D01*
X126802Y130653D01*
X126890Y130702D01*
X126949Y130751D01*
X126988Y130781D01*
X126998Y130790D01*
X127087Y130899D01*
X127156Y131027D01*
X127195Y131155D01*
X127234Y131282D01*
X127254Y131401D01*
X127264Y131489D01*
Y131578D01*
X127254Y131784D01*
X127215Y131961D01*
X127166Y132119D01*
X127097Y132247D01*
X127038Y132345D01*
X126988Y132424D01*
X126949Y132463D01*
X126939Y132483D01*
X126802Y132591D01*
X126664Y132670D01*
X126506Y132729D01*
X126359Y132768D01*
X126231Y132788D01*
X126122Y132798D01*
X126083Y132808D01*
X126054D01*
X126034D01*
X126024D01*
Y133615D01*
X126231Y133605D01*
D02*
G37*
G36*
X21685Y64071D02*
X20824D01*
Y67071D01*
X18538D01*
Y67805D01*
X20824D01*
Y70123D01*
X18149D01*
Y70858D01*
X21685D01*
Y64071D01*
D02*
G37*
G36*
X17100D02*
X16240D01*
Y67071D01*
X13953D01*
Y67805D01*
X16240D01*
Y70123D01*
X13565D01*
Y70858D01*
X17100D01*
Y64071D01*
D02*
G37*
G36*
X25471Y70942D02*
X25650Y70921D01*
X25828Y70879D01*
X25996Y70826D01*
X26143Y70774D01*
X26279Y70711D01*
X26405Y70638D01*
X26520Y70564D01*
X26625Y70491D01*
X26709Y70417D01*
X26783Y70354D01*
X26846Y70302D01*
X26898Y70249D01*
X26930Y70207D01*
X26951Y70187D01*
X26961Y70176D01*
X27066Y70029D01*
X27160Y69861D01*
X27234Y69693D01*
X27307Y69515D01*
X27360Y69337D01*
X27412Y69158D01*
X27486Y68823D01*
X27507Y68665D01*
X27528Y68519D01*
X27538Y68382D01*
X27549Y68267D01*
X27559Y68172D01*
Y68109D01*
Y68057D01*
Y68046D01*
Y66767D01*
X27549Y66526D01*
X27528Y66295D01*
X27496Y66085D01*
X27454Y65886D01*
X27402Y65697D01*
X27349Y65529D01*
X27297Y65372D01*
X27234Y65235D01*
X27181Y65109D01*
X27119Y65004D01*
X27066Y64910D01*
X27024Y64837D01*
X26982Y64774D01*
X26951Y64732D01*
X26940Y64711D01*
X26930Y64700D01*
X26814Y64574D01*
X26688Y64459D01*
X26552Y64364D01*
X26416Y64281D01*
X26279Y64207D01*
X26132Y64155D01*
X26006Y64102D01*
X25870Y64071D01*
X25744Y64039D01*
X25639Y64018D01*
X25534Y63997D01*
X25440Y63987D01*
X25377Y63976D01*
X25272D01*
X25073Y63987D01*
X24884Y64008D01*
X24716Y64050D01*
X24548Y64092D01*
X24402Y64144D01*
X24265Y64207D01*
X24139Y64281D01*
X24024Y64354D01*
X23919Y64417D01*
X23835Y64490D01*
X23762Y64553D01*
X23699Y64606D01*
X23657Y64648D01*
X23625Y64690D01*
X23604Y64711D01*
X23594Y64721D01*
X23489Y64868D01*
X23394Y65025D01*
X23321Y65204D01*
X23248Y65372D01*
X23185Y65550D01*
X23143Y65728D01*
X23069Y66074D01*
X23048Y66232D01*
X23027Y66379D01*
X23017Y66515D01*
X23006Y66630D01*
X22996Y66725D01*
Y66798D01*
Y66851D01*
Y66861D01*
Y68099D01*
X23006Y68351D01*
X23027Y68581D01*
X23059Y68802D01*
X23090Y69012D01*
X23143Y69200D01*
X23195Y69368D01*
X23248Y69526D01*
X23300Y69673D01*
X23363Y69798D01*
X23415Y69903D01*
X23468Y69998D01*
X23510Y70071D01*
X23552Y70134D01*
X23583Y70176D01*
X23594Y70197D01*
X23604Y70207D01*
X23720Y70344D01*
X23846Y70449D01*
X23982Y70554D01*
X24118Y70638D01*
X24255Y70711D01*
X24391Y70774D01*
X24527Y70816D01*
X24664Y70858D01*
X24790Y70889D01*
X24905Y70910D01*
X25010Y70931D01*
X25094Y70942D01*
X25167Y70952D01*
X25272D01*
X25471Y70942D01*
D02*
G37*
G36*
X85483Y142707D02*
X85699Y142697D01*
X85896Y142667D01*
X86083Y142628D01*
X86260Y142589D01*
X86428Y142539D01*
X86575Y142490D01*
X86703Y142431D01*
X86821Y142382D01*
X86929Y142333D01*
X87018Y142284D01*
X87087Y142244D01*
X87146Y142205D01*
X87195Y142175D01*
X87215Y142166D01*
X87225Y142156D01*
X87353Y142047D01*
X87461Y141929D01*
X87559Y141801D01*
X87648Y141683D01*
X87717Y141555D01*
X87776Y141428D01*
X87825Y141300D01*
X87864Y141182D01*
X87894Y141073D01*
X87913Y140965D01*
X87933Y140867D01*
X87943Y140788D01*
Y140719D01*
X87953Y140670D01*
Y140630D01*
X87943Y140453D01*
X87933Y140296D01*
X87904Y140148D01*
X87864Y140001D01*
X87825Y139873D01*
X87786Y139755D01*
X87736Y139637D01*
X87677Y139538D01*
X87628Y139460D01*
X87579Y139381D01*
X87539Y139312D01*
X87500Y139263D01*
X87461Y139214D01*
X87431Y139184D01*
X87421Y139174D01*
X87412Y139164D01*
X87303Y139066D01*
X87185Y138987D01*
X87067Y138909D01*
X86939Y138849D01*
X86674Y138751D01*
X86428Y138672D01*
X86309Y138653D01*
X86201Y138623D01*
X86103Y138613D01*
X86014Y138603D01*
X85945Y138594D01*
X85896Y138584D01*
X85857D01*
X85847D01*
Y139391D01*
X85995Y139410D01*
X86123Y139420D01*
X86241Y139450D01*
X86359Y139469D01*
X86457Y139499D01*
X86546Y139528D01*
X86703Y139587D01*
X86821Y139646D01*
X86900Y139686D01*
X86939Y139725D01*
X86959Y139735D01*
X87057Y139853D01*
X87136Y139991D01*
X87185Y140138D01*
X87225Y140286D01*
X87244Y140424D01*
X87254Y140542D01*
X87264Y140581D01*
Y140640D01*
X87254Y140749D01*
X87244Y140857D01*
X87185Y141054D01*
X87107Y141211D01*
X87008Y141349D01*
X86910Y141447D01*
X86831Y141526D01*
X86772Y141565D01*
X86762Y141585D01*
X86752D01*
X86654Y141644D01*
X86546Y141693D01*
X86309Y141772D01*
X86063Y141831D01*
X85817Y141870D01*
X85709Y141880D01*
X85611Y141890D01*
X85512Y141900D01*
X85434D01*
X85365Y141910D01*
X85316D01*
X85286D01*
X85276D01*
X84105D01*
X83928D01*
X83761Y141890D01*
X83604Y141880D01*
X83456Y141851D01*
X83318Y141831D01*
X83200Y141801D01*
X83092Y141772D01*
X82984Y141733D01*
X82895Y141703D01*
X82826Y141674D01*
X82757Y141644D01*
X82708Y141614D01*
X82659Y141595D01*
X82629Y141575D01*
X82620Y141565D01*
X82610D01*
X82521Y141496D01*
X82442Y141418D01*
X82373Y141339D01*
X82314Y141260D01*
X82226Y141093D01*
X82157Y140926D01*
X82127Y140788D01*
X82108Y140670D01*
X82098Y140621D01*
Y140562D01*
X82108Y140365D01*
X82147Y140198D01*
X82206Y140050D01*
X82265Y139932D01*
X82324Y139843D01*
X82383Y139774D01*
X82423Y139735D01*
X82433Y139725D01*
X82501Y139676D01*
X82580Y139627D01*
X82747Y139558D01*
X82934Y139499D01*
X83112Y139450D01*
X83279Y139420D01*
X83358Y139410D01*
X83416Y139400D01*
X83466D01*
X83515Y139391D01*
X83535D01*
X83544D01*
Y138584D01*
X83358Y138594D01*
X83180Y138623D01*
X83023Y138653D01*
X82866Y138682D01*
X82728Y138731D01*
X82600Y138771D01*
X82482Y138820D01*
X82373Y138869D01*
X82275Y138918D01*
X82196Y138968D01*
X82127Y139017D01*
X82068Y139056D01*
X82029Y139086D01*
X82000Y139115D01*
X81980Y139125D01*
X81970Y139135D01*
X81872Y139233D01*
X81783Y139341D01*
X81714Y139450D01*
X81645Y139568D01*
X81586Y139686D01*
X81547Y139804D01*
X81478Y140040D01*
X81439Y140247D01*
X81429Y140335D01*
X81419Y140404D01*
X81409Y140473D01*
Y140562D01*
X81419Y140749D01*
X81439Y140916D01*
X81478Y141083D01*
X81527Y141231D01*
X81576Y141378D01*
X81635Y141506D01*
X81704Y141624D01*
X81773Y141733D01*
X81842Y141821D01*
X81911Y141910D01*
X81970Y141979D01*
X82019Y142038D01*
X82068Y142087D01*
X82108Y142116D01*
X82127Y142136D01*
X82137Y142146D01*
X82275Y142244D01*
X82423Y142333D01*
X82580Y142411D01*
X82747Y142471D01*
X82905Y142530D01*
X83072Y142579D01*
X83387Y142648D01*
X83535Y142667D01*
X83662Y142687D01*
X83790Y142697D01*
X83889Y142707D01*
X83977Y142717D01*
X84036D01*
X84086D01*
X84096D01*
X85257D01*
X85483Y142707D01*
D02*
G37*
G36*
X82187Y136252D02*
X87864D01*
Y135455D01*
X82187D01*
Y133782D01*
X81498D01*
Y137925D01*
X82187D01*
Y136252D01*
D02*
G37*
G36*
X86231Y133142D02*
X86428Y133113D01*
X86595Y133063D01*
X86742Y133014D01*
X86870Y132975D01*
X86959Y132926D01*
X87018Y132896D01*
X87028Y132886D01*
X87038D01*
X87195Y132778D01*
X87323Y132650D01*
X87441Y132532D01*
X87539Y132414D01*
X87618Y132306D01*
X87667Y132227D01*
X87707Y132168D01*
X87717Y132158D01*
Y132148D01*
X87795Y131971D01*
X87854Y131784D01*
X87894Y131617D01*
X87923Y131450D01*
X87943Y131322D01*
X87953Y131214D01*
Y131115D01*
X87943Y130958D01*
X87933Y130810D01*
X87884Y130535D01*
X87805Y130298D01*
X87766Y130200D01*
X87717Y130102D01*
X87677Y130023D01*
X87638Y129954D01*
X87599Y129885D01*
X87559Y129836D01*
X87530Y129797D01*
X87510Y129767D01*
X87490Y129757D01*
Y129747D01*
X87402Y129659D01*
X87303Y129580D01*
X87205Y129511D01*
X87097Y129452D01*
X86890Y129364D01*
X86693Y129305D01*
X86516Y129275D01*
X86447Y129265D01*
X86378Y129255D01*
X86329Y129246D01*
X86280D01*
X86260D01*
X86250D01*
X85985Y129265D01*
X85749Y129305D01*
X85552Y129374D01*
X85375Y129442D01*
X85237Y129521D01*
X85138Y129590D01*
X85109Y129610D01*
X85079Y129629D01*
X85070Y129649D01*
X85060D01*
X84981Y129728D01*
X84892Y129826D01*
X84745Y130033D01*
X84617Y130249D01*
X84509Y130476D01*
X84420Y130672D01*
X84381Y130761D01*
X84351Y130840D01*
X84322Y130909D01*
X84302Y130958D01*
X84292Y130987D01*
Y130997D01*
X84214Y131204D01*
X84125Y131391D01*
X84046Y131548D01*
X83977Y131666D01*
X83908Y131765D01*
X83859Y131834D01*
X83820Y131883D01*
X83810Y131893D01*
X83702Y131991D01*
X83584Y132060D01*
X83476Y132109D01*
X83367Y132139D01*
X83269Y132158D01*
X83200Y132178D01*
X83151D01*
X83131D01*
X82964Y132168D01*
X82806Y132139D01*
X82679Y132089D01*
X82570Y132040D01*
X82482Y132001D01*
X82423Y131952D01*
X82383Y131922D01*
X82373Y131912D01*
X82285Y131804D01*
X82216Y131686D01*
X82167Y131558D01*
X82127Y131430D01*
X82108Y131322D01*
X82098Y131233D01*
Y131155D01*
X82108Y130968D01*
X82147Y130800D01*
X82196Y130663D01*
X82255Y130544D01*
X82324Y130456D01*
X82373Y130387D01*
X82413Y130348D01*
X82423Y130338D01*
X82551Y130239D01*
X82698Y130171D01*
X82856Y130121D01*
X83003Y130092D01*
X83131Y130062D01*
X83239Y130052D01*
X83279D01*
X83308D01*
X83328D01*
X83338D01*
Y129255D01*
X83141Y129265D01*
X82964Y129295D01*
X82797Y129334D01*
X82649Y129374D01*
X82531Y129413D01*
X82442Y129452D01*
X82383Y129482D01*
X82364Y129492D01*
X82206Y129590D01*
X82059Y129698D01*
X81941Y129806D01*
X81842Y129915D01*
X81763Y130013D01*
X81714Y130092D01*
X81675Y130141D01*
X81665Y130151D01*
Y130161D01*
X81576Y130328D01*
X81517Y130495D01*
X81468Y130663D01*
X81439Y130820D01*
X81419Y130958D01*
X81409Y131056D01*
Y131155D01*
X81419Y131302D01*
X81429Y131450D01*
X81488Y131706D01*
X81567Y131932D01*
X81655Y132129D01*
X81704Y132207D01*
X81744Y132276D01*
X81783Y132335D01*
X81822Y132394D01*
X81852Y132434D01*
X81881Y132463D01*
X81891Y132473D01*
X81901Y132483D01*
X82000Y132571D01*
X82098Y132650D01*
X82196Y132719D01*
X82305Y132768D01*
X82511Y132867D01*
X82708Y132926D01*
X82885Y132955D01*
X82964Y132965D01*
X83023Y132975D01*
X83082Y132985D01*
X83121D01*
X83141D01*
X83151D01*
X83308Y132975D01*
X83456Y132955D01*
X83584Y132926D01*
X83702Y132896D01*
X83800Y132867D01*
X83869Y132837D01*
X83908Y132817D01*
X83928Y132808D01*
X84046Y132729D01*
X84164Y132650D01*
X84263Y132562D01*
X84351Y132473D01*
X84430Y132394D01*
X84479Y132335D01*
X84519Y132296D01*
X84528Y132276D01*
X84627Y132129D01*
X84715Y131971D01*
X84804Y131794D01*
X84883Y131627D01*
X84952Y131479D01*
X84971Y131420D01*
X85001Y131361D01*
X85011Y131312D01*
X85030Y131282D01*
X85040Y131263D01*
Y131253D01*
X85079Y131135D01*
X85129Y131017D01*
X85217Y130820D01*
X85296Y130663D01*
X85375Y130535D01*
X85434Y130436D01*
X85493Y130367D01*
X85522Y130328D01*
X85532Y130318D01*
X85631Y130230D01*
X85749Y130161D01*
X85867Y130121D01*
X85985Y130082D01*
X86093Y130062D01*
X86182Y130052D01*
X86241D01*
X86250D01*
X86260D01*
X86428Y130062D01*
X86575Y130092D01*
X86693Y130141D01*
X86801Y130190D01*
X86890Y130239D01*
X86949Y130289D01*
X86988Y130318D01*
X86998Y130328D01*
X87087Y130436D01*
X87156Y130564D01*
X87195Y130692D01*
X87234Y130820D01*
X87254Y130938D01*
X87264Y131027D01*
Y131115D01*
X87254Y131322D01*
X87215Y131499D01*
X87166Y131656D01*
X87097Y131784D01*
X87038Y131883D01*
X86988Y131961D01*
X86949Y132001D01*
X86939Y132020D01*
X86801Y132129D01*
X86664Y132207D01*
X86506Y132266D01*
X86359Y132306D01*
X86231Y132325D01*
X86123Y132335D01*
X86083Y132345D01*
X86054D01*
X86034D01*
X86024D01*
Y133152D01*
X86231Y133142D01*
D02*
G37*
G36*
X117097Y139725D02*
X116241D01*
X115138Y141959D01*
X114017Y139725D01*
X113151D01*
X114804Y142717D01*
X115444D01*
X117097Y139725D01*
D02*
G37*
G36*
X112275Y137137D02*
X117953D01*
Y136340D01*
X112275D01*
Y134667D01*
X111586D01*
Y138810D01*
X112275D01*
Y137137D01*
D02*
G37*
G36*
X117953Y133162D02*
X115473Y131932D01*
X117953Y130712D01*
Y129757D01*
X114745Y131450D01*
X111586Y129797D01*
Y130731D01*
X114027Y131932D01*
X111586Y133142D01*
Y134077D01*
X114745Y132404D01*
X117953Y134107D01*
Y133162D01*
D02*
G37*
G36*
X21685Y78835D02*
X20824D01*
Y84059D01*
X18108Y78835D01*
X17247D01*
Y85622D01*
X18097D01*
Y80366D01*
X20824Y85622D01*
X21685D01*
Y78835D01*
D02*
G37*
G36*
X25471Y85706D02*
X25650Y85685D01*
X25828Y85643D01*
X25996Y85590D01*
X26143Y85538D01*
X26279Y85475D01*
X26405Y85401D01*
X26520Y85328D01*
X26625Y85254D01*
X26709Y85181D01*
X26783Y85118D01*
X26846Y85066D01*
X26898Y85013D01*
X26930Y84971D01*
X26951Y84950D01*
X26961Y84940D01*
X27066Y84793D01*
X27160Y84625D01*
X27234Y84457D01*
X27307Y84279D01*
X27360Y84101D01*
X27412Y83922D01*
X27486Y83587D01*
X27507Y83429D01*
X27528Y83282D01*
X27538Y83146D01*
X27549Y83031D01*
X27559Y82936D01*
Y82873D01*
Y82821D01*
Y82810D01*
Y81530D01*
X27549Y81289D01*
X27528Y81059D01*
X27496Y80849D01*
X27454Y80649D01*
X27402Y80461D01*
X27349Y80293D01*
X27297Y80135D01*
X27234Y79999D01*
X27181Y79873D01*
X27119Y79768D01*
X27066Y79674D01*
X27024Y79600D01*
X26982Y79537D01*
X26951Y79495D01*
X26940Y79475D01*
X26930Y79464D01*
X26814Y79338D01*
X26688Y79223D01*
X26552Y79128D01*
X26416Y79044D01*
X26279Y78971D01*
X26132Y78918D01*
X26006Y78866D01*
X25870Y78835D01*
X25744Y78803D01*
X25639Y78782D01*
X25534Y78761D01*
X25440Y78751D01*
X25377Y78740D01*
X25272D01*
X25073Y78751D01*
X24884Y78772D01*
X24716Y78814D01*
X24548Y78856D01*
X24402Y78908D01*
X24265Y78971D01*
X24139Y79044D01*
X24024Y79118D01*
X23919Y79181D01*
X23835Y79254D01*
X23762Y79317D01*
X23699Y79370D01*
X23657Y79412D01*
X23625Y79453D01*
X23604Y79475D01*
X23594Y79485D01*
X23489Y79632D01*
X23394Y79789D01*
X23321Y79967D01*
X23248Y80135D01*
X23185Y80314D01*
X23143Y80492D01*
X23069Y80838D01*
X23048Y80996D01*
X23027Y81142D01*
X23017Y81279D01*
X23006Y81394D01*
X22996Y81489D01*
Y81562D01*
Y81614D01*
Y81625D01*
Y82863D01*
X23006Y83114D01*
X23027Y83345D01*
X23059Y83566D01*
X23090Y83775D01*
X23143Y83964D01*
X23195Y84132D01*
X23248Y84289D01*
X23300Y84436D01*
X23363Y84562D01*
X23415Y84667D01*
X23468Y84761D01*
X23510Y84835D01*
X23552Y84898D01*
X23583Y84940D01*
X23594Y84961D01*
X23604Y84971D01*
X23720Y85108D01*
X23846Y85212D01*
X23982Y85317D01*
X24118Y85401D01*
X24255Y85475D01*
X24391Y85538D01*
X24527Y85580D01*
X24664Y85622D01*
X24790Y85653D01*
X24905Y85674D01*
X25010Y85695D01*
X25094Y85706D01*
X25167Y85716D01*
X25272D01*
X25471Y85706D01*
D02*
G37*
G36*
X75562Y142707D02*
X75778Y142687D01*
X75975Y142657D01*
X76162Y142618D01*
X76339Y142569D01*
X76496Y142520D01*
X76644Y142471D01*
X76772Y142411D01*
X76890Y142352D01*
X76988Y142303D01*
X77077Y142254D01*
X77146Y142205D01*
X77205Y142175D01*
X77244Y142146D01*
X77264Y142126D01*
X77274Y142116D01*
X77392Y141998D01*
X77500Y141880D01*
X77589Y141742D01*
X77667Y141614D01*
X77736Y141477D01*
X77785Y141339D01*
X77835Y141211D01*
X77864Y141083D01*
X77894Y140965D01*
X77913Y140847D01*
X77933Y140749D01*
X77943Y140660D01*
X77953Y140591D01*
Y140493D01*
X77943Y140286D01*
X77923Y140079D01*
X77884Y139902D01*
X77845Y139725D01*
X77795Y139568D01*
X77736Y139420D01*
X77667Y139292D01*
X77599Y139174D01*
X77539Y139076D01*
X77471Y138977D01*
X77412Y138909D01*
X77362Y138840D01*
X77323Y138790D01*
X77284Y138761D01*
X77264Y138741D01*
X77254Y138731D01*
X77077Y138594D01*
X74696D01*
Y140552D01*
X75384D01*
Y139391D01*
X76851D01*
X76959Y139509D01*
X77057Y139646D01*
X77136Y139804D01*
X77185Y139971D01*
X77225Y140129D01*
X77244Y140266D01*
X77254Y140384D01*
X77264Y140434D01*
Y140493D01*
X77254Y140621D01*
X77244Y140739D01*
X77185Y140945D01*
X77106Y141132D01*
X77008Y141280D01*
X76910Y141398D01*
X76831Y141477D01*
X76772Y141526D01*
X76762Y141546D01*
X76752D01*
X76654Y141605D01*
X76546Y141664D01*
X76310Y141752D01*
X76064Y141821D01*
X75818Y141860D01*
X75709Y141880D01*
X75611Y141890D01*
X75512Y141900D01*
X75434D01*
X75365Y141910D01*
X75316D01*
X75286D01*
X75276D01*
X73977D01*
X73800Y141900D01*
X73633Y141890D01*
X73485Y141880D01*
X73348Y141851D01*
X73210Y141831D01*
X73102Y141801D01*
X72993Y141772D01*
X72895Y141742D01*
X72816Y141713D01*
X72747Y141683D01*
X72688Y141654D01*
X72639Y141634D01*
X72600Y141614D01*
X72570Y141595D01*
X72560Y141585D01*
X72551D01*
X72472Y141516D01*
X72403Y141447D01*
X72285Y141290D01*
X72206Y141122D01*
X72157Y140955D01*
X72118Y140808D01*
X72108Y140739D01*
Y140680D01*
X72098Y140640D01*
Y140571D01*
X72108Y140375D01*
X72147Y140198D01*
X72206Y140050D01*
X72265Y139932D01*
X72324Y139843D01*
X72383Y139774D01*
X72423Y139735D01*
X72433Y139725D01*
X72570Y139627D01*
X72718Y139548D01*
X72875Y139489D01*
X73023Y139450D01*
X73161Y139420D01*
X73269Y139400D01*
X73308D01*
X73338Y139391D01*
X73357D01*
X73367D01*
Y138594D01*
X73190Y138603D01*
X73033Y138633D01*
X72885Y138663D01*
X72738Y138702D01*
X72610Y138751D01*
X72492Y138800D01*
X72383Y138849D01*
X72285Y138899D01*
X72206Y138948D01*
X72127Y138997D01*
X72068Y139046D01*
X72009Y139086D01*
X71970Y139115D01*
X71940Y139145D01*
X71931Y139155D01*
X71921Y139164D01*
X71832Y139263D01*
X71754Y139371D01*
X71685Y139489D01*
X71626Y139597D01*
X71537Y139833D01*
X71468Y140060D01*
X71439Y140266D01*
X71429Y140355D01*
X71419Y140434D01*
X71409Y140493D01*
Y140581D01*
X71419Y140778D01*
X71439Y140955D01*
X71468Y141122D01*
X71517Y141280D01*
X71567Y141428D01*
X71616Y141555D01*
X71685Y141674D01*
X71744Y141782D01*
X71803Y141880D01*
X71862Y141959D01*
X71921Y142028D01*
X71970Y142087D01*
X72019Y142126D01*
X72049Y142156D01*
X72068Y142175D01*
X72078Y142185D01*
X72206Y142274D01*
X72354Y142362D01*
X72511Y142431D01*
X72679Y142490D01*
X73003Y142589D01*
X73328Y142648D01*
X73485Y142667D01*
X73623Y142687D01*
X73751Y142697D01*
X73869Y142707D01*
X73958Y142717D01*
X74027D01*
X74066D01*
X74086D01*
X75335D01*
X75562Y142707D01*
D02*
G37*
G36*
X77864Y136478D02*
X72964D01*
X77864Y133929D01*
Y133123D01*
X71498D01*
Y133920D01*
X76428D01*
X71498Y136478D01*
Y137285D01*
X77864D01*
Y136478D01*
D02*
G37*
G36*
Y130318D02*
X77854Y130102D01*
X77835Y129895D01*
X77805Y129708D01*
X77756Y129531D01*
X77707Y129374D01*
X77648Y129226D01*
X77589Y129088D01*
X77520Y128970D01*
X77461Y128862D01*
X77402Y128763D01*
X77343Y128685D01*
X77293Y128626D01*
X77244Y128577D01*
X77215Y128537D01*
X77195Y128517D01*
X77185Y128508D01*
X77047Y128399D01*
X76900Y128301D01*
X76752Y128212D01*
X76585Y128144D01*
X76428Y128085D01*
X76260Y128035D01*
X75945Y127956D01*
X75798Y127927D01*
X75660Y127907D01*
X75542Y127898D01*
X75434Y127888D01*
X75345Y127878D01*
X75286D01*
X75237D01*
X75227D01*
X74164D01*
X73928Y127888D01*
X73712Y127907D01*
X73515Y127937D01*
X73318Y127976D01*
X73141Y128025D01*
X72984Y128075D01*
X72836Y128134D01*
X72708Y128183D01*
X72590Y128242D01*
X72482Y128301D01*
X72393Y128350D01*
X72324Y128399D01*
X72265Y128439D01*
X72226Y128468D01*
X72206Y128488D01*
X72196Y128498D01*
X72068Y128616D01*
X71970Y128744D01*
X71872Y128882D01*
X71793Y129029D01*
X71724Y129167D01*
X71665Y129314D01*
X71626Y129452D01*
X71586Y129590D01*
X71557Y129718D01*
X71537Y129846D01*
X71517Y129954D01*
X71508Y130043D01*
X71498Y130121D01*
Y131745D01*
X77864D01*
Y130318D01*
D02*
G37*
G36*
X97953Y140739D02*
Y140040D01*
X91586Y138052D01*
Y138938D01*
X96733Y140394D01*
X91586Y141841D01*
Y142717D01*
X97953Y140739D01*
D02*
G37*
G36*
X95306Y136055D02*
X97323D01*
Y135277D01*
X95306D01*
Y133831D01*
X94538D01*
Y135277D01*
X92688D01*
Y136055D01*
X94538D01*
Y137501D01*
X95306D01*
Y136055D01*
D02*
G37*
%LPC*%
G36*
X104686Y137698D02*
X102275D01*
Y136734D01*
X102285Y136537D01*
X102324Y136370D01*
X102393Y136222D01*
X102462Y136094D01*
X102560Y135986D01*
X102669Y135897D01*
X102777Y135819D01*
X102885Y135760D01*
X103003Y135711D01*
X103112Y135681D01*
X103220Y135651D01*
X103308Y135642D01*
X103387Y135632D01*
X103456Y135622D01*
X103495D01*
X103505D01*
X103702Y135632D01*
X103869Y135671D01*
X104017Y135720D01*
X104145Y135769D01*
X104243Y135828D01*
X104312Y135878D01*
X104351Y135917D01*
X104371Y135927D01*
X104479Y136045D01*
X104548Y136173D01*
X104607Y136311D01*
X104647Y136439D01*
X104666Y136547D01*
X104676Y136645D01*
X104686Y136704D01*
Y137698D01*
D02*
G37*
G36*
X348760Y151565D02*
X347408D01*
X347185Y151552D01*
X347001Y151512D01*
X346831Y151460D01*
X346700Y151407D01*
X346608Y151342D01*
X346529Y151289D01*
X346490Y151250D01*
X346477Y151237D01*
X346372Y151106D01*
X346293Y150948D01*
X346240Y150778D01*
X346201Y150620D01*
X346175Y150463D01*
X346162Y150345D01*
Y150292D01*
Y150253D01*
Y150240D01*
Y150227D01*
X346175Y150004D01*
X346214Y149807D01*
X346267Y149636D01*
X346332Y149492D01*
X346398Y149374D01*
X346450Y149295D01*
X346490Y149243D01*
X346503Y149230D01*
X346634Y149111D01*
X346792Y149020D01*
X346936Y148954D01*
X347080Y148915D01*
X347198Y148888D01*
X347303Y148862D01*
X348760D01*
Y151565D01*
D02*
G37*
G36*
Y147970D02*
X347290D01*
X347067Y147957D01*
X346857Y147904D01*
X346687Y147826D01*
X346542Y147734D01*
X346411Y147616D01*
X346306Y147485D01*
X346227Y147340D01*
X346149Y147209D01*
X346096Y147065D01*
X346057Y146920D01*
X346030Y146789D01*
X346017Y146671D01*
X346004Y146579D01*
X345991Y146501D01*
Y146448D01*
Y146435D01*
X346004Y146173D01*
X346044Y145949D01*
X346109Y145753D01*
X346162Y145595D01*
X346227Y145464D01*
X346293Y145385D01*
X346332Y145320D01*
X346345Y145307D01*
X346490Y145175D01*
X346647Y145084D01*
X346805Y145005D01*
X346962Y144966D01*
X347093Y144939D01*
X347198Y144926D01*
X347277Y144913D01*
X348760D01*
Y147970D01*
D02*
G37*
G36*
X354401Y151644D02*
X354322D01*
X354152Y151630D01*
X354008Y151617D01*
X353732Y151539D01*
X353496Y151434D01*
X353312Y151316D01*
X353168Y151184D01*
X353063Y151079D01*
X353010Y151001D01*
X352984Y150988D01*
Y150975D01*
X352905Y150843D01*
X352840Y150699D01*
X352722Y150384D01*
X352643Y150056D01*
X352590Y149728D01*
X352577Y149571D01*
X352564Y149426D01*
X352551Y149295D01*
X352538Y149190D01*
Y149098D01*
Y149033D01*
Y148980D01*
Y148967D01*
Y147380D01*
X352551Y147143D01*
X352564Y146920D01*
X352577Y146724D01*
X352617Y146527D01*
X352643Y146356D01*
X352682Y146199D01*
X352722Y146054D01*
X352761Y145923D01*
X352800Y145818D01*
X352840Y145713D01*
X352879Y145635D01*
X352919Y145569D01*
X352945Y145517D01*
X352971Y145477D01*
X352984Y145464D01*
Y145451D01*
X353076Y145346D01*
X353168Y145241D01*
X353378Y145084D01*
X353601Y144979D01*
X353811Y144900D01*
X354008Y144861D01*
X354099Y144834D01*
X354178D01*
X354230Y144821D01*
X354322D01*
X354480Y144834D01*
X354637Y144847D01*
X354913Y144926D01*
X355136Y145031D01*
X355333Y145162D01*
X355477Y145293D01*
X355582Y145398D01*
X355647Y145477D01*
X355674Y145490D01*
Y145503D01*
X355752Y145635D01*
X355818Y145779D01*
X355936Y146107D01*
X356015Y146435D01*
X356067Y146750D01*
X356081Y146894D01*
X356094Y147038D01*
X356107Y147157D01*
Y147275D01*
X356120Y147366D01*
Y147432D01*
Y147471D01*
Y147485D01*
Y149006D01*
X356107Y149243D01*
X356094Y149466D01*
X356067Y149676D01*
X356041Y149859D01*
X356002Y150043D01*
X355962Y150200D01*
X355923Y150345D01*
X355884Y150476D01*
X355844Y150594D01*
X355805Y150699D01*
X355766Y150778D01*
X355726Y150856D01*
X355700Y150909D01*
X355674Y150948D01*
X355661Y150961D01*
Y150975D01*
X355569Y151093D01*
X355477Y151198D01*
X355372Y151289D01*
X355267Y151368D01*
X355044Y151486D01*
X354821Y151565D01*
X354624Y151604D01*
X354467Y151630D01*
X354401Y151644D01*
D02*
G37*
G36*
X370250Y130798D02*
X370171D01*
X370001Y130785D01*
X369857Y130772D01*
X369581Y130694D01*
X369345Y130589D01*
X369161Y130471D01*
X369017Y130339D01*
X368912Y130234D01*
X368859Y130156D01*
X368833Y130142D01*
Y130129D01*
X368754Y129998D01*
X368689Y129854D01*
X368571Y129539D01*
X368492Y129211D01*
X368440Y128883D01*
X368426Y128726D01*
X368413Y128581D01*
X368400Y128450D01*
X368387Y128345D01*
Y128253D01*
Y128188D01*
Y128135D01*
Y128122D01*
Y126534D01*
X368400Y126298D01*
X368413Y126075D01*
X368426Y125879D01*
X368466Y125682D01*
X368492Y125511D01*
X368531Y125354D01*
X368571Y125209D01*
X368610Y125078D01*
X368649Y124973D01*
X368689Y124868D01*
X368728Y124790D01*
X368767Y124724D01*
X368794Y124671D01*
X368820Y124632D01*
X368833Y124619D01*
Y124606D01*
X368925Y124501D01*
X369017Y124396D01*
X369227Y124239D01*
X369450Y124134D01*
X369660Y124055D01*
X369857Y124015D01*
X369948Y123989D01*
X370027D01*
X370079Y123976D01*
X370171D01*
X370329Y123989D01*
X370486Y124002D01*
X370762Y124081D01*
X370985Y124186D01*
X371182Y124317D01*
X371326Y124449D01*
X371431Y124553D01*
X371497Y124632D01*
X371523Y124645D01*
Y124658D01*
X371601Y124790D01*
X371667Y124934D01*
X371785Y125262D01*
X371864Y125590D01*
X371916Y125905D01*
X371929Y126049D01*
X371942Y126193D01*
X371956Y126312D01*
Y126430D01*
X371969Y126521D01*
Y126587D01*
Y126626D01*
Y126639D01*
Y128161D01*
X371956Y128398D01*
X371942Y128621D01*
X371916Y128831D01*
X371890Y129014D01*
X371851Y129198D01*
X371811Y129355D01*
X371772Y129500D01*
X371733Y129631D01*
X371693Y129749D01*
X371654Y129854D01*
X371615Y129933D01*
X371575Y130011D01*
X371549Y130064D01*
X371523Y130103D01*
X371510Y130116D01*
Y130129D01*
X371418Y130247D01*
X371326Y130352D01*
X371221Y130444D01*
X371116Y130523D01*
X370893Y130641D01*
X370670Y130720D01*
X370473Y130759D01*
X370316Y130785D01*
X370250Y130798D01*
D02*
G37*
G36*
X342081Y130864D02*
X342055D01*
X341937Y130851D01*
X341819Y130838D01*
X341622Y130759D01*
X341465Y130667D01*
X341334Y130549D01*
X341229Y130431D01*
X341150Y130326D01*
X341110Y130247D01*
X341097Y130234D01*
Y130221D01*
X341045Y130090D01*
X340992Y129946D01*
X340927Y129644D01*
X340874Y129316D01*
X340835Y128988D01*
X340822Y128844D01*
X340809Y128699D01*
Y128568D01*
X340796Y128463D01*
Y128371D01*
Y128306D01*
Y128253D01*
Y128240D01*
Y126482D01*
Y126246D01*
X340809Y126023D01*
X340835Y125813D01*
X340848Y125629D01*
X340874Y125446D01*
X340901Y125288D01*
X340927Y125144D01*
X340953Y125026D01*
X340992Y124908D01*
X341019Y124803D01*
X341045Y124724D01*
X341058Y124658D01*
X341084Y124606D01*
X341097Y124566D01*
X341110Y124553D01*
Y124540D01*
X341176Y124435D01*
X341242Y124330D01*
X341386Y124173D01*
X341544Y124068D01*
X341688Y123989D01*
X341832Y123950D01*
X341937Y123924D01*
X342016Y123910D01*
X342042D01*
X342160Y123924D01*
X342265Y123937D01*
X342449Y124015D01*
X342619Y124120D01*
X342751Y124252D01*
X342856Y124370D01*
X342921Y124475D01*
X342974Y124553D01*
X342987Y124566D01*
Y124580D01*
X343039Y124711D01*
X343092Y124855D01*
X343157Y125170D01*
X343210Y125511D01*
X343249Y125839D01*
X343262Y125984D01*
X343275Y126128D01*
Y126259D01*
X343288Y126364D01*
Y126456D01*
Y126534D01*
Y126574D01*
Y126587D01*
Y128345D01*
Y128568D01*
X343275Y128791D01*
X343249Y128988D01*
X343236Y129172D01*
X343210Y129342D01*
X343183Y129500D01*
X343157Y129631D01*
X343131Y129762D01*
X343105Y129867D01*
X343078Y129972D01*
X343052Y130051D01*
X343026Y130116D01*
X343013Y130169D01*
X343000Y130208D01*
X342987Y130221D01*
Y130234D01*
X342921Y130339D01*
X342856Y130444D01*
X342711Y130602D01*
X342554Y130707D01*
X342409Y130785D01*
X342265Y130838D01*
X342160Y130851D01*
X342081Y130864D01*
D02*
G37*
G36*
X330339D02*
X330260D01*
X330090Y130851D01*
X329945Y130798D01*
X329801Y130733D01*
X329696Y130667D01*
X329604Y130589D01*
X329539Y130523D01*
X329499Y130471D01*
X329486Y130457D01*
X329381Y130300D01*
X329316Y130116D01*
X329263Y129946D01*
X329224Y129775D01*
X329198Y129618D01*
X329185Y129500D01*
Y129421D01*
Y129408D01*
Y129395D01*
X329198Y129172D01*
X329224Y128962D01*
X329276Y128791D01*
X329329Y128634D01*
X329381Y128516D01*
X329434Y128424D01*
X329460Y128371D01*
X329473Y128358D01*
X329591Y128227D01*
X329722Y128135D01*
X329854Y128056D01*
X329972Y128017D01*
X330090Y127991D01*
X330182Y127978D01*
X330234Y127965D01*
X330260D01*
X330431Y127978D01*
X330588Y128030D01*
X330719Y128083D01*
X330838Y128161D01*
X330929Y128227D01*
X330995Y128293D01*
X331034Y128332D01*
X331048Y128345D01*
X331139Y128503D01*
X331218Y128673D01*
X331271Y128857D01*
X331297Y129014D01*
X331323Y129172D01*
X331336Y129290D01*
Y129368D01*
Y129382D01*
Y129395D01*
X331323Y129631D01*
X331297Y129841D01*
X331244Y130025D01*
X331192Y130169D01*
X331139Y130300D01*
X331087Y130379D01*
X331061Y130444D01*
X331048Y130457D01*
X330929Y130589D01*
X330798Y130694D01*
X330667Y130759D01*
X330549Y130812D01*
X330431Y130838D01*
X330339Y130864D01*
D02*
G37*
G36*
X330365Y127073D02*
X330273D01*
X330077Y127059D01*
X329893Y127007D01*
X329735Y126928D01*
X329604Y126849D01*
X329499Y126771D01*
X329434Y126692D01*
X329381Y126639D01*
X329368Y126626D01*
X329250Y126443D01*
X329171Y126259D01*
X329106Y126062D01*
X329066Y125879D01*
X329040Y125708D01*
X329027Y125577D01*
Y125524D01*
Y125485D01*
Y125472D01*
Y125459D01*
X329040Y125196D01*
X329080Y124973D01*
X329132Y124776D01*
X329185Y124619D01*
X329250Y124488D01*
X329303Y124396D01*
X329342Y124330D01*
X329355Y124317D01*
X329486Y124186D01*
X329630Y124081D01*
X329788Y124015D01*
X329932Y123963D01*
X330064Y123937D01*
X330169Y123924D01*
X330247Y123910D01*
X330273D01*
X330483Y123924D01*
X330667Y123976D01*
X330824Y124042D01*
X330956Y124120D01*
X331061Y124186D01*
X331126Y124252D01*
X331179Y124304D01*
X331192Y124317D01*
X331297Y124488D01*
X331376Y124671D01*
X331428Y124855D01*
X331467Y125039D01*
X331494Y125209D01*
X331507Y125341D01*
Y125393D01*
Y125432D01*
Y125446D01*
Y125459D01*
X331494Y125721D01*
X331454Y125944D01*
X331402Y126141D01*
X331336Y126312D01*
X331284Y126443D01*
X331231Y126548D01*
X331192Y126600D01*
X331179Y126626D01*
X331048Y126771D01*
X330903Y126889D01*
X330746Y126968D01*
X330601Y127020D01*
X330470Y127046D01*
X330365Y127073D01*
D02*
G37*
G36*
X124597Y141910D02*
X122187D01*
Y140945D01*
X122196Y140749D01*
X122236Y140581D01*
X122305Y140434D01*
X122373Y140306D01*
X122472Y140198D01*
X122580Y140109D01*
X122688Y140030D01*
X122797Y139971D01*
X122915Y139922D01*
X123023Y139892D01*
X123131Y139863D01*
X123220Y139853D01*
X123298Y139843D01*
X123367Y139833D01*
X123407D01*
X123416D01*
X123613Y139843D01*
X123781Y139883D01*
X123928Y139932D01*
X124056Y139981D01*
X124154Y140040D01*
X124223Y140089D01*
X124263Y140129D01*
X124282Y140138D01*
X124391Y140257D01*
X124460Y140384D01*
X124519Y140522D01*
X124558Y140650D01*
X124578Y140758D01*
X124588Y140857D01*
X124597Y140916D01*
Y141910D01*
D02*
G37*
G36*
X25335Y70187D02*
X25272D01*
X25136Y70176D01*
X25021Y70165D01*
X24800Y70103D01*
X24611Y70019D01*
X24464Y69924D01*
X24349Y69819D01*
X24265Y69735D01*
X24223Y69673D01*
X24202Y69662D01*
Y69652D01*
X24139Y69547D01*
X24087Y69431D01*
X23992Y69179D01*
X23930Y68917D01*
X23888Y68655D01*
X23877Y68529D01*
X23867Y68414D01*
X23856Y68309D01*
X23846Y68225D01*
Y68151D01*
Y68099D01*
Y68057D01*
Y68046D01*
Y66777D01*
X23856Y66588D01*
X23867Y66410D01*
X23877Y66253D01*
X23909Y66095D01*
X23930Y65959D01*
X23961Y65833D01*
X23992Y65718D01*
X24024Y65613D01*
X24055Y65529D01*
X24087Y65445D01*
X24118Y65382D01*
X24150Y65330D01*
X24171Y65288D01*
X24192Y65256D01*
X24202Y65246D01*
Y65235D01*
X24276Y65151D01*
X24349Y65067D01*
X24517Y64942D01*
X24695Y64858D01*
X24863Y64795D01*
X25021Y64763D01*
X25094Y64742D01*
X25157D01*
X25199Y64732D01*
X25272D01*
X25398Y64742D01*
X25524Y64753D01*
X25744Y64816D01*
X25923Y64899D01*
X26080Y65004D01*
X26195Y65109D01*
X26279Y65193D01*
X26332Y65256D01*
X26353Y65267D01*
Y65277D01*
X26416Y65382D01*
X26468Y65497D01*
X26562Y65760D01*
X26625Y66022D01*
X26667Y66274D01*
X26678Y66389D01*
X26688Y66505D01*
X26699Y66599D01*
Y66693D01*
X26709Y66767D01*
Y66819D01*
Y66851D01*
Y66861D01*
Y68078D01*
X26699Y68267D01*
X26688Y68445D01*
X26667Y68613D01*
X26646Y68760D01*
X26615Y68907D01*
X26583Y69033D01*
X26552Y69148D01*
X26520Y69253D01*
X26489Y69347D01*
X26458Y69431D01*
X26426Y69494D01*
X26395Y69557D01*
X26374Y69599D01*
X26353Y69630D01*
X26342Y69641D01*
Y69652D01*
X26269Y69746D01*
X26195Y69830D01*
X26111Y69903D01*
X26028Y69966D01*
X25849Y70061D01*
X25671Y70123D01*
X25513Y70155D01*
X25388Y70176D01*
X25335Y70187D01*
D02*
G37*
G36*
Y84950D02*
X25272D01*
X25136Y84940D01*
X25021Y84929D01*
X24800Y84866D01*
X24611Y84782D01*
X24464Y84688D01*
X24349Y84583D01*
X24265Y84499D01*
X24223Y84436D01*
X24202Y84426D01*
Y84415D01*
X24139Y84310D01*
X24087Y84195D01*
X23992Y83943D01*
X23930Y83681D01*
X23888Y83419D01*
X23877Y83293D01*
X23867Y83177D01*
X23856Y83073D01*
X23846Y82989D01*
Y82915D01*
Y82863D01*
Y82821D01*
Y82810D01*
Y81541D01*
X23856Y81352D01*
X23867Y81174D01*
X23877Y81016D01*
X23909Y80859D01*
X23930Y80723D01*
X23961Y80597D01*
X23992Y80481D01*
X24024Y80377D01*
X24055Y80293D01*
X24087Y80209D01*
X24118Y80146D01*
X24150Y80093D01*
X24171Y80051D01*
X24192Y80020D01*
X24202Y80010D01*
Y79999D01*
X24276Y79915D01*
X24349Y79831D01*
X24517Y79705D01*
X24695Y79621D01*
X24863Y79558D01*
X25021Y79527D01*
X25094Y79506D01*
X25157D01*
X25199Y79495D01*
X25272D01*
X25398Y79506D01*
X25524Y79516D01*
X25744Y79579D01*
X25923Y79663D01*
X26080Y79768D01*
X26195Y79873D01*
X26279Y79957D01*
X26332Y80020D01*
X26353Y80030D01*
Y80041D01*
X26416Y80146D01*
X26468Y80261D01*
X26562Y80524D01*
X26625Y80786D01*
X26667Y81037D01*
X26678Y81153D01*
X26688Y81268D01*
X26699Y81363D01*
Y81457D01*
X26709Y81530D01*
Y81583D01*
Y81614D01*
Y81625D01*
Y82842D01*
X26699Y83031D01*
X26688Y83209D01*
X26667Y83377D01*
X26646Y83524D01*
X26615Y83671D01*
X26583Y83796D01*
X26552Y83912D01*
X26520Y84017D01*
X26489Y84111D01*
X26458Y84195D01*
X26426Y84258D01*
X26395Y84321D01*
X26374Y84363D01*
X26353Y84394D01*
X26342Y84405D01*
Y84415D01*
X26269Y84510D01*
X26195Y84594D01*
X26111Y84667D01*
X26028Y84730D01*
X25849Y84824D01*
X25671Y84887D01*
X25513Y84919D01*
X25388Y84940D01*
X25335Y84950D01*
D02*
G37*
G36*
X77175Y130948D02*
X72186D01*
Y130230D01*
X72196Y130082D01*
X72206Y129954D01*
X72255Y129718D01*
X72334Y129511D01*
X72423Y129344D01*
X72511Y129226D01*
X72580Y129128D01*
X72639Y129078D01*
X72649Y129059D01*
X72659D01*
X72757Y128990D01*
X72856Y128931D01*
X73092Y128832D01*
X73338Y128763D01*
X73574Y128724D01*
X73682Y128704D01*
X73790Y128694D01*
X73889Y128685D01*
X73968D01*
X74036Y128675D01*
X74086D01*
X74125D01*
X74135D01*
X75266D01*
X75434D01*
X75601Y128694D01*
X75749Y128714D01*
X75886Y128734D01*
X76014Y128763D01*
X76132Y128803D01*
X76241Y128832D01*
X76329Y128872D01*
X76418Y128911D01*
X76487Y128940D01*
X76556Y128980D01*
X76605Y129009D01*
X76644Y129029D01*
X76674Y129049D01*
X76683Y129069D01*
X76693D01*
X76782Y129147D01*
X76851Y129236D01*
X76920Y129324D01*
X76969Y129423D01*
X77057Y129629D01*
X77116Y129826D01*
X77146Y130013D01*
X77156Y130092D01*
X77166Y130161D01*
X77175Y130220D01*
Y130948D01*
D02*
G37*
%LPD*%
D10*
X297244Y20669D02*
Y52165D01*
X283465Y36417D02*
X291339D01*
X287402Y32480D02*
Y40354D01*
X273622Y42323D02*
X277559D01*
X273622Y30512D02*
Y42323D01*
Y30512D02*
X277559D01*
Y20669D02*
Y52165D01*
X375984D01*
Y20669D02*
Y52165D01*
X277559Y20669D02*
X375984D01*
X76772D02*
Y52165D01*
X62992Y36417D02*
X70866D01*
X66929Y32480D02*
Y40354D01*
X53150Y42323D02*
X57087D01*
X53150Y30512D02*
Y42323D01*
Y30512D02*
X57087D01*
Y20669D02*
Y52165D01*
X155512D01*
Y20669D02*
Y52165D01*
X57087Y20669D02*
X155512D01*
D12*
X162402Y70866D02*
X170276D01*
X162402D02*
Y78740D01*
X264764Y70866D02*
X272638D01*
Y78740D01*
Y173228D02*
Y181102D01*
X264764D02*
X272638D01*
X162402D02*
X170276D01*
X162402Y173228D02*
Y181102D01*
X24685Y97795D02*
Y102795D01*
X14685Y97795D02*
X24685D01*
X14685D02*
Y102795D01*
X24685Y172795D02*
Y177795D01*
X14685D02*
X24685D01*
X14685Y172795D02*
Y177795D01*
X418386Y97795D02*
Y102795D01*
X408386Y97795D02*
X418386D01*
X408386D02*
Y102795D01*
X418386Y172795D02*
Y177795D01*
X408386D02*
X418386D01*
X408386Y172795D02*
Y177795D01*
X69882Y104724D02*
Y110236D01*
X71653D01*
X130905Y104724D02*
Y110236D01*
X129134D02*
X130905D01*
X73819Y125000D02*
X76772D01*
D15*
X216142Y31496D02*
X216929D01*
X214567Y33465D02*
X218504D01*
X213386Y35433D02*
X219685D01*
X216535D02*
Y39370D01*
M02*
