G04*
G04 #@! TF.GenerationSoftware,Altium Limited,Altium Designer,18.0.7 (293)*
G04*
G04 Layer_Color=16711935*
%FSLAX25Y25*%
%MOIN*%
G70*
G01*
G75*
%ADD15C,0.00787*%
%ADD44C,0.00197*%
D15*
X166339Y164370D02*
G03*
X162402Y160433I0J-3937D01*
G01*
Y90551D02*
G03*
X166339Y86614I3937J0D01*
G01*
X179949Y83830D02*
G03*
X173228Y86614I-6721J-6721D01*
G01*
X189000Y74779D02*
G03*
X196071Y71850I7071J7071D01*
G01*
X240079D02*
G03*
X248614Y75386I0J12071D01*
G01*
X264843Y86614D02*
G03*
X256307Y83079I0J-12071D01*
G01*
X268895Y86614D02*
G03*
X272638Y90357I0J3743D01*
G01*
Y160433D02*
G03*
X268701Y164370I-3937J0D01*
G01*
X162402Y90551D02*
Y160433D01*
X166339Y86614D02*
X173228D01*
X179949Y83830D02*
X187992Y75787D01*
X189000Y74779D01*
X196071Y71850D02*
X239173D01*
X240079D01*
X248614Y75386D02*
X254921Y81693D01*
X256307Y83079D01*
X264843Y86614D02*
X268895D01*
X272638Y90357D02*
Y160433D01*
X166339Y164370D02*
X268701D01*
D44*
X4338Y59457D02*
G03*
X7874Y67992I-8535J8535D01*
G01*
X2784Y57902D02*
G03*
X0Y51181I6721J-6721D01*
G01*
X7874Y81614D02*
G03*
X4338Y90150I-12071J0D01*
G01*
X0Y98425D02*
G03*
X2784Y91704I9505J0D01*
G01*
X433071Y216535D02*
G03*
X421260Y228346I-11811J0D01*
G01*
Y0D02*
G03*
X433071Y11811I0J11811D01*
G01*
X402052Y3459D02*
G03*
X410404Y0I8352J8352D01*
G01*
X397160Y8352D02*
G03*
X388808Y11811I-8352J-8352D01*
G01*
X44262D02*
G03*
X35911Y8352I0J-11811D01*
G01*
X22667Y0D02*
G03*
X31018Y3459I0J11811D01*
G01*
X0Y11811D02*
G03*
X11811Y0I11811J0D01*
G01*
Y228346D02*
G03*
X0Y216535I0J-11811D01*
G01*
X26785Y226132D02*
G03*
X22175Y228346I-4610J-3691D01*
G01*
X26785Y226132D02*
G03*
X91325Y226132I32270J25837D01*
G01*
X95935Y228346D02*
G03*
X91325Y226132I0J-5906D01*
G01*
X105525D02*
G03*
X100915Y228346I-4610J-3691D01*
G01*
X105525Y226132D02*
G03*
X170065Y226132I32270J25837D01*
G01*
X174675Y228346D02*
G03*
X170065Y226132I0J-5906D01*
G01*
X184265D02*
G03*
X179656Y228346I-4610J-3691D01*
G01*
X184265Y226132D02*
G03*
X248805Y226132I32270J25837D01*
G01*
X253415Y228346D02*
G03*
X248805Y226132I0J-5906D01*
G01*
X263006D02*
G03*
X258396Y228346I-4610J-3691D01*
G01*
X263006Y226132D02*
G03*
X327545Y226132I32270J25837D01*
G01*
X332155Y228346D02*
G03*
X327545Y226132I0J-5906D01*
G01*
X341746D02*
G03*
X337136Y228346I-4610J-3691D01*
G01*
X341746Y226132D02*
G03*
X406286Y226132I32270J25837D01*
G01*
X410896Y228346D02*
G03*
X406286Y226132I0J-5906D01*
G01*
X7874Y70866D02*
Y78740D01*
Y67992D02*
Y70866D01*
X3937Y59055D02*
X4338Y59457D01*
X2784Y57902D02*
X3937Y59055D01*
X7874Y78740D02*
Y81614D01*
X3937Y90551D02*
X4338Y90150D01*
X2784Y91704D02*
X3937Y90551D01*
X0Y51181D02*
X0Y11811D01*
X410896Y228346D02*
X421260D01*
X433071Y11811D02*
Y216535D01*
X410404Y0D02*
X421260D01*
X397160Y8352D02*
X402052Y3459D01*
X44262Y11811D02*
X388808D01*
X31018Y3459D02*
X35911Y8352D01*
X11811Y0D02*
X22667D01*
X0Y98425D02*
X0Y216535D01*
X11811Y228346D02*
X22175D01*
X95935D02*
X100915D01*
X174675D02*
X179656D01*
X253415D02*
X258396D01*
X332155D02*
X337136D01*
M02*
