G04*
G04 #@! TF.GenerationSoftware,Altium Limited,Altium Designer,18.0.7 (293)*
G04*
G04 Layer_Color=255*
%FSLAX25Y25*%
%MOIN*%
G70*
G01*
G75*
%ADD34C,0.06299*%
%ADD35C,0.11024*%
%ADD36C,0.15748*%
%ADD37C,0.07874*%
%ADD38C,0.14173*%
%ADD40C,0.21654*%
%ADD41C,0.05906*%
G04:AMPARAMS|DCode=43|XSize=47.24mil|YSize=118.11mil|CornerRadius=11.81mil|HoleSize=0mil|Usage=FLASHONLY|Rotation=0.000|XOffset=0mil|YOffset=0mil|HoleType=Round|Shape=RoundedRectangle|*
%AMROUNDEDRECTD43*
21,1,0.04724,0.09449,0,0,0.0*
21,1,0.02362,0.11811,0,0,0.0*
1,1,0.02362,0.01181,-0.04724*
1,1,0.02362,-0.01181,-0.04724*
1,1,0.02362,-0.01181,0.04724*
1,1,0.02362,0.01181,0.04724*
%
%ADD43ROUNDEDRECTD43*%
D34*
X216535Y54882D02*
D03*
Y44882D02*
D03*
X397795Y87677D02*
D03*
Y77677D02*
D03*
X387795D02*
D03*
Y87677D02*
D03*
X377795D02*
D03*
Y77677D02*
D03*
D35*
X422776Y36417D02*
D03*
X392776D02*
D03*
X230768D02*
D03*
X260768D02*
D03*
X202303D02*
D03*
X172303D02*
D03*
X10295D02*
D03*
X40295D02*
D03*
D36*
X344488Y198819D02*
D03*
X403543D02*
D03*
X265748D02*
D03*
X324803D02*
D03*
X187008D02*
D03*
X246063D02*
D03*
X108268D02*
D03*
X167323D02*
D03*
X29528D02*
D03*
X88583D02*
D03*
D37*
X232520Y175984D02*
D03*
X222520D02*
D03*
X202520D02*
D03*
X212520D02*
D03*
D38*
X171260Y172835D02*
D03*
X263779D02*
D03*
Y79134D02*
D03*
X171260D02*
D03*
D40*
X421260Y82677D02*
D03*
Y216535D02*
D03*
X11811D02*
D03*
D41*
X9685Y102795D02*
D03*
Y122795D02*
D03*
Y142795D02*
D03*
Y162795D02*
D03*
X29685Y102795D02*
D03*
X9685Y112795D02*
D03*
X29685Y122795D02*
D03*
X9685Y132795D02*
D03*
X29685Y142795D02*
D03*
X9685Y152795D02*
D03*
X29685Y162795D02*
D03*
X9685Y172795D02*
D03*
X403386Y102795D02*
D03*
Y122795D02*
D03*
Y142795D02*
D03*
Y162795D02*
D03*
X423386Y102795D02*
D03*
X403386Y112795D02*
D03*
X423386Y122795D02*
D03*
X403386Y132795D02*
D03*
X423386Y142795D02*
D03*
X403386Y152795D02*
D03*
X423386Y162795D02*
D03*
X403386Y172795D02*
D03*
D43*
X75394Y118110D02*
D03*
X85394D02*
D03*
X95394D02*
D03*
X105394D02*
D03*
X115394D02*
D03*
X125394D02*
D03*
M02*
