G04*
G04 #@! TF.GenerationSoftware,Altium Limited,Altium Designer,18.0.7 (293)*
G04*
G04 Layer_Color=8388736*
%FSLAX25Y25*%
%MOIN*%
G70*
G01*
G75*
G04:AMPARAMS|DCode=20|XSize=23.62mil|YSize=45.28mil|CornerRadius=5.91mil|HoleSize=0mil|Usage=FLASHONLY|Rotation=180.000|XOffset=0mil|YOffset=0mil|HoleType=Round|Shape=RoundedRectangle|*
%AMROUNDEDRECTD20*
21,1,0.02362,0.03347,0,0,180.0*
21,1,0.01181,0.04528,0,0,180.0*
1,1,0.01181,-0.00591,0.01673*
1,1,0.01181,0.00591,0.01673*
1,1,0.01181,0.00591,-0.01673*
1,1,0.01181,-0.00591,-0.01673*
%
%ADD20ROUNDEDRECTD20*%
G04:AMPARAMS|DCode=21|XSize=118.11mil|YSize=78.74mil|CornerRadius=19.68mil|HoleSize=0mil|Usage=FLASHONLY|Rotation=270.000|XOffset=0mil|YOffset=0mil|HoleType=Round|Shape=RoundedRectangle|*
%AMROUNDEDRECTD21*
21,1,0.11811,0.03937,0,0,270.0*
21,1,0.07874,0.07874,0,0,270.0*
1,1,0.03937,-0.01968,-0.03937*
1,1,0.03937,-0.01968,0.03937*
1,1,0.03937,0.01968,0.03937*
1,1,0.03937,0.01968,-0.03937*
%
%ADD21ROUNDEDRECTD21*%
G04:AMPARAMS|DCode=22|XSize=31.5mil|YSize=31.5mil|CornerRadius=7.87mil|HoleSize=0mil|Usage=FLASHONLY|Rotation=270.000|XOffset=0mil|YOffset=0mil|HoleType=Round|Shape=RoundedRectangle|*
%AMROUNDEDRECTD22*
21,1,0.03150,0.01575,0,0,270.0*
21,1,0.01575,0.03150,0,0,270.0*
1,1,0.01575,-0.00787,-0.00787*
1,1,0.01575,-0.00787,0.00787*
1,1,0.01575,0.00787,0.00787*
1,1,0.01575,0.00787,-0.00787*
%
%ADD22ROUNDEDRECTD22*%
G04:AMPARAMS|DCode=25|XSize=17.72mil|YSize=35.43mil|CornerRadius=4.43mil|HoleSize=0mil|Usage=FLASHONLY|Rotation=0.000|XOffset=0mil|YOffset=0mil|HoleType=Round|Shape=RoundedRectangle|*
%AMROUNDEDRECTD25*
21,1,0.01772,0.02657,0,0,0.0*
21,1,0.00886,0.03543,0,0,0.0*
1,1,0.00886,0.00443,-0.01329*
1,1,0.00886,-0.00443,-0.01329*
1,1,0.00886,-0.00443,0.01329*
1,1,0.00886,0.00443,0.01329*
%
%ADD25ROUNDEDRECTD25*%
G04:AMPARAMS|DCode=26|XSize=31.5mil|YSize=31.5mil|CornerRadius=4.72mil|HoleSize=0mil|Usage=FLASHONLY|Rotation=0.000|XOffset=0mil|YOffset=0mil|HoleType=Round|Shape=RoundedRectangle|*
%AMROUNDEDRECTD26*
21,1,0.03150,0.02205,0,0,0.0*
21,1,0.02205,0.03150,0,0,0.0*
1,1,0.00945,0.01102,-0.01102*
1,1,0.00945,-0.01102,-0.01102*
1,1,0.00945,-0.01102,0.01102*
1,1,0.00945,0.01102,0.01102*
%
%ADD26ROUNDEDRECTD26*%
G04:AMPARAMS|DCode=27|XSize=17.72mil|YSize=35.43mil|CornerRadius=4.43mil|HoleSize=0mil|Usage=FLASHONLY|Rotation=270.000|XOffset=0mil|YOffset=0mil|HoleType=Round|Shape=RoundedRectangle|*
%AMROUNDEDRECTD27*
21,1,0.01772,0.02657,0,0,270.0*
21,1,0.00886,0.03543,0,0,270.0*
1,1,0.00886,-0.01329,-0.00443*
1,1,0.00886,-0.01329,0.00443*
1,1,0.00886,0.01329,0.00443*
1,1,0.00886,0.01329,-0.00443*
%
%ADD27ROUNDEDRECTD27*%
%ADD28O,0.05118X0.02284*%
%ADD29O,0.01968X0.04724*%
%ADD30O,0.04724X0.01968*%
G04:AMPARAMS|DCode=31|XSize=39.37mil|YSize=35.43mil|CornerRadius=8.86mil|HoleSize=0mil|Usage=FLASHONLY|Rotation=270.000|XOffset=0mil|YOffset=0mil|HoleType=Round|Shape=RoundedRectangle|*
%AMROUNDEDRECTD31*
21,1,0.03937,0.01772,0,0,270.0*
21,1,0.02165,0.03543,0,0,270.0*
1,1,0.01772,-0.00886,-0.01083*
1,1,0.01772,-0.00886,0.01083*
1,1,0.01772,0.00886,0.01083*
1,1,0.01772,0.00886,-0.01083*
%
%ADD31ROUNDEDRECTD31*%
G04:AMPARAMS|DCode=32|XSize=15.75mil|YSize=82.68mil|CornerRadius=0mil|HoleSize=0mil|Usage=FLASHONLY|Rotation=225.000|XOffset=0mil|YOffset=0mil|HoleType=Round|Shape=Rectangle|*
%AMROTATEDRECTD32*
4,1,4,-0.02366,0.03480,0.03480,-0.02366,0.02366,-0.03480,-0.03480,0.02366,-0.02366,0.03480,0.0*
%
%ADD32ROTATEDRECTD32*%

G04:AMPARAMS|DCode=33|XSize=27.56mil|YSize=59.06mil|CornerRadius=6.89mil|HoleSize=0mil|Usage=FLASHONLY|Rotation=270.000|XOffset=0mil|YOffset=0mil|HoleType=Round|Shape=RoundedRectangle|*
%AMROUNDEDRECTD33*
21,1,0.02756,0.04528,0,0,270.0*
21,1,0.01378,0.05906,0,0,270.0*
1,1,0.01378,-0.02264,-0.00689*
1,1,0.01378,-0.02264,0.00689*
1,1,0.01378,0.02264,0.00689*
1,1,0.01378,0.02264,-0.00689*
%
%ADD33ROUNDEDRECTD33*%
%ADD34C,0.06299*%
%ADD35C,0.11024*%
%ADD36C,0.15748*%
%ADD37C,0.07874*%
%ADD38C,0.14173*%
G36*
X77652Y41322D02*
X77881Y41289D01*
X78144Y41240D01*
X78422Y41158D01*
X78701Y41060D01*
X78980Y40912D01*
X78996D01*
X79013Y40896D01*
X79095Y40830D01*
X79226Y40748D01*
X79390Y40617D01*
X79571Y40453D01*
X79751Y40256D01*
X79931Y40010D01*
X80095Y39748D01*
X80112Y39715D01*
X80161Y39617D01*
X80226Y39469D01*
X80292Y39272D01*
X80358Y39026D01*
X80423Y38747D01*
X80472Y38452D01*
X80489Y38124D01*
X79160D01*
Y38141D01*
Y38173D01*
Y38223D01*
Y38288D01*
X79144Y38469D01*
X79095Y38682D01*
X79046Y38928D01*
X78964Y39190D01*
X78849Y39436D01*
X78685Y39649D01*
X78668Y39666D01*
X78603Y39731D01*
X78488Y39813D01*
X78341Y39928D01*
X78144Y40027D01*
X77914Y40109D01*
X77635Y40174D01*
X77324Y40191D01*
X77192D01*
X77045Y40174D01*
X76864Y40141D01*
X76651Y40076D01*
X76438Y39994D01*
X76241Y39879D01*
X76061Y39731D01*
X76044Y39715D01*
X75995Y39649D01*
X75913Y39551D01*
X75848Y39403D01*
X75766Y39223D01*
X75684Y39010D01*
X75634Y38747D01*
X75618Y38469D01*
Y38436D01*
Y38354D01*
X75651Y38239D01*
X75684Y38075D01*
X75733Y37895D01*
X75815Y37714D01*
X75930Y37517D01*
X76094Y37337D01*
X76110Y37321D01*
X76192Y37255D01*
X76307Y37173D01*
X76471Y37058D01*
X76668Y36943D01*
X76930Y36812D01*
X77242Y36665D01*
X77586Y36533D01*
X77602D01*
X77652Y36517D01*
X77734Y36484D01*
X77849Y36435D01*
X77980Y36386D01*
X78127Y36320D01*
X78455Y36173D01*
X78833Y35992D01*
X79193Y35779D01*
X79538Y35533D01*
X79702Y35385D01*
X79833Y35254D01*
Y35238D01*
X79866Y35221D01*
X79899Y35172D01*
X79931Y35123D01*
X80046Y34959D01*
X80177Y34729D01*
X80292Y34434D01*
X80407Y34106D01*
X80472Y33713D01*
X80505Y33270D01*
Y33253D01*
Y33221D01*
Y33139D01*
X80489Y33057D01*
X80472Y32942D01*
X80456Y32827D01*
X80407Y32532D01*
X80309Y32204D01*
X80161Y31859D01*
X80063Y31679D01*
X79948Y31515D01*
X79817Y31351D01*
X79669Y31203D01*
X79653D01*
X79636Y31171D01*
X79587Y31138D01*
X79521Y31089D01*
X79439Y31023D01*
X79325Y30957D01*
X79210Y30892D01*
X79079Y30826D01*
X78914Y30744D01*
X78750Y30679D01*
X78357Y30547D01*
X77898Y30465D01*
X77652Y30449D01*
X77389Y30433D01*
X77225D01*
X77045Y30449D01*
X76832Y30482D01*
X76553Y30531D01*
X76274Y30597D01*
X75963Y30695D01*
X75667Y30826D01*
X75651D01*
X75634Y30843D01*
X75536Y30908D01*
X75405Y30990D01*
X75225Y31121D01*
X75028Y31285D01*
X74831Y31482D01*
X74618Y31695D01*
X74437Y31958D01*
Y31974D01*
X74421Y31991D01*
X74372Y32089D01*
X74290Y32237D01*
X74224Y32450D01*
X74142Y32696D01*
X74060Y32975D01*
X74011Y33303D01*
X73994Y33647D01*
X75339D01*
Y33631D01*
Y33598D01*
Y33549D01*
X75356Y33483D01*
X75372Y33303D01*
X75405Y33089D01*
X75471Y32843D01*
X75569Y32581D01*
X75700Y32351D01*
X75880Y32122D01*
X75913Y32105D01*
X75979Y32040D01*
X76110Y31958D01*
X76274Y31859D01*
X76487Y31745D01*
X76750Y31663D01*
X77045Y31597D01*
X77389Y31581D01*
X77537D01*
X77684Y31597D01*
X77881Y31630D01*
X78095Y31695D01*
X78308Y31761D01*
X78521Y31876D01*
X78701Y32023D01*
X78718Y32040D01*
X78767Y32105D01*
X78849Y32204D01*
X78931Y32351D01*
X79013Y32532D01*
X79095Y32729D01*
X79144Y32975D01*
X79160Y33253D01*
Y33270D01*
Y33286D01*
Y33385D01*
X79144Y33532D01*
X79111Y33713D01*
X79046Y33909D01*
X78980Y34106D01*
X78865Y34303D01*
X78718Y34467D01*
X78701Y34483D01*
X78636Y34533D01*
X78521Y34631D01*
X78357Y34729D01*
X78144Y34861D01*
X77881Y34992D01*
X77553Y35139D01*
X77356Y35221D01*
X77160Y35287D01*
X77143D01*
X77110Y35303D01*
X77061Y35336D01*
X76979Y35353D01*
X76881Y35402D01*
X76783Y35435D01*
X76537Y35549D01*
X76258Y35681D01*
X75963Y35828D01*
X75700Y35976D01*
X75454Y36140D01*
X75421Y36156D01*
X75356Y36222D01*
X75257Y36304D01*
X75126Y36435D01*
X74979Y36583D01*
X74831Y36747D01*
X74700Y36943D01*
X74568Y37140D01*
X74552Y37173D01*
X74519Y37239D01*
X74470Y37353D01*
X74421Y37517D01*
X74372Y37714D01*
X74322Y37927D01*
X74290Y38173D01*
X74273Y38436D01*
Y38452D01*
Y38485D01*
Y38551D01*
X74290Y38649D01*
X74306Y38747D01*
X74322Y38879D01*
X74372Y39174D01*
X74470Y39502D01*
X74634Y39846D01*
X74716Y40027D01*
X74831Y40191D01*
X74962Y40355D01*
X75110Y40519D01*
X75126Y40535D01*
X75143Y40551D01*
X75192Y40601D01*
X75257Y40650D01*
X75356Y40715D01*
X75454Y40781D01*
X75569Y40847D01*
X75700Y40929D01*
X76028Y41076D01*
X76405Y41207D01*
X76832Y41306D01*
X77078Y41322D01*
X77324Y41339D01*
X77488D01*
X77652Y41322D01*
D02*
G37*
G36*
X63466Y30580D02*
X62269D01*
X60497Y38305D01*
X60382Y38928D01*
X60268Y38305D01*
X58431Y30580D01*
X57217D01*
X55118Y41191D01*
X56446D01*
X57775Y33909D01*
X57906Y32729D01*
X58119Y33778D01*
X59825Y41191D01*
X60940D01*
X62580Y33778D01*
X62793Y32696D01*
X62941Y33926D01*
X64236Y41191D01*
X65581D01*
X63466Y30580D01*
D02*
G37*
G36*
X103744Y30580D02*
X102399D01*
Y34697D01*
X102531Y38846D01*
X99759Y30580D01*
X98726D01*
X95970Y38813D01*
X96102Y34697D01*
Y30580D01*
X94757D01*
Y41191D01*
X96479D01*
X99251Y32532D01*
X102022Y41191D01*
X103744D01*
Y30580D01*
D02*
G37*
G36*
X93314D02*
X91953D01*
X91116Y33352D01*
X87524D01*
X86704Y30580D01*
X85327D01*
X88754Y41191D01*
X89903D01*
X93314Y30580D01*
D02*
G37*
G36*
X72748Y40043D02*
X68451D01*
Y36632D01*
X72190D01*
Y35484D01*
X68451D01*
Y31728D01*
X72814D01*
Y30580D01*
X67106D01*
Y41191D01*
X72748D01*
Y40043D01*
D02*
G37*
G36*
X83129Y32089D02*
X83211Y32073D01*
X83310Y32040D01*
X83425Y32007D01*
X83523Y31941D01*
X83605Y31859D01*
X83621Y31843D01*
X83638Y31827D01*
X83671Y31761D01*
X83720Y31695D01*
X83802Y31515D01*
X83818Y31417D01*
X83834Y31285D01*
Y31269D01*
Y31236D01*
X83818Y31171D01*
X83802Y31089D01*
X83736Y30892D01*
X83687Y30810D01*
X83605Y30711D01*
X83588Y30695D01*
X83572Y30679D01*
X83523Y30646D01*
X83441Y30613D01*
X83359Y30564D01*
X83261Y30531D01*
X83129Y30515D01*
X82982Y30498D01*
X82916D01*
X82834Y30515D01*
X82752Y30531D01*
X82539Y30597D01*
X82441Y30646D01*
X82358Y30711D01*
X82342Y30728D01*
X82326Y30761D01*
X82293Y30810D01*
X82260Y30875D01*
X82178Y31056D01*
X82162Y31154D01*
X82145Y31285D01*
Y31302D01*
Y31351D01*
X82162Y31400D01*
X82178Y31482D01*
X82244Y31679D01*
X82293Y31777D01*
X82358Y31859D01*
X82375Y31876D01*
X82391Y31892D01*
X82441Y31941D01*
X82522Y31991D01*
X82604Y32023D01*
X82719Y32073D01*
X82834Y32089D01*
X82982Y32105D01*
X83047D01*
X83129Y32089D01*
D02*
G37*
%LPC*%
G36*
X89328Y39321D02*
X87885Y34500D01*
X90772D01*
X89328Y39321D01*
D02*
G37*
%LPD*%
D20*
X370276Y166831D02*
D03*
X377756D02*
D03*
X374016Y175689D02*
D03*
D21*
X366142Y196850D02*
D03*
X381890D02*
D03*
X287402D02*
D03*
X303150D02*
D03*
X208661D02*
D03*
X224410D02*
D03*
X129921D02*
D03*
X145669D02*
D03*
X51181D02*
D03*
X66929D02*
D03*
D22*
X356299Y107283D02*
D03*
X362205D02*
D03*
X356299Y113189D02*
D03*
X362205D02*
D03*
X285433Y71850D02*
D03*
X279528D02*
D03*
X309055Y52165D02*
D03*
X314961D02*
D03*
X309055Y112205D02*
D03*
X314961D02*
D03*
X309055Y103346D02*
D03*
X314961D02*
D03*
D25*
X349606Y70276D02*
D03*
X352756D02*
D03*
X355906D02*
D03*
X359055D02*
D03*
Y63583D02*
D03*
X355906D02*
D03*
X352756D02*
D03*
X349606D02*
D03*
X307283Y162992D02*
D03*
X310433D02*
D03*
X313583D02*
D03*
X316732D02*
D03*
Y169685D02*
D03*
X313583D02*
D03*
X310433D02*
D03*
X307283D02*
D03*
D26*
X360236Y45276D02*
D03*
Y51181D02*
D03*
X353346Y45276D02*
D03*
Y51181D02*
D03*
X346457Y45276D02*
D03*
Y51181D02*
D03*
D27*
X388189Y152362D02*
D03*
Y149212D02*
D03*
Y146062D02*
D03*
Y142913D02*
D03*
X381496D02*
D03*
Y146062D02*
D03*
Y149212D02*
D03*
Y152362D02*
D03*
X388189Y132676D02*
D03*
Y129527D02*
D03*
Y126377D02*
D03*
Y123228D02*
D03*
X381496D02*
D03*
Y126377D02*
D03*
Y129527D02*
D03*
Y132676D02*
D03*
X285827Y77953D02*
D03*
Y81102D02*
D03*
Y84252D02*
D03*
Y87402D02*
D03*
X279134D02*
D03*
Y84252D02*
D03*
Y81102D02*
D03*
Y77953D02*
D03*
D28*
X370276Y154311D02*
D03*
Y149311D02*
D03*
Y144311D02*
D03*
Y139311D02*
D03*
Y119311D02*
D03*
Y124311D02*
D03*
Y129311D02*
D03*
Y134311D02*
D03*
X348228D02*
D03*
Y129311D02*
D03*
Y124311D02*
D03*
Y119311D02*
D03*
Y139311D02*
D03*
Y144311D02*
D03*
Y149311D02*
D03*
Y154311D02*
D03*
X300984Y154311D02*
D03*
Y149311D02*
D03*
Y144311D02*
D03*
Y139311D02*
D03*
Y119311D02*
D03*
Y124311D02*
D03*
Y129311D02*
D03*
Y134311D02*
D03*
X323031D02*
D03*
Y129311D02*
D03*
Y124311D02*
D03*
Y119311D02*
D03*
Y139311D02*
D03*
Y144311D02*
D03*
Y149311D02*
D03*
Y154311D02*
D03*
D29*
X300984Y61171D02*
D03*
X304134D02*
D03*
X307283D02*
D03*
X310433D02*
D03*
X313583D02*
D03*
X316732D02*
D03*
X319882D02*
D03*
X323031D02*
D03*
Y94636D02*
D03*
X319882D02*
D03*
X316732D02*
D03*
X313583D02*
D03*
X310433D02*
D03*
X307283D02*
D03*
X304134D02*
D03*
X300984D02*
D03*
D30*
X328740Y66880D02*
D03*
Y70029D02*
D03*
Y73179D02*
D03*
Y76329D02*
D03*
Y79478D02*
D03*
Y82628D02*
D03*
Y85777D02*
D03*
Y88927D02*
D03*
X295276D02*
D03*
Y85777D02*
D03*
Y82628D02*
D03*
Y79478D02*
D03*
Y76329D02*
D03*
Y73179D02*
D03*
Y70029D02*
D03*
Y66880D02*
D03*
D31*
X377165Y183071D02*
D03*
X370866D02*
D03*
D32*
X327368Y44888D02*
D03*
X330709Y48228D02*
D03*
X334049Y51569D02*
D03*
D33*
X353346Y38386D02*
D03*
Y34449D02*
D03*
D34*
X216535Y54882D02*
D03*
Y44882D02*
D03*
X397795Y87677D02*
D03*
Y77677D02*
D03*
X387795D02*
D03*
Y87677D02*
D03*
X377795D02*
D03*
Y77677D02*
D03*
D35*
X422776Y36417D02*
D03*
X392776D02*
D03*
X230768D02*
D03*
X260768D02*
D03*
X202303D02*
D03*
X172303D02*
D03*
X10295D02*
D03*
X40295D02*
D03*
D36*
X344488Y198819D02*
D03*
X403543D02*
D03*
X265748D02*
D03*
X324803D02*
D03*
X187008D02*
D03*
X246063D02*
D03*
X108268D02*
D03*
X167323D02*
D03*
X29528D02*
D03*
X88583D02*
D03*
D37*
X232520Y175984D02*
D03*
X222520D02*
D03*
X202520D02*
D03*
X212520D02*
D03*
D38*
X171260Y172835D02*
D03*
X263779D02*
D03*
Y79134D02*
D03*
X171260D02*
D03*
M02*
