G04*
G04 #@! TF.GenerationSoftware,Altium Limited,Altium Designer,18.0.7 (293)*
G04*
G04 Layer_Physical_Order=2*
G04 Layer_Color=16711680*
%FSLAX25Y25*%
%MOIN*%
G70*
G01*
G75*
%ADD11C,0.01575*%
%ADD12C,0.00591*%
%ADD15C,0.00787*%
%ADD34C,0.06299*%
%ADD35C,0.11024*%
%ADD36C,0.15748*%
%ADD37C,0.07874*%
%ADD38C,0.14173*%
%ADD40C,0.21654*%
%ADD41C,0.05906*%
%ADD42C,0.02362*%
G04:AMPARAMS|DCode=43|XSize=47.24mil|YSize=118.11mil|CornerRadius=11.81mil|HoleSize=0mil|Usage=FLASHONLY|Rotation=0.000|XOffset=0mil|YOffset=0mil|HoleType=Round|Shape=RoundedRectangle|*
%AMROUNDEDRECTD43*
21,1,0.04724,0.09449,0,0,0.0*
21,1,0.02362,0.11811,0,0,0.0*
1,1,0.02362,0.01181,-0.04724*
1,1,0.02362,-0.01181,-0.04724*
1,1,0.02362,-0.01181,0.04724*
1,1,0.02362,0.01181,0.04724*
%
%ADD43ROUNDEDRECTD43*%
G36*
X421968Y227343D02*
X423373Y227158D01*
X424741Y226791D01*
X426050Y226249D01*
X427277Y225541D01*
X428401Y224678D01*
X429403Y223677D01*
X430265Y222553D01*
X430974Y221326D01*
X431516Y220017D01*
X431882Y218648D01*
X432067Y217244D01*
Y216535D01*
Y88603D01*
X431567Y88462D01*
X430845Y89641D01*
X429637Y91055D01*
X428224Y92262D01*
X426639Y93233D01*
X424921Y93945D01*
X423113Y94379D01*
X421260Y94525D01*
X419407Y94379D01*
X417599Y93945D01*
X415881Y93233D01*
X414296Y92262D01*
X412882Y91055D01*
X411675Y89641D01*
X410704Y88056D01*
X409992Y86338D01*
X409558Y84531D01*
X409412Y82677D01*
X409558Y80824D01*
X409992Y79016D01*
X410704Y77298D01*
X411675Y75713D01*
X412882Y74300D01*
X414296Y73092D01*
X415881Y72121D01*
X417599Y71409D01*
X419407Y70976D01*
X421260Y70830D01*
X423113Y70976D01*
X424921Y71409D01*
X426639Y72121D01*
X428224Y73092D01*
X429637Y74300D01*
X430845Y75713D01*
X431567Y76893D01*
X432067Y76752D01*
Y11811D01*
Y11103D01*
X431882Y9698D01*
X431516Y8330D01*
X430974Y7021D01*
X430265Y5794D01*
X429403Y4670D01*
X428401Y3668D01*
X427277Y2806D01*
X426050Y2097D01*
X424741Y1555D01*
X423373Y1188D01*
X421968Y1003D01*
X409873D01*
X408816Y1108D01*
X407775Y1315D01*
X406759Y1623D01*
X405778Y2029D01*
X404841Y2530D01*
X403958Y3120D01*
X403137Y3793D01*
X402762Y4169D01*
X397870Y9061D01*
X397859Y9068D01*
X397852Y9078D01*
X397432Y9478D01*
X397401Y9498D01*
X397377Y9527D01*
X396481Y10262D01*
X396437Y10286D01*
X396402Y10321D01*
X395438Y10965D01*
X395392Y10984D01*
X395354Y11016D01*
X394331Y11562D01*
X394284Y11576D01*
X394242Y11604D01*
X393172Y12048D01*
X393123Y12057D01*
X393079Y12081D01*
X391970Y12417D01*
X391920Y12422D01*
X391874Y12441D01*
X390737Y12667D01*
X390687D01*
X390640Y12682D01*
X389486Y12795D01*
X389449Y12792D01*
X389413Y12800D01*
X388833Y12814D01*
X388821Y12812D01*
X388808Y12814D01*
X44262D01*
X44250Y12812D01*
X44238Y12814D01*
X43658Y12800D01*
X43622Y12792D01*
X43584Y12795D01*
X42431Y12682D01*
X42383Y12667D01*
X42334D01*
X41197Y12441D01*
X41151Y12422D01*
X41101Y12417D01*
X39992Y12081D01*
X39948Y12057D01*
X39899Y12048D01*
X38829Y11604D01*
X38787Y11576D01*
X38739Y11562D01*
X37717Y11016D01*
X37679Y10984D01*
X37633Y10965D01*
X36669Y10321D01*
X36634Y10286D01*
X36590Y10262D01*
X35694Y9527D01*
X35670Y9498D01*
X35639Y9478D01*
X35219Y9078D01*
X35212Y9068D01*
X35201Y9061D01*
X30309Y4169D01*
X30309Y4169D01*
X29934Y3793D01*
X29113Y3120D01*
X28230Y2530D01*
X27293Y2029D01*
X26312Y1623D01*
X25296Y1315D01*
X24254Y1108D01*
X23198Y1003D01*
X11103D01*
X9698Y1188D01*
X8330Y1555D01*
X7021Y2097D01*
X5794Y2806D01*
X4670Y3668D01*
X3668Y4670D01*
X2806Y5794D01*
X2097Y7021D01*
X1555Y8330D01*
X1188Y9698D01*
X1003Y11103D01*
Y11811D01*
X1003Y51181D01*
Y52018D01*
X1330Y53661D01*
X1971Y55208D01*
X2901Y56600D01*
X4647Y58346D01*
X5048Y58747D01*
X5055Y58757D01*
X5065Y58765D01*
X5474Y59194D01*
X5494Y59225D01*
X5523Y59249D01*
X6274Y60165D01*
X6298Y60209D01*
X6333Y60244D01*
X6991Y61229D01*
X7010Y61275D01*
X7042Y61313D01*
X7600Y62358D01*
X7615Y62406D01*
X7642Y62447D01*
X8095Y63542D01*
X8105Y63590D01*
X8129Y63634D01*
X8472Y64768D01*
X8477Y64817D01*
X8496Y64863D01*
X8728Y66025D01*
Y66075D01*
X8742Y66123D01*
X8858Y67301D01*
X8854Y67339D01*
X8863Y67375D01*
X8877Y67967D01*
X8875Y67980D01*
X8878Y67992D01*
Y81614D01*
X8875Y81626D01*
X8877Y81639D01*
X8863Y82231D01*
X8854Y82268D01*
X8858Y82305D01*
X8742Y83484D01*
X8728Y83531D01*
Y83581D01*
X8496Y84743D01*
X8477Y84789D01*
X8472Y84838D01*
X8129Y85972D01*
X8105Y86016D01*
X8095Y86065D01*
X7642Y87159D01*
X7615Y87201D01*
X7600Y87248D01*
X7042Y88293D01*
X7010Y88331D01*
X6991Y88377D01*
X6333Y89362D01*
X6298Y89398D01*
X6274Y89442D01*
X5523Y90357D01*
X5494Y90381D01*
X5474Y90412D01*
X5065Y90842D01*
X5055Y90849D01*
X5048Y90859D01*
X3493Y92414D01*
X2901Y93006D01*
X1971Y94398D01*
X1330Y95946D01*
X1003Y97588D01*
Y98425D01*
X1003Y216535D01*
Y217244D01*
X1188Y218648D01*
X1555Y220017D01*
X2097Y221326D01*
X2806Y222553D01*
X3668Y223677D01*
X4670Y224678D01*
X5794Y225541D01*
X7021Y226249D01*
X8330Y226791D01*
X9698Y227158D01*
X11103Y227343D01*
X11811Y227343D01*
X22175D01*
X22726Y227343D01*
X23801Y227098D01*
X24795Y226621D01*
X25657Y225935D01*
X26002Y225505D01*
X26011Y225497D01*
X26016Y225487D01*
X27205Y224069D01*
X27232Y224047D01*
X27250Y224018D01*
X29813Y221348D01*
X29850Y221322D01*
X29878Y221286D01*
X32669Y218855D01*
X32708Y218832D01*
X32739Y218799D01*
X35737Y216627D01*
X35778Y216608D01*
X35811Y216578D01*
X38991Y214683D01*
X39034Y214668D01*
X39070Y214641D01*
X42407Y213038D01*
X42451Y213027D01*
X42489Y213003D01*
X45956Y211705D01*
X46000Y211698D01*
X46041Y211677D01*
X49610Y210695D01*
X49655Y210691D01*
X49697Y210675D01*
X53339Y210015D01*
X53385Y210016D01*
X53428Y210003D01*
X57115Y209672D01*
X57160Y209677D01*
X57205Y209668D01*
X60906D01*
X60950Y209677D01*
X60996Y209672D01*
X64682Y210003D01*
X64726Y210016D01*
X64771Y210015D01*
X68413Y210675D01*
X68455Y210691D01*
X68501Y210695D01*
X72069Y211677D01*
X72110Y211698D01*
X72155Y211705D01*
X75621Y213003D01*
X75660Y213027D01*
X75704Y213038D01*
X79040Y214641D01*
X79076Y214668D01*
X79119Y214683D01*
X82299Y216578D01*
X82332Y216608D01*
X82374Y216627D01*
X85371Y218799D01*
X85402Y218832D01*
X85441Y218855D01*
X88233Y221286D01*
X88260Y221322D01*
X88298Y221348D01*
X90860Y224018D01*
X90878Y224047D01*
X90905Y224069D01*
X92094Y225487D01*
X92100Y225497D01*
X92108Y225505D01*
X92453Y225935D01*
X93316Y226621D01*
X94309Y227098D01*
X95384Y227343D01*
X95935Y227343D01*
X100915D01*
X101467Y227343D01*
X102541Y227098D01*
X103535Y226621D01*
X104398Y225935D01*
X104742Y225505D01*
X104751Y225497D01*
X104756Y225487D01*
X105945Y224069D01*
X105972Y224047D01*
X105990Y224018D01*
X108553Y221348D01*
X108590Y221322D01*
X108618Y221286D01*
X111409Y218855D01*
X111448Y218832D01*
X111479Y218799D01*
X114477Y216627D01*
X114518Y216608D01*
X114552Y216578D01*
X117731Y214683D01*
X117774Y214668D01*
X117810Y214641D01*
X121147Y213038D01*
X121191Y213027D01*
X121229Y213003D01*
X124696Y211705D01*
X124741Y211698D01*
X124781Y211677D01*
X128350Y210695D01*
X128395Y210691D01*
X128437Y210675D01*
X132079Y210015D01*
X132125Y210016D01*
X132168Y210003D01*
X135855Y209672D01*
X135900Y209677D01*
X135945Y209668D01*
X139646D01*
X139690Y209677D01*
X139736Y209672D01*
X143422Y210003D01*
X143466Y210016D01*
X143511Y210015D01*
X147153Y210675D01*
X147196Y210691D01*
X147241Y210695D01*
X150809Y211677D01*
X150850Y211698D01*
X150895Y211705D01*
X154361Y213003D01*
X154400Y213027D01*
X154444Y213038D01*
X157780Y214641D01*
X157817Y214668D01*
X157859Y214683D01*
X161039Y216578D01*
X161073Y216608D01*
X161114Y216627D01*
X164111Y218799D01*
X164142Y218832D01*
X164182Y218855D01*
X166973Y221286D01*
X167000Y221322D01*
X167038Y221348D01*
X169600Y224018D01*
X169619Y224047D01*
X169645Y224069D01*
X170834Y225487D01*
X170840Y225497D01*
X170849Y225505D01*
X171193Y225935D01*
X172056Y226621D01*
X173049Y227098D01*
X174124Y227343D01*
X174675Y227343D01*
X179656D01*
X180207Y227343D01*
X181281Y227098D01*
X182275Y226621D01*
X183138Y225935D01*
X183482Y225505D01*
X183491Y225497D01*
X183496Y225487D01*
X184685Y224069D01*
X184712Y224047D01*
X184730Y224018D01*
X187293Y221348D01*
X187330Y221322D01*
X187358Y221286D01*
X190149Y218855D01*
X190189Y218832D01*
X190219Y218799D01*
X193217Y216627D01*
X193258Y216608D01*
X193292Y216578D01*
X196471Y214683D01*
X196514Y214668D01*
X196551Y214641D01*
X199887Y213038D01*
X199931Y213027D01*
X199969Y213003D01*
X203436Y211705D01*
X203481Y211698D01*
X203521Y211677D01*
X207090Y210695D01*
X207135Y210691D01*
X207177Y210675D01*
X210820Y210015D01*
X210865Y210016D01*
X210909Y210003D01*
X214595Y209672D01*
X214640Y209677D01*
X214685Y209668D01*
X218386D01*
X218431Y209677D01*
X218476Y209672D01*
X222162Y210003D01*
X222206Y210016D01*
X222251Y210015D01*
X225893Y210675D01*
X225936Y210691D01*
X225981Y210695D01*
X229550Y211677D01*
X229590Y211698D01*
X229635Y211705D01*
X233101Y213003D01*
X233140Y213027D01*
X233184Y213038D01*
X236520Y214641D01*
X236557Y214668D01*
X236599Y214683D01*
X239779Y216578D01*
X239813Y216608D01*
X239854Y216627D01*
X242851Y218799D01*
X242882Y218832D01*
X242922Y218855D01*
X245713Y221286D01*
X245741Y221322D01*
X245778Y221348D01*
X248340Y224018D01*
X248359Y224047D01*
X248385Y224069D01*
X249574Y225487D01*
X249580Y225497D01*
X249589Y225505D01*
X249933Y225935D01*
X250796Y226621D01*
X251789Y227098D01*
X252864Y227343D01*
X253415Y227343D01*
X258396D01*
X258947Y227343D01*
X260021Y227098D01*
X261015Y226621D01*
X261878Y225935D01*
X262222Y225505D01*
X262231Y225497D01*
X262237Y225487D01*
X263426Y224069D01*
X263452Y224047D01*
X263471Y224018D01*
X266033Y221348D01*
X266070Y221322D01*
X266098Y221286D01*
X268889Y218855D01*
X268929Y218832D01*
X268960Y218799D01*
X271957Y216627D01*
X271998Y216608D01*
X272032Y216578D01*
X275212Y214683D01*
X275254Y214668D01*
X275291Y214641D01*
X278627Y213038D01*
X278671Y213027D01*
X278710Y213003D01*
X282176Y211705D01*
X282221Y211698D01*
X282261Y211677D01*
X285830Y210695D01*
X285875Y210691D01*
X285918Y210675D01*
X289560Y210015D01*
X289605Y210016D01*
X289649Y210003D01*
X293335Y209672D01*
X293380Y209677D01*
X293425Y209668D01*
X297126D01*
X297171Y209677D01*
X297216Y209672D01*
X300903Y210003D01*
X300946Y210016D01*
X300992Y210015D01*
X304634Y210675D01*
X304676Y210691D01*
X304721Y210695D01*
X308290Y211677D01*
X308330Y211698D01*
X308375Y211705D01*
X311842Y213003D01*
X311880Y213027D01*
X311924Y213038D01*
X315261Y214641D01*
X315297Y214668D01*
X315340Y214683D01*
X318519Y216578D01*
X318553Y216608D01*
X318594Y216627D01*
X321592Y218799D01*
X321622Y218832D01*
X321662Y218855D01*
X324453Y221286D01*
X324481Y221322D01*
X324518Y221348D01*
X327081Y224018D01*
X327099Y224047D01*
X327126Y224069D01*
X328315Y225487D01*
X328320Y225497D01*
X328329Y225505D01*
X328673Y225935D01*
X329536Y226621D01*
X330530Y227098D01*
X331604Y227343D01*
X332155Y227343D01*
X337136D01*
X337687Y227343D01*
X338762Y227098D01*
X339755Y226621D01*
X340618Y225935D01*
X340963Y225505D01*
X340971Y225497D01*
X340977Y225487D01*
X342166Y224069D01*
X342192Y224047D01*
X342211Y224018D01*
X344773Y221348D01*
X344811Y221322D01*
X344838Y221286D01*
X347629Y218855D01*
X347669Y218832D01*
X347700Y218799D01*
X350697Y216627D01*
X350738Y216608D01*
X350772Y216578D01*
X353952Y214683D01*
X353994Y214668D01*
X354031Y214641D01*
X357367Y213038D01*
X357411Y213027D01*
X357450Y213003D01*
X360916Y211705D01*
X360961Y211698D01*
X361002Y211677D01*
X364570Y210695D01*
X364615Y210691D01*
X364658Y210675D01*
X368300Y210015D01*
X368345Y210016D01*
X368389Y210003D01*
X372075Y209672D01*
X372120Y209677D01*
X372165Y209668D01*
X375866D01*
X375911Y209677D01*
X375956Y209672D01*
X379643Y210003D01*
X379686Y210016D01*
X379732Y210015D01*
X383374Y210675D01*
X383416Y210691D01*
X383461Y210695D01*
X387030Y211677D01*
X387070Y211698D01*
X387115Y211705D01*
X390582Y213003D01*
X390620Y213027D01*
X390664Y213038D01*
X394001Y214641D01*
X394037Y214668D01*
X394080Y214683D01*
X397259Y216578D01*
X397293Y216608D01*
X397334Y216627D01*
X400332Y218799D01*
X400363Y218832D01*
X400402Y218855D01*
X403193Y221286D01*
X403221Y221322D01*
X403258Y221348D01*
X405821Y224018D01*
X405839Y224047D01*
X405866Y224069D01*
X407055Y225487D01*
X407060Y225497D01*
X407069Y225505D01*
X407413Y225935D01*
X408276Y226621D01*
X409270Y227098D01*
X410345Y227343D01*
X410896Y227343D01*
X421260D01*
X421968Y227343D01*
D02*
G37*
%LPC*%
G36*
X403543Y207720D02*
X401807Y207549D01*
X400137Y207043D01*
X398598Y206220D01*
X397249Y205113D01*
X396142Y203764D01*
X395320Y202225D01*
X394813Y200555D01*
X394642Y198819D01*
X394813Y197082D01*
X395320Y195413D01*
X396142Y193874D01*
X397249Y192525D01*
X398598Y191418D01*
X400137Y190595D01*
X401807Y190089D01*
X403543Y189918D01*
X405280Y190089D01*
X406950Y190595D01*
X408489Y191418D01*
X409837Y192525D01*
X410944Y193874D01*
X411767Y195413D01*
X412273Y197082D01*
X412444Y198819D01*
X412273Y200555D01*
X411767Y202225D01*
X410944Y203764D01*
X409837Y205113D01*
X408489Y206220D01*
X406950Y207043D01*
X405280Y207549D01*
X403543Y207720D01*
D02*
G37*
G36*
X344488D02*
X342752Y207549D01*
X341082Y207043D01*
X339543Y206220D01*
X338194Y205113D01*
X337087Y203764D01*
X336265Y202225D01*
X335758Y200555D01*
X335587Y198819D01*
X335758Y197082D01*
X336265Y195413D01*
X337087Y193874D01*
X338194Y192525D01*
X339543Y191418D01*
X341082Y190595D01*
X342752Y190089D01*
X344488Y189918D01*
X346225Y190089D01*
X347895Y190595D01*
X349433Y191418D01*
X350782Y192525D01*
X351889Y193874D01*
X352712Y195413D01*
X353218Y197082D01*
X353389Y198819D01*
X353218Y200555D01*
X352712Y202225D01*
X351889Y203764D01*
X350782Y205113D01*
X349433Y206220D01*
X347895Y207043D01*
X346225Y207549D01*
X344488Y207720D01*
D02*
G37*
G36*
X324803D02*
X323067Y207549D01*
X321397Y207043D01*
X319858Y206220D01*
X318509Y205113D01*
X317402Y203764D01*
X316580Y202225D01*
X316073Y200555D01*
X315902Y198819D01*
X316073Y197082D01*
X316580Y195413D01*
X317402Y193874D01*
X318509Y192525D01*
X319858Y191418D01*
X321397Y190595D01*
X323067Y190089D01*
X324803Y189918D01*
X326540Y190089D01*
X328209Y190595D01*
X329748Y191418D01*
X331097Y192525D01*
X332204Y193874D01*
X333027Y195413D01*
X333533Y197082D01*
X333704Y198819D01*
X333533Y200555D01*
X333027Y202225D01*
X332204Y203764D01*
X331097Y205113D01*
X329748Y206220D01*
X328209Y207043D01*
X326540Y207549D01*
X324803Y207720D01*
D02*
G37*
G36*
X265748D02*
X264012Y207549D01*
X262342Y207043D01*
X260803Y206220D01*
X259454Y205113D01*
X258347Y203764D01*
X257524Y202225D01*
X257018Y200555D01*
X256847Y198819D01*
X257018Y197082D01*
X257524Y195413D01*
X258347Y193874D01*
X259454Y192525D01*
X260803Y191418D01*
X262342Y190595D01*
X264012Y190089D01*
X265748Y189918D01*
X267484Y190089D01*
X269154Y190595D01*
X270693Y191418D01*
X272042Y192525D01*
X273149Y193874D01*
X273972Y195413D01*
X274478Y197082D01*
X274649Y198819D01*
X274478Y200555D01*
X273972Y202225D01*
X273149Y203764D01*
X272042Y205113D01*
X270693Y206220D01*
X269154Y207043D01*
X267484Y207549D01*
X265748Y207720D01*
D02*
G37*
G36*
X246063D02*
X244326Y207549D01*
X242657Y207043D01*
X241118Y206220D01*
X239769Y205113D01*
X238662Y203764D01*
X237839Y202225D01*
X237333Y200555D01*
X237162Y198819D01*
X237333Y197082D01*
X237839Y195413D01*
X238662Y193874D01*
X239769Y192525D01*
X241118Y191418D01*
X242657Y190595D01*
X244326Y190089D01*
X246063Y189918D01*
X247799Y190089D01*
X249469Y190595D01*
X251008Y191418D01*
X252357Y192525D01*
X253464Y193874D01*
X254287Y195413D01*
X254793Y197082D01*
X254964Y198819D01*
X254793Y200555D01*
X254287Y202225D01*
X253464Y203764D01*
X252357Y205113D01*
X251008Y206220D01*
X249469Y207043D01*
X247799Y207549D01*
X246063Y207720D01*
D02*
G37*
G36*
X187008D02*
X185271Y207549D01*
X183602Y207043D01*
X182063Y206220D01*
X180714Y205113D01*
X179607Y203764D01*
X178784Y202225D01*
X178278Y200555D01*
X178107Y198819D01*
X178278Y197082D01*
X178784Y195413D01*
X179607Y193874D01*
X180714Y192525D01*
X182063Y191418D01*
X183602Y190595D01*
X185271Y190089D01*
X187008Y189918D01*
X188744Y190089D01*
X190414Y190595D01*
X191953Y191418D01*
X193302Y192525D01*
X194409Y193874D01*
X195231Y195413D01*
X195738Y197082D01*
X195909Y198819D01*
X195738Y200555D01*
X195231Y202225D01*
X194409Y203764D01*
X193302Y205113D01*
X191953Y206220D01*
X190414Y207043D01*
X188744Y207549D01*
X187008Y207720D01*
D02*
G37*
G36*
X167323D02*
X165586Y207549D01*
X163917Y207043D01*
X162378Y206220D01*
X161029Y205113D01*
X159922Y203764D01*
X159099Y202225D01*
X158593Y200555D01*
X158422Y198819D01*
X158593Y197082D01*
X159099Y195413D01*
X159922Y193874D01*
X161029Y192525D01*
X162378Y191418D01*
X163917Y190595D01*
X165586Y190089D01*
X167323Y189918D01*
X169059Y190089D01*
X170729Y190595D01*
X172268Y191418D01*
X173617Y192525D01*
X174724Y193874D01*
X175546Y195413D01*
X176053Y197082D01*
X176224Y198819D01*
X176053Y200555D01*
X175546Y202225D01*
X174724Y203764D01*
X173617Y205113D01*
X172268Y206220D01*
X170729Y207043D01*
X169059Y207549D01*
X167323Y207720D01*
D02*
G37*
G36*
X108268D02*
X106531Y207549D01*
X104861Y207043D01*
X103323Y206220D01*
X101974Y205113D01*
X100867Y203764D01*
X100044Y202225D01*
X99538Y200555D01*
X99367Y198819D01*
X99538Y197082D01*
X100044Y195413D01*
X100867Y193874D01*
X101974Y192525D01*
X103323Y191418D01*
X104861Y190595D01*
X106531Y190089D01*
X108268Y189918D01*
X110004Y190089D01*
X111674Y190595D01*
X113213Y191418D01*
X114562Y192525D01*
X115669Y193874D01*
X116491Y195413D01*
X116998Y197082D01*
X117169Y198819D01*
X116998Y200555D01*
X116491Y202225D01*
X115669Y203764D01*
X114562Y205113D01*
X113213Y206220D01*
X111674Y207043D01*
X110004Y207549D01*
X108268Y207720D01*
D02*
G37*
G36*
X88583D02*
X86846Y207549D01*
X85176Y207043D01*
X83637Y206220D01*
X82289Y205113D01*
X81182Y203764D01*
X80359Y202225D01*
X79853Y200555D01*
X79682Y198819D01*
X79853Y197082D01*
X80359Y195413D01*
X81182Y193874D01*
X82289Y192525D01*
X83637Y191418D01*
X85176Y190595D01*
X86846Y190089D01*
X88583Y189918D01*
X90319Y190089D01*
X91989Y190595D01*
X93528Y191418D01*
X94877Y192525D01*
X95984Y193874D01*
X96806Y195413D01*
X97313Y197082D01*
X97484Y198819D01*
X97313Y200555D01*
X96806Y202225D01*
X95984Y203764D01*
X94877Y205113D01*
X93528Y206220D01*
X91989Y207043D01*
X90319Y207549D01*
X88583Y207720D01*
D02*
G37*
G36*
X29528D02*
X27791Y207549D01*
X26121Y207043D01*
X24582Y206220D01*
X23234Y205113D01*
X22127Y203764D01*
X21304Y202225D01*
X20798Y200555D01*
X20626Y198819D01*
X20798Y197082D01*
X21304Y195413D01*
X22127Y193874D01*
X23234Y192525D01*
X24582Y191418D01*
X26121Y190595D01*
X27791Y190089D01*
X29528Y189918D01*
X31264Y190089D01*
X32934Y190595D01*
X34473Y191418D01*
X35822Y192525D01*
X36929Y193874D01*
X37751Y195413D01*
X38258Y197082D01*
X38429Y198819D01*
X38258Y200555D01*
X37751Y202225D01*
X36929Y203764D01*
X35822Y205113D01*
X34473Y206220D01*
X32934Y207043D01*
X31264Y207549D01*
X29528Y207720D01*
D02*
G37*
G36*
X272638Y188312D02*
X232283D01*
X231784Y188213D01*
X231361Y187930D01*
X224091Y180660D01*
X223804Y180779D01*
X222520Y180948D01*
X221235Y180779D01*
X220038Y180283D01*
X219010Y179494D01*
X218221Y178466D01*
X217776Y177393D01*
X217776Y177392D01*
X217264D01*
X217263Y177393D01*
X216818Y178466D01*
X216030Y179494D01*
X215002Y180283D01*
X213804Y180779D01*
X212520Y180948D01*
X211235Y180779D01*
X210038Y180283D01*
X209010Y179494D01*
X208221Y178466D01*
X207725Y177269D01*
X207556Y175984D01*
X207725Y174699D01*
X208221Y173502D01*
X209010Y172474D01*
X210038Y171686D01*
X211235Y171190D01*
X212520Y171020D01*
X213804Y171190D01*
X215002Y171686D01*
X216030Y172474D01*
X216818Y173502D01*
X217263Y174576D01*
X217264Y174576D01*
X217776D01*
X217776Y174576D01*
X218221Y173502D01*
X219010Y172474D01*
X220038Y171686D01*
X221235Y171190D01*
X222520Y171020D01*
X223804Y171190D01*
X225002Y171686D01*
X226030Y172474D01*
X226818Y173502D01*
X227263Y174576D01*
X227264Y174576D01*
X227776D01*
X227776Y174576D01*
X228221Y173502D01*
X229010Y172474D01*
X230038Y171686D01*
X231235Y171190D01*
X232520Y171020D01*
X233804Y171190D01*
X235002Y171686D01*
X236030Y172474D01*
X236818Y173502D01*
X237314Y174699D01*
X237483Y175984D01*
X237314Y177269D01*
X236827Y178446D01*
X240147Y181766D01*
X271113D01*
X273685Y179195D01*
X273551Y178995D01*
X273383Y178150D01*
X273551Y177305D01*
X274029Y176588D01*
X274746Y176110D01*
X275590Y175942D01*
X276435Y176110D01*
X277152Y176588D01*
X277630Y177305D01*
X277723Y177771D01*
X278223Y177722D01*
Y176929D01*
X277966Y176758D01*
X277488Y176042D01*
X277320Y175197D01*
X277488Y174352D01*
X277966Y173636D01*
X278683Y173157D01*
X279528Y172989D01*
X280372Y173157D01*
X281089Y173636D01*
X281567Y174352D01*
X281735Y175197D01*
X281567Y176042D01*
X281089Y176758D01*
X280832Y176929D01*
Y180118D01*
X280733Y180617D01*
X280450Y181041D01*
X273560Y187930D01*
X273137Y188213D01*
X273054Y188230D01*
X272638Y188312D01*
D02*
G37*
G36*
X413386Y175813D02*
X412605Y175710D01*
X411877Y175409D01*
X411252Y174929D01*
X410772Y174304D01*
X410471Y173576D01*
X410368Y172795D01*
X410471Y172014D01*
X410772Y171286D01*
X411252Y170661D01*
X411877Y170182D01*
X412605Y169880D01*
X413386Y169777D01*
X414167Y169880D01*
X414895Y170182D01*
X415520Y170661D01*
X415999Y171286D01*
X416301Y172014D01*
X416404Y172795D01*
X416301Y173576D01*
X415999Y174304D01*
X415520Y174929D01*
X414895Y175409D01*
X414167Y175710D01*
X413386Y175813D01*
D02*
G37*
G36*
X19685D02*
X18904Y175710D01*
X18176Y175409D01*
X17551Y174929D01*
X17071Y174304D01*
X16770Y173576D01*
X16667Y172795D01*
X16770Y172014D01*
X17071Y171286D01*
X17551Y170661D01*
X18176Y170182D01*
X18904Y169880D01*
X19685Y169777D01*
X20466Y169880D01*
X21194Y170182D01*
X21819Y170661D01*
X22299Y171286D01*
X22600Y172014D01*
X22703Y172795D01*
X22600Y173576D01*
X22299Y174304D01*
X21819Y174929D01*
X21194Y175409D01*
X20466Y175710D01*
X19685Y175813D01*
D02*
G37*
G36*
X403386Y176766D02*
X402358Y176631D01*
X401400Y176234D01*
X400578Y175603D01*
X399947Y174781D01*
X399550Y173823D01*
X399415Y172795D01*
X399550Y171767D01*
X399947Y170810D01*
X400578Y169987D01*
X401400Y169356D01*
X402358Y168960D01*
X403386Y168824D01*
X404414Y168960D01*
X405371Y169356D01*
X406194Y169987D01*
X406825Y170810D01*
X407222Y171767D01*
X407357Y172795D01*
X407222Y173823D01*
X406825Y174781D01*
X406194Y175603D01*
X405371Y176234D01*
X404414Y176631D01*
X403386Y176766D01*
D02*
G37*
G36*
X9685D02*
X8657Y176631D01*
X7700Y176234D01*
X6877Y175603D01*
X6246Y174781D01*
X5849Y173823D01*
X5714Y172795D01*
X5849Y171767D01*
X6246Y170810D01*
X6877Y169987D01*
X7700Y169356D01*
X8657Y168960D01*
X9685Y168824D01*
X10713Y168960D01*
X11671Y169356D01*
X12493Y169987D01*
X13124Y170810D01*
X13521Y171767D01*
X13656Y172795D01*
X13521Y173823D01*
X13124Y174781D01*
X12493Y175603D01*
X11671Y176234D01*
X10713Y176631D01*
X9685Y176766D01*
D02*
G37*
G36*
X263779Y180945D02*
X262197Y180789D01*
X260676Y180327D01*
X259274Y179578D01*
X258045Y178569D01*
X257036Y177340D01*
X256287Y175938D01*
X255825Y174417D01*
X255670Y172835D01*
X255825Y171253D01*
X256287Y169731D01*
X257036Y168329D01*
X258045Y167100D01*
X259274Y166092D01*
X259710Y165859D01*
X259588Y165374D01*
X175451Y165374D01*
X175330Y165859D01*
X175766Y166092D01*
X176994Y167100D01*
X178003Y168329D01*
X178752Y169731D01*
X179214Y171253D01*
X179370Y172835D01*
X179214Y174417D01*
X178752Y175938D01*
X178003Y177340D01*
X176994Y178569D01*
X175766Y179578D01*
X174363Y180327D01*
X172842Y180789D01*
X171260Y180945D01*
X169678Y180789D01*
X168156Y180327D01*
X166754Y179578D01*
X165525Y178569D01*
X164517Y177340D01*
X163767Y175938D01*
X163306Y174417D01*
X163150Y172835D01*
X163306Y171253D01*
X163767Y169731D01*
X164517Y168329D01*
X165525Y167100D01*
X166754Y166092D01*
X167190Y165859D01*
X167068Y165374D01*
X166339D01*
X166339Y165374D01*
X165951Y165374D01*
X165854Y165354D01*
X165755D01*
X164994Y165203D01*
X164903Y165165D01*
X164806Y165146D01*
X164090Y164849D01*
X164007Y164794D01*
X163916Y164756D01*
X163271Y164325D01*
X163201Y164256D01*
X163119Y164201D01*
X162571Y163652D01*
X162516Y163570D01*
X162446Y163500D01*
X162015Y162856D01*
X161977Y162764D01*
X161923Y162682D01*
X161626Y161966D01*
X161606Y161869D01*
X161569Y161777D01*
X161417Y161017D01*
Y160918D01*
X161398Y160821D01*
X161398Y160433D01*
Y90551D01*
X161398Y90163D01*
X161417Y90066D01*
Y89968D01*
X161569Y89207D01*
X161606Y89116D01*
X161626Y89019D01*
X161923Y88302D01*
X161977Y88220D01*
X162015Y88129D01*
X162446Y87484D01*
X162516Y87414D01*
X162571Y87332D01*
X163119Y86783D01*
X163201Y86729D01*
X163271Y86659D01*
X163916Y86228D01*
X164007Y86190D01*
X164090Y86135D01*
X164806Y85838D01*
X164903Y85819D01*
X164994Y85781D01*
X165683Y85644D01*
X165789Y85441D01*
X165838Y85165D01*
X165836Y85124D01*
X165525Y84868D01*
X164517Y83640D01*
X163767Y82237D01*
X163306Y80716D01*
X163150Y79134D01*
X163306Y77552D01*
X163767Y76030D01*
X164517Y74628D01*
X165525Y73399D01*
X166754Y72391D01*
X168156Y71641D01*
X169678Y71180D01*
X171260Y71024D01*
X172842Y71180D01*
X174363Y71641D01*
X175766Y72391D01*
X176994Y73399D01*
X178003Y74628D01*
X178752Y76030D01*
X179214Y77552D01*
X179370Y79134D01*
X179214Y80716D01*
X178752Y82237D01*
X178163Y83341D01*
X178545Y83687D01*
X178748Y83551D01*
X179402Y82958D01*
X188291Y74070D01*
X188291Y74070D01*
X188987Y73373D01*
X189069Y73318D01*
X189139Y73248D01*
X190777Y72154D01*
X190868Y72116D01*
X190951Y72061D01*
X192770Y71307D01*
X192867Y71288D01*
X192959Y71250D01*
X194891Y70866D01*
X194989D01*
X195086Y70847D01*
X196071Y70847D01*
X243110D01*
X243578Y70847D01*
X243675Y70866D01*
X243774D01*
X244692Y71049D01*
X244784Y71087D01*
X244881Y71106D01*
X245745Y71464D01*
X245828Y71519D01*
X245919Y71557D01*
X246697Y72077D01*
X246767Y72147D01*
X246849Y72202D01*
X247180Y72533D01*
X255319Y80671D01*
X255799Y80444D01*
X255670Y79134D01*
X255825Y77552D01*
X256287Y76030D01*
X257036Y74628D01*
X258045Y73399D01*
X259274Y72391D01*
X260676Y71641D01*
X262197Y71180D01*
X263779Y71024D01*
X265362Y71180D01*
X266883Y71641D01*
X268285Y72391D01*
X269514Y73399D01*
X270523Y74628D01*
X271272Y76030D01*
X271734Y77552D01*
X271889Y79134D01*
X271734Y80716D01*
X271272Y82237D01*
X270523Y83640D01*
X269514Y84868D01*
X269203Y85124D01*
X269202Y85165D01*
X269251Y85441D01*
X269357Y85644D01*
X270045Y85781D01*
X270136Y85819D01*
X270233Y85838D01*
X270950Y86135D01*
X271032Y86190D01*
X271123Y86228D01*
X271768Y86659D01*
X271838Y86729D01*
X271920Y86783D01*
X272468Y87332D01*
X272523Y87414D01*
X272593Y87484D01*
X273024Y88129D01*
X273062Y88220D01*
X273117Y88302D01*
X273414Y89019D01*
X273433Y89116D01*
X273471Y89207D01*
X273622Y89968D01*
Y90066D01*
X273641Y90163D01*
X273641Y90551D01*
X273641Y160433D01*
X273641Y160433D01*
X273641Y160821D01*
X273622Y160918D01*
Y161017D01*
X273471Y161777D01*
X273433Y161869D01*
X273414Y161966D01*
X273117Y162682D01*
X273062Y162764D01*
X273024Y162855D01*
X272593Y163500D01*
X272523Y163570D01*
X272468Y163652D01*
X271920Y164201D01*
X271838Y164256D01*
X271768Y164325D01*
X271123Y164756D01*
X271032Y164794D01*
X270950Y164849D01*
X270233Y165146D01*
X270136Y165165D01*
X270045Y165203D01*
X269284Y165354D01*
X269185D01*
X269089Y165374D01*
X268701Y165374D01*
X267971D01*
X267849Y165859D01*
X268285Y166092D01*
X269514Y167100D01*
X270523Y168329D01*
X271272Y169731D01*
X271734Y171253D01*
X271889Y172835D01*
X271734Y174417D01*
X271272Y175938D01*
X270523Y177340D01*
X269514Y178569D01*
X268285Y179578D01*
X266883Y180327D01*
X265362Y180789D01*
X263779Y180945D01*
D02*
G37*
G36*
X413386Y165813D02*
X412605Y165710D01*
X411877Y165409D01*
X411252Y164929D01*
X410772Y164304D01*
X410471Y163576D01*
X410368Y162795D01*
X410471Y162014D01*
X410772Y161286D01*
X411252Y160661D01*
X411877Y160182D01*
X412605Y159880D01*
X413386Y159777D01*
X414167Y159880D01*
X414895Y160182D01*
X415520Y160661D01*
X415999Y161286D01*
X416301Y162014D01*
X416404Y162795D01*
X416301Y163576D01*
X415999Y164304D01*
X415520Y164929D01*
X414895Y165409D01*
X414167Y165710D01*
X413386Y165813D01*
D02*
G37*
G36*
X19685D02*
X18904Y165710D01*
X18176Y165409D01*
X17551Y164929D01*
X17071Y164304D01*
X16770Y163576D01*
X16667Y162795D01*
X16770Y162014D01*
X17071Y161286D01*
X17551Y160661D01*
X18176Y160182D01*
X18904Y159880D01*
X19685Y159777D01*
X20466Y159880D01*
X21194Y160182D01*
X21819Y160661D01*
X22299Y161286D01*
X22600Y162014D01*
X22703Y162795D01*
X22600Y163576D01*
X22299Y164304D01*
X21819Y164929D01*
X21194Y165409D01*
X20466Y165710D01*
X19685Y165813D01*
D02*
G37*
G36*
X423386Y166766D02*
X422358Y166631D01*
X421400Y166234D01*
X420578Y165603D01*
X419947Y164781D01*
X419550Y163823D01*
X419415Y162795D01*
X419550Y161767D01*
X419947Y160810D01*
X420578Y159987D01*
X421400Y159356D01*
X422358Y158960D01*
X423386Y158824D01*
X424414Y158960D01*
X425371Y159356D01*
X426194Y159987D01*
X426825Y160810D01*
X427221Y161767D01*
X427357Y162795D01*
X427221Y163823D01*
X426825Y164781D01*
X426194Y165603D01*
X425371Y166234D01*
X424414Y166631D01*
X423386Y166766D01*
D02*
G37*
G36*
X403386D02*
X402358Y166631D01*
X401400Y166234D01*
X400578Y165603D01*
X399947Y164781D01*
X399550Y163823D01*
X399415Y162795D01*
X399550Y161767D01*
X399947Y160810D01*
X400578Y159987D01*
X401400Y159356D01*
X402358Y158960D01*
X403386Y158824D01*
X404414Y158960D01*
X405371Y159356D01*
X406194Y159987D01*
X406825Y160810D01*
X407222Y161767D01*
X407357Y162795D01*
X407222Y163823D01*
X406825Y164781D01*
X406194Y165603D01*
X405371Y166234D01*
X404414Y166631D01*
X403386Y166766D01*
D02*
G37*
G36*
X29685D02*
X28657Y166631D01*
X27700Y166234D01*
X26877Y165603D01*
X26246Y164781D01*
X25849Y163823D01*
X25714Y162795D01*
X25849Y161767D01*
X26246Y160810D01*
X26877Y159987D01*
X27700Y159356D01*
X28657Y158960D01*
X29685Y158824D01*
X30713Y158960D01*
X31670Y159356D01*
X32493Y159987D01*
X33124Y160810D01*
X33521Y161767D01*
X33656Y162795D01*
X33521Y163823D01*
X33124Y164781D01*
X32493Y165603D01*
X31670Y166234D01*
X30713Y166631D01*
X29685Y166766D01*
D02*
G37*
G36*
X9685D02*
X8657Y166631D01*
X7700Y166234D01*
X6877Y165603D01*
X6246Y164781D01*
X5849Y163823D01*
X5714Y162795D01*
X5849Y161767D01*
X6246Y160810D01*
X6877Y159987D01*
X7700Y159356D01*
X8657Y158960D01*
X9685Y158824D01*
X10713Y158960D01*
X11671Y159356D01*
X12493Y159987D01*
X13124Y160810D01*
X13521Y161767D01*
X13656Y162795D01*
X13521Y163823D01*
X13124Y164781D01*
X12493Y165603D01*
X11671Y166234D01*
X10713Y166631D01*
X9685Y166766D01*
D02*
G37*
G36*
X413386Y155813D02*
X412605Y155710D01*
X411877Y155409D01*
X411252Y154929D01*
X410772Y154304D01*
X410471Y153576D01*
X410368Y152795D01*
X410471Y152014D01*
X410772Y151286D01*
X411252Y150661D01*
X411877Y150182D01*
X412605Y149880D01*
X413386Y149777D01*
X414167Y149880D01*
X414895Y150182D01*
X415520Y150661D01*
X415999Y151286D01*
X416301Y152014D01*
X416404Y152795D01*
X416301Y153576D01*
X415999Y154304D01*
X415520Y154929D01*
X414895Y155409D01*
X414167Y155710D01*
X413386Y155813D01*
D02*
G37*
G36*
X19685D02*
X18904Y155710D01*
X18176Y155409D01*
X17551Y154929D01*
X17071Y154304D01*
X16770Y153576D01*
X16667Y152795D01*
X16770Y152014D01*
X17071Y151286D01*
X17551Y150661D01*
X18176Y150182D01*
X18904Y149880D01*
X19685Y149777D01*
X20466Y149880D01*
X21194Y150182D01*
X21819Y150661D01*
X22299Y151286D01*
X22600Y152014D01*
X22703Y152795D01*
X22600Y153576D01*
X22299Y154304D01*
X21819Y154929D01*
X21194Y155409D01*
X20466Y155710D01*
X19685Y155813D01*
D02*
G37*
G36*
X403386Y156766D02*
X402358Y156631D01*
X401400Y156234D01*
X400578Y155603D01*
X399947Y154781D01*
X399550Y153823D01*
X399415Y152795D01*
X399550Y151768D01*
X399947Y150810D01*
X400578Y149987D01*
X401400Y149356D01*
X402358Y148960D01*
X403386Y148824D01*
X404414Y148960D01*
X405371Y149356D01*
X406194Y149987D01*
X406825Y150810D01*
X407222Y151768D01*
X407357Y152795D01*
X407222Y153823D01*
X406825Y154781D01*
X406194Y155603D01*
X405371Y156234D01*
X404414Y156631D01*
X403386Y156766D01*
D02*
G37*
G36*
X9685D02*
X8657Y156631D01*
X7700Y156234D01*
X6877Y155603D01*
X6246Y154781D01*
X5849Y153823D01*
X5714Y152795D01*
X5849Y151768D01*
X6246Y150810D01*
X6877Y149987D01*
X7700Y149356D01*
X8657Y148960D01*
X9685Y148824D01*
X10713Y148960D01*
X11671Y149356D01*
X12493Y149987D01*
X13124Y150810D01*
X13521Y151768D01*
X13656Y152795D01*
X13521Y153823D01*
X13124Y154781D01*
X12493Y155603D01*
X11671Y156234D01*
X10713Y156631D01*
X9685Y156766D01*
D02*
G37*
G36*
X413386Y145813D02*
X412605Y145710D01*
X411877Y145409D01*
X411252Y144929D01*
X410772Y144304D01*
X410471Y143576D01*
X410368Y142795D01*
X410471Y142014D01*
X410772Y141286D01*
X411252Y140661D01*
X411877Y140182D01*
X412605Y139880D01*
X413386Y139777D01*
X414167Y139880D01*
X414895Y140182D01*
X415520Y140661D01*
X415999Y141286D01*
X416301Y142014D01*
X416404Y142795D01*
X416301Y143576D01*
X415999Y144304D01*
X415520Y144929D01*
X414895Y145409D01*
X414167Y145710D01*
X413386Y145813D01*
D02*
G37*
G36*
X19685D02*
X18904Y145710D01*
X18176Y145409D01*
X17551Y144929D01*
X17071Y144304D01*
X16770Y143576D01*
X16667Y142795D01*
X16770Y142014D01*
X17071Y141286D01*
X17551Y140661D01*
X18176Y140182D01*
X18904Y139880D01*
X19685Y139777D01*
X20466Y139880D01*
X21194Y140182D01*
X21819Y140661D01*
X22299Y141286D01*
X22600Y142014D01*
X22703Y142795D01*
X22600Y143576D01*
X22299Y144304D01*
X21819Y144929D01*
X21194Y145409D01*
X20466Y145710D01*
X19685Y145813D01*
D02*
G37*
G36*
X423386Y146766D02*
X422358Y146631D01*
X421400Y146234D01*
X420578Y145603D01*
X419947Y144781D01*
X419550Y143823D01*
X419415Y142795D01*
X419550Y141768D01*
X419947Y140810D01*
X420578Y139987D01*
X421400Y139356D01*
X422358Y138960D01*
X423386Y138824D01*
X424414Y138960D01*
X425371Y139356D01*
X426194Y139987D01*
X426825Y140810D01*
X427221Y141768D01*
X427357Y142795D01*
X427221Y143823D01*
X426825Y144781D01*
X426194Y145603D01*
X425371Y146234D01*
X424414Y146631D01*
X423386Y146766D01*
D02*
G37*
G36*
X403386D02*
X402358Y146631D01*
X401400Y146234D01*
X400578Y145603D01*
X399947Y144781D01*
X399550Y143823D01*
X399415Y142795D01*
X399550Y141768D01*
X399947Y140810D01*
X400578Y139987D01*
X401400Y139356D01*
X402358Y138960D01*
X403386Y138824D01*
X404414Y138960D01*
X405371Y139356D01*
X406194Y139987D01*
X406825Y140810D01*
X407222Y141768D01*
X407357Y142795D01*
X407222Y143823D01*
X406825Y144781D01*
X406194Y145603D01*
X405371Y146234D01*
X404414Y146631D01*
X403386Y146766D01*
D02*
G37*
G36*
X29685D02*
X28657Y146631D01*
X27700Y146234D01*
X26877Y145603D01*
X26246Y144781D01*
X25849Y143823D01*
X25714Y142795D01*
X25849Y141768D01*
X26246Y140810D01*
X26877Y139987D01*
X27700Y139356D01*
X28657Y138960D01*
X29685Y138824D01*
X30713Y138960D01*
X31670Y139356D01*
X32493Y139987D01*
X33124Y140810D01*
X33521Y141768D01*
X33656Y142795D01*
X33521Y143823D01*
X33124Y144781D01*
X32493Y145603D01*
X31670Y146234D01*
X30713Y146631D01*
X29685Y146766D01*
D02*
G37*
G36*
X9685D02*
X8657Y146631D01*
X7700Y146234D01*
X6877Y145603D01*
X6246Y144781D01*
X5849Y143823D01*
X5714Y142795D01*
X5849Y141768D01*
X6246Y140810D01*
X6877Y139987D01*
X7700Y139356D01*
X8657Y138960D01*
X9685Y138824D01*
X10713Y138960D01*
X11671Y139356D01*
X12493Y139987D01*
X13124Y140810D01*
X13521Y141768D01*
X13656Y142795D01*
X13521Y143823D01*
X13124Y144781D01*
X12493Y145603D01*
X11671Y146234D01*
X10713Y146631D01*
X9685Y146766D01*
D02*
G37*
G36*
X319882Y156735D02*
X319037Y156567D01*
X318321Y156089D01*
X317842Y155372D01*
X317760Y154961D01*
X313683Y150884D01*
X313292Y150298D01*
X313154Y149606D01*
Y136248D01*
X307768D01*
X307663Y136404D01*
X306947Y136882D01*
X306102Y137050D01*
X305258Y136882D01*
X304541Y136404D01*
X304063Y135687D01*
X303895Y134843D01*
X304063Y133998D01*
X304541Y133281D01*
X305258Y132803D01*
X306102Y132635D01*
X306947Y132803D01*
X307663Y133281D01*
X307768Y133438D01*
X313154D01*
Y116352D01*
X312921Y116002D01*
X312753Y115157D01*
X312921Y114313D01*
X313400Y113596D01*
X314116Y113118D01*
X314961Y112950D01*
X315806Y113118D01*
X316522Y113596D01*
X317000Y114313D01*
X317168Y115157D01*
X317000Y116002D01*
X316767Y116352D01*
Y134843D01*
Y148858D01*
X320315Y152406D01*
X320727Y152488D01*
X321443Y152966D01*
X321922Y153683D01*
X322090Y154528D01*
X321922Y155372D01*
X321443Y156089D01*
X320727Y156567D01*
X319882Y156735D01*
D02*
G37*
G36*
X353346Y136066D02*
X352502Y135898D01*
X351785Y135419D01*
X351681Y135263D01*
X334646D01*
X334108Y135156D01*
X333920Y135030D01*
X333661Y135082D01*
X332817Y134914D01*
X332100Y134435D01*
X331622Y133719D01*
X331454Y132874D01*
X331622Y132029D01*
X332100Y131313D01*
X332817Y130834D01*
X333661Y130666D01*
X334506Y130834D01*
X335223Y131313D01*
X335701Y132029D01*
X335786Y132453D01*
X351681D01*
X351785Y132297D01*
X352502Y131819D01*
X353346Y131650D01*
X354191Y131819D01*
X354908Y132297D01*
X355386Y133013D01*
X355554Y133858D01*
X355386Y134703D01*
X354908Y135419D01*
X354191Y135898D01*
X353346Y136066D01*
D02*
G37*
G36*
X413386Y135813D02*
X412605Y135710D01*
X411877Y135409D01*
X411252Y134929D01*
X410772Y134304D01*
X410471Y133576D01*
X410368Y132795D01*
X410471Y132014D01*
X410772Y131286D01*
X411252Y130661D01*
X411877Y130182D01*
X412605Y129880D01*
X413386Y129777D01*
X414167Y129880D01*
X414895Y130182D01*
X415520Y130661D01*
X415999Y131286D01*
X416301Y132014D01*
X416404Y132795D01*
X416301Y133576D01*
X415999Y134304D01*
X415520Y134929D01*
X414895Y135409D01*
X414167Y135710D01*
X413386Y135813D01*
D02*
G37*
G36*
X19685D02*
X18904Y135710D01*
X18176Y135409D01*
X17551Y134929D01*
X17071Y134304D01*
X16770Y133576D01*
X16667Y132795D01*
X16770Y132014D01*
X17071Y131286D01*
X17551Y130661D01*
X18176Y130182D01*
X18904Y129880D01*
X19685Y129777D01*
X20466Y129880D01*
X21194Y130182D01*
X21819Y130661D01*
X22299Y131286D01*
X22600Y132014D01*
X22703Y132795D01*
X22600Y133576D01*
X22299Y134304D01*
X21819Y134929D01*
X21194Y135409D01*
X20466Y135710D01*
X19685Y135813D01*
D02*
G37*
G36*
X403386Y136766D02*
X402358Y136631D01*
X401400Y136234D01*
X400578Y135603D01*
X399947Y134781D01*
X399550Y133823D01*
X399415Y132795D01*
X399550Y131767D01*
X399947Y130810D01*
X400578Y129987D01*
X401400Y129356D01*
X402358Y128960D01*
X403386Y128824D01*
X404414Y128960D01*
X405371Y129356D01*
X406194Y129987D01*
X406825Y130810D01*
X407222Y131767D01*
X407357Y132795D01*
X407222Y133823D01*
X406825Y134781D01*
X406194Y135603D01*
X405371Y136234D01*
X404414Y136631D01*
X403386Y136766D01*
D02*
G37*
G36*
X9685D02*
X8657Y136631D01*
X7700Y136234D01*
X6877Y135603D01*
X6246Y134781D01*
X5849Y133823D01*
X5714Y132795D01*
X5849Y131767D01*
X6246Y130810D01*
X6877Y129987D01*
X7700Y129356D01*
X8657Y128960D01*
X9685Y128824D01*
X10713Y128960D01*
X11671Y129356D01*
X12493Y129987D01*
X13124Y130810D01*
X13521Y131767D01*
X13656Y132795D01*
X13521Y133823D01*
X13124Y134781D01*
X12493Y135603D01*
X11671Y136234D01*
X10713Y136631D01*
X9685Y136766D01*
D02*
G37*
G36*
X413386Y125813D02*
X412605Y125710D01*
X411877Y125409D01*
X411252Y124929D01*
X410772Y124304D01*
X410471Y123576D01*
X410368Y122795D01*
X410471Y122014D01*
X410772Y121286D01*
X411252Y120661D01*
X411877Y120182D01*
X412605Y119880D01*
X413386Y119777D01*
X414167Y119880D01*
X414895Y120182D01*
X415520Y120661D01*
X415999Y121286D01*
X416301Y122014D01*
X416404Y122795D01*
X416301Y123576D01*
X415999Y124304D01*
X415520Y124929D01*
X414895Y125409D01*
X414167Y125710D01*
X413386Y125813D01*
D02*
G37*
G36*
X19685D02*
X18904Y125710D01*
X18176Y125409D01*
X17551Y124929D01*
X17071Y124304D01*
X16770Y123576D01*
X16667Y122795D01*
X16770Y122014D01*
X17071Y121286D01*
X17551Y120661D01*
X18176Y120182D01*
X18904Y119880D01*
X19685Y119777D01*
X20466Y119880D01*
X21194Y120182D01*
X21819Y120661D01*
X22299Y121286D01*
X22600Y122014D01*
X22703Y122795D01*
X22600Y123576D01*
X22299Y124304D01*
X21819Y124929D01*
X21194Y125409D01*
X20466Y125710D01*
X19685Y125813D01*
D02*
G37*
G36*
X423386Y126766D02*
X422358Y126631D01*
X421400Y126234D01*
X420578Y125603D01*
X419947Y124781D01*
X419550Y123823D01*
X419415Y122795D01*
X419550Y121767D01*
X419947Y120810D01*
X420578Y119987D01*
X421400Y119356D01*
X422358Y118960D01*
X423386Y118824D01*
X424414Y118960D01*
X425371Y119356D01*
X426194Y119987D01*
X426825Y120810D01*
X427221Y121767D01*
X427357Y122795D01*
X427221Y123823D01*
X426825Y124781D01*
X426194Y125603D01*
X425371Y126234D01*
X424414Y126631D01*
X423386Y126766D01*
D02*
G37*
G36*
X403386D02*
X402358Y126631D01*
X401400Y126234D01*
X400578Y125603D01*
X399947Y124781D01*
X399550Y123823D01*
X399415Y122795D01*
X399550Y121767D01*
X399947Y120810D01*
X400578Y119987D01*
X401400Y119356D01*
X402358Y118960D01*
X403386Y118824D01*
X404414Y118960D01*
X405371Y119356D01*
X406194Y119987D01*
X406825Y120810D01*
X407222Y121767D01*
X407357Y122795D01*
X407222Y123823D01*
X406825Y124781D01*
X406194Y125603D01*
X405371Y126234D01*
X404414Y126631D01*
X403386Y126766D01*
D02*
G37*
G36*
X29685D02*
X28657Y126631D01*
X27700Y126234D01*
X26877Y125603D01*
X26246Y124781D01*
X25849Y123823D01*
X25714Y122795D01*
X25849Y121767D01*
X26246Y120810D01*
X26877Y119987D01*
X27700Y119356D01*
X28657Y118960D01*
X29685Y118824D01*
X30713Y118960D01*
X31670Y119356D01*
X32493Y119987D01*
X33124Y120810D01*
X33521Y121767D01*
X33656Y122795D01*
X33521Y123823D01*
X33124Y124781D01*
X32493Y125603D01*
X31670Y126234D01*
X30713Y126631D01*
X29685Y126766D01*
D02*
G37*
G36*
X9685D02*
X8657Y126631D01*
X7700Y126234D01*
X6877Y125603D01*
X6246Y124781D01*
X5849Y123823D01*
X5714Y122795D01*
X5849Y121767D01*
X6246Y120810D01*
X6877Y119987D01*
X7700Y119356D01*
X8657Y118960D01*
X9685Y118824D01*
X10713Y118960D01*
X11671Y119356D01*
X12493Y119987D01*
X13124Y120810D01*
X13521Y121767D01*
X13656Y122795D01*
X13521Y123823D01*
X13124Y124781D01*
X12493Y125603D01*
X11671Y126234D01*
X10713Y126631D01*
X9685Y126766D01*
D02*
G37*
G36*
X353346Y126224D02*
X352502Y126056D01*
X351785Y125577D01*
X351307Y124861D01*
X351139Y124016D01*
X351307Y123171D01*
X351785Y122455D01*
X352502Y121976D01*
X353346Y121808D01*
X354191Y121976D01*
X354908Y122455D01*
X355079Y122711D01*
X360680D01*
X367931Y115460D01*
X367871Y115157D01*
X368039Y114313D01*
X368518Y113596D01*
X369234Y113118D01*
X370079Y112950D01*
X370924Y113118D01*
X371640Y113596D01*
X372118Y114313D01*
X372287Y115157D01*
X372118Y116002D01*
X371640Y116719D01*
X370924Y117197D01*
X370079Y117365D01*
X369776Y117305D01*
X362143Y124938D01*
X361720Y125221D01*
X361221Y125320D01*
X355079D01*
X354908Y125577D01*
X354191Y126056D01*
X353346Y126224D01*
D02*
G37*
G36*
X327756Y129176D02*
X326911Y129008D01*
X326195Y128530D01*
X325716Y127813D01*
X325548Y126969D01*
X325716Y126124D01*
X326195Y125407D01*
X326451Y125236D01*
Y117126D01*
X326551Y116627D01*
X326833Y116203D01*
X328561Y114476D01*
X328501Y114173D01*
X328669Y113328D01*
X329148Y112612D01*
X329864Y112134D01*
X330709Y111966D01*
X331554Y112134D01*
X332270Y112612D01*
X332748Y113328D01*
X332916Y114173D01*
X332748Y115018D01*
X332270Y115734D01*
X331554Y116213D01*
X330709Y116381D01*
X330406Y116321D01*
X329061Y117666D01*
Y125236D01*
X329317Y125407D01*
X329796Y126124D01*
X329964Y126969D01*
X329796Y127813D01*
X329317Y128530D01*
X328601Y129008D01*
X327756Y129176D01*
D02*
G37*
G36*
X413386Y115813D02*
X412605Y115710D01*
X411877Y115409D01*
X411252Y114929D01*
X410772Y114304D01*
X410471Y113576D01*
X410368Y112795D01*
X410471Y112014D01*
X410772Y111286D01*
X411252Y110661D01*
X411877Y110182D01*
X412605Y109880D01*
X413386Y109777D01*
X414167Y109880D01*
X414895Y110182D01*
X415520Y110661D01*
X415999Y111286D01*
X416301Y112014D01*
X416404Y112795D01*
X416301Y113576D01*
X415999Y114304D01*
X415520Y114929D01*
X414895Y115409D01*
X414167Y115710D01*
X413386Y115813D01*
D02*
G37*
G36*
X19685D02*
X18904Y115710D01*
X18176Y115409D01*
X17551Y114929D01*
X17071Y114304D01*
X16770Y113576D01*
X16667Y112795D01*
X16770Y112014D01*
X17071Y111286D01*
X17551Y110661D01*
X18176Y110182D01*
X18904Y109880D01*
X19685Y109777D01*
X20466Y109880D01*
X21194Y110182D01*
X21819Y110661D01*
X22299Y111286D01*
X22600Y112014D01*
X22703Y112795D01*
X22600Y113576D01*
X22299Y114304D01*
X21819Y114929D01*
X21194Y115409D01*
X20466Y115710D01*
X19685Y115813D01*
D02*
G37*
G36*
X403386Y116766D02*
X402358Y116631D01*
X401400Y116234D01*
X400578Y115603D01*
X399947Y114781D01*
X399550Y113823D01*
X399415Y112795D01*
X399550Y111767D01*
X399947Y110810D01*
X400578Y109987D01*
X401400Y109356D01*
X402358Y108960D01*
X403386Y108824D01*
X404414Y108960D01*
X405371Y109356D01*
X406194Y109987D01*
X406825Y110810D01*
X407222Y111767D01*
X407357Y112795D01*
X407222Y113823D01*
X406825Y114781D01*
X406194Y115603D01*
X405371Y116234D01*
X404414Y116631D01*
X403386Y116766D01*
D02*
G37*
G36*
X9685D02*
X8657Y116631D01*
X7700Y116234D01*
X6877Y115603D01*
X6246Y114781D01*
X5849Y113823D01*
X5714Y112795D01*
X5849Y111767D01*
X6246Y110810D01*
X6877Y109987D01*
X7700Y109356D01*
X8657Y108960D01*
X9685Y108824D01*
X10713Y108960D01*
X11671Y109356D01*
X12493Y109987D01*
X13124Y110810D01*
X13521Y111767D01*
X13656Y112795D01*
X13521Y113823D01*
X13124Y114781D01*
X12493Y115603D01*
X11671Y116234D01*
X10713Y116631D01*
X9685Y116766D01*
D02*
G37*
G36*
X309055Y126224D02*
X308210Y126056D01*
X307494Y125577D01*
X307015Y124861D01*
X306847Y124016D01*
X306884Y123831D01*
X296251Y113198D01*
X296206Y113131D01*
X295683Y112782D01*
X295204Y112065D01*
X295036Y111221D01*
X295204Y110376D01*
X295683Y109659D01*
X296399Y109181D01*
X297244Y109013D01*
X298089Y109181D01*
X298397Y109386D01*
X298945Y109195D01*
X299423Y108478D01*
X300139Y108000D01*
X300984Y107832D01*
X301829Y108000D01*
X302545Y108478D01*
X303024Y109195D01*
X303192Y110039D01*
X303155Y110224D01*
X310049Y117117D01*
X310353Y117573D01*
X310460Y118110D01*
Y118413D01*
X310616Y118518D01*
X311095Y119234D01*
X311263Y120079D01*
X311095Y120924D01*
X310616Y121640D01*
X310381Y121797D01*
Y122297D01*
X310616Y122455D01*
X311095Y123171D01*
X311263Y124016D01*
X311095Y124861D01*
X310616Y125577D01*
X309900Y126056D01*
X309055Y126224D01*
D02*
G37*
G36*
X346457Y107523D02*
X345612Y107355D01*
X345263Y107121D01*
X328950D01*
X328601Y107355D01*
X327756Y107523D01*
X326911Y107355D01*
X326195Y106876D01*
X325716Y106160D01*
X325548Y105315D01*
X325716Y104470D01*
X326195Y103754D01*
X326911Y103275D01*
X327756Y103107D01*
X328601Y103275D01*
X328950Y103509D01*
X345263D01*
X345612Y103275D01*
X346457Y103107D01*
X347302Y103275D01*
X348018Y103754D01*
X348496Y104470D01*
X348664Y105315D01*
X348496Y106160D01*
X348018Y106876D01*
X347302Y107355D01*
X346457Y107523D01*
D02*
G37*
G36*
X322835Y113428D02*
X321990Y113260D01*
X321273Y112782D01*
X320795Y112065D01*
X320627Y111221D01*
X320795Y110376D01*
X321273Y109659D01*
X321530Y109488D01*
Y106727D01*
X321030Y106678D01*
X320937Y107144D01*
X320459Y107860D01*
X319742Y108339D01*
X318898Y108507D01*
X318053Y108339D01*
X317811Y108177D01*
X317357Y108249D01*
X317057Y108692D01*
X317168Y109252D01*
X317000Y110097D01*
X316522Y110813D01*
X315806Y111292D01*
X314961Y111460D01*
X314116Y111292D01*
X313400Y110813D01*
X312921Y110097D01*
X312753Y109252D01*
X312921Y108407D01*
X313154Y108058D01*
Y107493D01*
X312921Y107144D01*
X312753Y106299D01*
X312921Y105454D01*
X313154Y105105D01*
Y93504D01*
X313292Y92813D01*
X313683Y92227D01*
X317760Y88150D01*
X317842Y87738D01*
X318321Y87022D01*
X319037Y86543D01*
X319882Y86375D01*
X320727Y86543D01*
X321443Y87022D01*
X321922Y87738D01*
X322090Y88583D01*
X321922Y89428D01*
X321443Y90144D01*
X320727Y90622D01*
X320315Y90704D01*
X316767Y94252D01*
Y104493D01*
X317704D01*
X318053Y104260D01*
X318898Y104091D01*
X319742Y104260D01*
X320459Y104738D01*
X320937Y105454D01*
X321030Y105920D01*
X321530Y105871D01*
Y94488D01*
X321629Y93989D01*
X321912Y93566D01*
X323881Y91597D01*
X324304Y91314D01*
X324803Y91215D01*
X326023D01*
X326195Y90959D01*
X326911Y90480D01*
X327756Y90312D01*
X328601Y90480D01*
X329317Y90959D01*
X329796Y91675D01*
X329964Y92520D01*
X329796Y93365D01*
X329317Y94081D01*
X328601Y94559D01*
X327756Y94727D01*
X326911Y94559D01*
X326195Y94081D01*
X326023Y93824D01*
X325343D01*
X324139Y95029D01*
Y109488D01*
X324396Y109659D01*
X324874Y110376D01*
X325042Y111221D01*
X324874Y112065D01*
X324396Y112782D01*
X323679Y113260D01*
X322835Y113428D01*
D02*
G37*
G36*
X96575Y125042D02*
X94213D01*
X93368Y124874D01*
X92651Y124396D01*
X92173Y123679D01*
X92005Y122835D01*
Y113386D01*
X92173Y112541D01*
X92651Y111825D01*
X93368Y111346D01*
X93587Y111302D01*
Y107953D01*
X89803Y104169D01*
X33378D01*
X33124Y104781D01*
X32493Y105603D01*
X31670Y106234D01*
X30713Y106631D01*
X29685Y106766D01*
X28657Y106631D01*
X27700Y106234D01*
X26877Y105603D01*
X26246Y104781D01*
X25849Y103823D01*
X25714Y102795D01*
X25849Y101768D01*
X26246Y100810D01*
X26877Y99987D01*
X27700Y99356D01*
X28657Y98960D01*
X29685Y98824D01*
X30713Y98960D01*
X31670Y99356D01*
X32493Y99987D01*
X32929Y100556D01*
X90551D01*
X91242Y100693D01*
X91829Y101085D01*
X96671Y105927D01*
X97063Y106513D01*
X97200Y107205D01*
Y111302D01*
X97420Y111346D01*
X98136Y111825D01*
X98615Y112541D01*
X98783Y113386D01*
Y122835D01*
X98615Y123679D01*
X98136Y124396D01*
X97420Y124874D01*
X96575Y125042D01*
D02*
G37*
G36*
X413386Y105813D02*
X412605Y105710D01*
X411877Y105409D01*
X411252Y104929D01*
X410772Y104304D01*
X410471Y103576D01*
X410368Y102795D01*
X410471Y102014D01*
X410772Y101286D01*
X411252Y100661D01*
X411877Y100182D01*
X412605Y99880D01*
X413386Y99777D01*
X414167Y99880D01*
X414895Y100182D01*
X415520Y100661D01*
X415999Y101286D01*
X416301Y102014D01*
X416404Y102795D01*
X416301Y103576D01*
X415999Y104304D01*
X415520Y104929D01*
X414895Y105409D01*
X414167Y105710D01*
X413386Y105813D01*
D02*
G37*
G36*
X19685D02*
X18904Y105710D01*
X18176Y105409D01*
X17551Y104929D01*
X17071Y104304D01*
X16770Y103576D01*
X16667Y102795D01*
X16770Y102014D01*
X17071Y101286D01*
X17551Y100661D01*
X18176Y100182D01*
X18904Y99880D01*
X19685Y99777D01*
X20466Y99880D01*
X21194Y100182D01*
X21819Y100661D01*
X22299Y101286D01*
X22600Y102014D01*
X22703Y102795D01*
X22600Y103576D01*
X22299Y104304D01*
X21819Y104929D01*
X21194Y105409D01*
X20466Y105710D01*
X19685Y105813D01*
D02*
G37*
G36*
X423386Y106766D02*
X422358Y106631D01*
X421400Y106234D01*
X420578Y105603D01*
X419947Y104781D01*
X419550Y103823D01*
X419415Y102795D01*
X419550Y101768D01*
X419947Y100810D01*
X420578Y99987D01*
X421400Y99356D01*
X422358Y98960D01*
X423386Y98824D01*
X424414Y98960D01*
X425371Y99356D01*
X426194Y99987D01*
X426825Y100810D01*
X427221Y101768D01*
X427357Y102795D01*
X427221Y103823D01*
X426825Y104781D01*
X426194Y105603D01*
X425371Y106234D01*
X424414Y106631D01*
X423386Y106766D01*
D02*
G37*
G36*
X403386D02*
X402358Y106631D01*
X401400Y106234D01*
X400578Y105603D01*
X399947Y104781D01*
X399550Y103823D01*
X399415Y102795D01*
X399550Y101768D01*
X399947Y100810D01*
X400578Y99987D01*
X401400Y99356D01*
X402358Y98960D01*
X403386Y98824D01*
X404414Y98960D01*
X405371Y99356D01*
X406194Y99987D01*
X406825Y100810D01*
X407222Y101768D01*
X407357Y102795D01*
X407222Y103823D01*
X406825Y104781D01*
X406194Y105603D01*
X405371Y106234D01*
X404414Y106631D01*
X403386Y106766D01*
D02*
G37*
G36*
X9685D02*
X8657Y106631D01*
X7700Y106234D01*
X6877Y105603D01*
X6246Y104781D01*
X5849Y103823D01*
X5714Y102795D01*
X5849Y101768D01*
X6246Y100810D01*
X6877Y99987D01*
X7700Y99356D01*
X8657Y98960D01*
X9685Y98824D01*
X10713Y98960D01*
X11671Y99356D01*
X12493Y99987D01*
X13124Y100810D01*
X13521Y101768D01*
X13656Y102795D01*
X13521Y103823D01*
X13124Y104781D01*
X12493Y105603D01*
X11671Y106234D01*
X10713Y106631D01*
X9685Y106766D01*
D02*
G37*
G36*
X16732Y90969D02*
X16013Y90874D01*
X15342Y90596D01*
X14767Y90154D01*
X14325Y89579D01*
X14047Y88908D01*
X13953Y88189D01*
X14047Y87470D01*
X14325Y86799D01*
X14767Y86224D01*
X15342Y85782D01*
X16013Y85504D01*
X16732Y85409D01*
X17452Y85504D01*
X18122Y85782D01*
X18698Y86224D01*
X19139Y86799D01*
X19417Y87470D01*
X19512Y88189D01*
X19417Y88908D01*
X19139Y89579D01*
X18698Y90154D01*
X18122Y90596D01*
X17452Y90874D01*
X16732Y90969D01*
D02*
G37*
G36*
X397795Y91847D02*
X396716Y91705D01*
X395710Y91288D01*
X394847Y90626D01*
X394184Y89762D01*
X393768Y88756D01*
X393626Y87677D01*
X393768Y86598D01*
X394184Y85592D01*
X394847Y84729D01*
X395710Y84066D01*
X396716Y83650D01*
X397795Y83508D01*
X398874Y83650D01*
X399880Y84066D01*
X400744Y84729D01*
X401406Y85592D01*
X401823Y86598D01*
X401965Y87677D01*
X401823Y88756D01*
X401406Y89762D01*
X400744Y90626D01*
X399880Y91288D01*
X398874Y91705D01*
X397795Y91847D01*
D02*
G37*
G36*
X387795D02*
X386716Y91705D01*
X385711Y91288D01*
X384847Y90626D01*
X384184Y89762D01*
X383768Y88756D01*
X383626Y87677D01*
X383768Y86598D01*
X384184Y85592D01*
X384847Y84729D01*
X385711Y84066D01*
X386716Y83650D01*
X387795Y83508D01*
X388874Y83650D01*
X389880Y84066D01*
X390744Y84729D01*
X391406Y85592D01*
X391823Y86598D01*
X391965Y87677D01*
X391823Y88756D01*
X391406Y89762D01*
X390744Y90626D01*
X389880Y91288D01*
X388874Y91705D01*
X387795Y91847D01*
D02*
G37*
G36*
X377795D02*
X376716Y91705D01*
X375711Y91288D01*
X374847Y90626D01*
X374184Y89762D01*
X373768Y88756D01*
X373626Y87677D01*
X373768Y86598D01*
X374091Y85818D01*
X367188Y78915D01*
X367001Y78634D01*
X366549Y78333D01*
X366071Y77617D01*
X365902Y76772D01*
X366071Y75927D01*
X366549Y75210D01*
X367265Y74732D01*
X368110Y74564D01*
X368955Y74732D01*
X369671Y75210D01*
X370150Y75927D01*
X370318Y76772D01*
X370150Y77617D01*
X369921Y77958D01*
X375936Y83973D01*
X376716Y83650D01*
X377795Y83508D01*
X378874Y83650D01*
X379880Y84066D01*
X380744Y84729D01*
X381406Y85592D01*
X381823Y86598D01*
X381965Y87677D01*
X381823Y88756D01*
X381406Y89762D01*
X380744Y90626D01*
X379880Y91288D01*
X378874Y91705D01*
X377795Y91847D01*
D02*
G37*
G36*
X337598Y89806D02*
X336754Y89638D01*
X336037Y89160D01*
X335559Y88443D01*
X335391Y87598D01*
X335559Y86753D01*
X336037Y86037D01*
X336754Y85559D01*
X337511Y85408D01*
X337359Y84646D01*
X337511Y83883D01*
X336754Y83733D01*
X336037Y83254D01*
X335559Y82538D01*
X335391Y81693D01*
X335559Y80848D01*
X336037Y80132D01*
X336754Y79653D01*
X337598Y79485D01*
X338443Y79653D01*
X339160Y80132D01*
X339331Y80388D01*
X357108D01*
X357212Y79864D01*
X357691Y79147D01*
X358407Y78669D01*
X359252Y78501D01*
X360097Y78669D01*
X360813Y79147D01*
X361292Y79864D01*
X361460Y80709D01*
X361308Y81471D01*
X362065Y81622D01*
X362782Y82100D01*
X363260Y82816D01*
X363428Y83661D01*
X363277Y84424D01*
X364034Y84575D01*
X364750Y85053D01*
X365229Y85769D01*
X365397Y86614D01*
X365229Y87459D01*
X364750Y88175D01*
X364034Y88654D01*
X363189Y88822D01*
X362794Y88743D01*
X362704Y88804D01*
X362205Y88903D01*
X339331D01*
X339160Y89160D01*
X338443Y89638D01*
X337598Y89806D01*
D02*
G37*
G36*
X352362Y76027D02*
X351517Y75859D01*
X350801Y75380D01*
X350630Y75124D01*
X348189D01*
X348018Y75380D01*
X347302Y75859D01*
X346457Y76027D01*
X345612Y75859D01*
X344896Y75380D01*
X344417Y74664D01*
X344249Y73819D01*
X344417Y72974D01*
X344896Y72258D01*
X345612Y71779D01*
X346457Y71611D01*
X347302Y71779D01*
X348018Y72258D01*
X348189Y72514D01*
X350630D01*
X350801Y72258D01*
X351517Y71779D01*
X352362Y71611D01*
X353207Y71779D01*
X353923Y72258D01*
X354402Y72974D01*
X354570Y73819D01*
X354402Y74664D01*
X353923Y75380D01*
X353207Y75859D01*
X352362Y76027D01*
D02*
G37*
G36*
X397795Y81847D02*
X396716Y81705D01*
X395710Y81288D01*
X394847Y80625D01*
X394184Y79762D01*
X393768Y78756D01*
X393626Y77677D01*
X393768Y76598D01*
X394184Y75592D01*
X394847Y74729D01*
X395710Y74066D01*
X396716Y73650D01*
X397795Y73508D01*
X398874Y73650D01*
X399880Y74066D01*
X400744Y74729D01*
X401406Y75592D01*
X401823Y76598D01*
X401965Y77677D01*
X401823Y78756D01*
X401406Y79762D01*
X400744Y80625D01*
X399880Y81288D01*
X398874Y81705D01*
X397795Y81847D01*
D02*
G37*
G36*
X387795D02*
X386716Y81705D01*
X385711Y81288D01*
X384847Y80625D01*
X384184Y79762D01*
X383768Y78756D01*
X383626Y77677D01*
X383768Y76598D01*
X384184Y75592D01*
X384847Y74729D01*
X385711Y74066D01*
X386716Y73650D01*
X387795Y73508D01*
X388874Y73650D01*
X389880Y74066D01*
X390744Y74729D01*
X391406Y75592D01*
X391823Y76598D01*
X391965Y77677D01*
X391823Y78756D01*
X391406Y79762D01*
X390744Y80625D01*
X389880Y81288D01*
X388874Y81705D01*
X387795Y81847D01*
D02*
G37*
G36*
X126575Y125042D02*
X124213D01*
X123368Y124874D01*
X122652Y124396D01*
X122173Y123679D01*
X122005Y122835D01*
Y113386D01*
X122173Y112541D01*
X122652Y111825D01*
X123368Y111346D01*
X124089Y111203D01*
Y86221D01*
X124188Y85721D01*
X124471Y85298D01*
X137857Y71912D01*
X138280Y71629D01*
X138779Y71530D01*
X150827D01*
X150998Y71273D01*
X151714Y70795D01*
X152559Y70627D01*
X153404Y70795D01*
X154120Y71273D01*
X154599Y71990D01*
X154767Y72835D01*
X154599Y73680D01*
X154120Y74396D01*
X153404Y74874D01*
X152559Y75042D01*
X151714Y74874D01*
X150998Y74396D01*
X150827Y74139D01*
X139320D01*
X126698Y86761D01*
Y111203D01*
X127420Y111346D01*
X128136Y111825D01*
X128614Y112541D01*
X128783Y113386D01*
Y122835D01*
X128614Y123679D01*
X128136Y124396D01*
X127420Y124874D01*
X126575Y125042D01*
D02*
G37*
G36*
X363189Y65200D02*
X362344Y65032D01*
X361628Y64553D01*
X361456Y64297D01*
X347205D01*
X347034Y64553D01*
X346317Y65032D01*
X345472Y65200D01*
X344628Y65032D01*
X343911Y64553D01*
X343433Y63837D01*
X343265Y62992D01*
X343433Y62147D01*
X343911Y61431D01*
X344628Y60952D01*
X345472Y60784D01*
X346317Y60952D01*
X347034Y61431D01*
X347205Y61687D01*
X361456D01*
X361628Y61431D01*
X362344Y60952D01*
X363189Y60784D01*
X364034Y60952D01*
X364750Y61431D01*
X365229Y62147D01*
X365397Y62992D01*
X365229Y63837D01*
X364750Y64553D01*
X364034Y65032D01*
X363189Y65200D01*
D02*
G37*
G36*
X278543Y92759D02*
X277698Y92591D01*
X276982Y92112D01*
X276504Y91396D01*
X276336Y90551D01*
X276504Y89706D01*
X276982Y88990D01*
X277138Y88886D01*
Y65543D01*
X275775Y64179D01*
X275590Y64216D01*
X274746Y64048D01*
X274029Y63569D01*
X273551Y62853D01*
X273383Y62008D01*
X273551Y61163D01*
X274029Y60447D01*
X274746Y59968D01*
X275590Y59800D01*
X276435Y59968D01*
X277152Y60447D01*
X277630Y61163D01*
X277798Y62008D01*
X277762Y62192D01*
X279537Y63967D01*
X279841Y64423D01*
X279948Y64961D01*
Y88886D01*
X280104Y88990D01*
X280583Y89706D01*
X280751Y90551D01*
X280583Y91396D01*
X280104Y92112D01*
X279388Y92591D01*
X278543Y92759D01*
D02*
G37*
G36*
X116575Y125042D02*
X114213D01*
X113368Y124874D01*
X112652Y124396D01*
X112173Y123679D01*
X112005Y122835D01*
Y113386D01*
X112173Y112541D01*
X112652Y111825D01*
X113368Y111346D01*
X114089Y111203D01*
Y90315D01*
X114188Y89816D01*
X114471Y89393D01*
X135889Y67975D01*
X136312Y67692D01*
X136811Y67593D01*
X147097D01*
X150411Y64279D01*
X150351Y63976D01*
X150519Y63131D01*
X150998Y62415D01*
X151714Y61937D01*
X152559Y61769D01*
X153404Y61937D01*
X154120Y62415D01*
X154599Y63131D01*
X154767Y63976D01*
X154599Y64821D01*
X154120Y65538D01*
X153404Y66016D01*
X152559Y66184D01*
X152256Y66124D01*
X148560Y69820D01*
X148137Y70103D01*
X147638Y70202D01*
X137351D01*
X116698Y90855D01*
Y111203D01*
X117420Y111346D01*
X118136Y111825D01*
X118614Y112541D01*
X118783Y113386D01*
Y122835D01*
X118614Y123679D01*
X118136Y124396D01*
X117420Y124874D01*
X116575Y125042D01*
D02*
G37*
G36*
X106575D02*
X104213D01*
X103368Y124874D01*
X102652Y124396D01*
X102173Y123679D01*
X102005Y122835D01*
Y113386D01*
X102173Y112541D01*
X102652Y111825D01*
X103368Y111346D01*
X104089Y111203D01*
Y94410D01*
X104188Y93910D01*
X104471Y93487D01*
X134904Y63054D01*
X135327Y62771D01*
X135827Y62672D01*
X143937D01*
X144108Y62415D01*
X144824Y61937D01*
X145669Y61769D01*
X146514Y61937D01*
X147230Y62415D01*
X147709Y63131D01*
X147877Y63976D01*
X147709Y64821D01*
X147230Y65538D01*
X146514Y66016D01*
X145669Y66184D01*
X144824Y66016D01*
X144108Y65538D01*
X143937Y65281D01*
X136367D01*
X106698Y94950D01*
Y111203D01*
X107420Y111346D01*
X108136Y111825D01*
X108615Y112541D01*
X108783Y113386D01*
Y122835D01*
X108615Y123679D01*
X108136Y124396D01*
X107420Y124874D01*
X106575Y125042D01*
D02*
G37*
G36*
X315945Y77011D02*
X315100Y76843D01*
X314384Y76364D01*
X313905Y75648D01*
X313737Y74803D01*
X313905Y73958D01*
X314384Y73242D01*
X315100Y72763D01*
X315945Y72595D01*
X316790Y72763D01*
X317506Y73242D01*
X317677Y73499D01*
X322294D01*
X332498Y63295D01*
X332438Y62992D01*
X332606Y62147D01*
X333085Y61431D01*
X333801Y60952D01*
X334646Y60784D01*
X335490Y60952D01*
X336207Y61431D01*
X336685Y62147D01*
X336853Y62992D01*
X336685Y63837D01*
X336207Y64553D01*
X335490Y65032D01*
X334646Y65200D01*
X334343Y65140D01*
X323757Y75726D01*
X323334Y76008D01*
X322835Y76108D01*
X317677D01*
X317506Y76364D01*
X316790Y76843D01*
X315945Y77011D01*
D02*
G37*
G36*
X16732Y64197D02*
X16013Y64102D01*
X15342Y63825D01*
X14767Y63383D01*
X14325Y62807D01*
X14047Y62137D01*
X13953Y61417D01*
X14047Y60698D01*
X14325Y60027D01*
X14767Y59452D01*
X15342Y59010D01*
X16013Y58732D01*
X16732Y58638D01*
X17452Y58732D01*
X18122Y59010D01*
X18698Y59452D01*
X19139Y60027D01*
X19417Y60698D01*
X19512Y61417D01*
X19417Y62137D01*
X19139Y62807D01*
X18698Y63383D01*
X18122Y63825D01*
X17452Y64102D01*
X16732Y64197D01*
D02*
G37*
G36*
X291339Y67168D02*
X290494Y67000D01*
X289777Y66522D01*
X289299Y65806D01*
X289131Y64961D01*
X289299Y64116D01*
X289777Y63399D01*
X289934Y63295D01*
Y54815D01*
X289777Y54711D01*
X289299Y53995D01*
X289131Y53150D01*
X289299Y52305D01*
X289777Y51588D01*
X290494Y51110D01*
X291339Y50942D01*
X292183Y51110D01*
X292900Y51588D01*
X293378Y52305D01*
X293546Y53150D01*
X293378Y53995D01*
X292900Y54711D01*
X292743Y54815D01*
Y63295D01*
X292900Y63399D01*
X293378Y64116D01*
X293546Y64961D01*
X293378Y65806D01*
X292900Y66522D01*
X292183Y67000D01*
X291339Y67168D01*
D02*
G37*
G36*
X216535Y59051D02*
X215456Y58909D01*
X214451Y58493D01*
X213587Y57830D01*
X212925Y56967D01*
X212508Y55961D01*
X212366Y54882D01*
X212508Y53803D01*
X212925Y52797D01*
X213587Y51934D01*
X214451Y51271D01*
X215456Y50854D01*
X216535Y50712D01*
X217615Y50854D01*
X218620Y51271D01*
X219484Y51934D01*
X220146Y52797D01*
X220563Y53803D01*
X220705Y54882D01*
X220563Y55961D01*
X220146Y56967D01*
X219484Y57830D01*
X218620Y58493D01*
X217615Y58909D01*
X216535Y59051D01*
D02*
G37*
G36*
X260768Y42945D02*
X259494Y42819D01*
X258270Y42448D01*
X257141Y41845D01*
X256152Y41033D01*
X255340Y40044D01*
X254737Y38915D01*
X254366Y37691D01*
X254240Y36417D01*
X254366Y35144D01*
X254737Y33919D01*
X255340Y32791D01*
X256152Y31802D01*
X257141Y30990D01*
X258270Y30387D01*
X259494Y30015D01*
X260768Y29890D01*
X262041Y30015D01*
X263266Y30387D01*
X264394Y30990D01*
X265383Y31802D01*
X266195Y32791D01*
X266798Y33919D01*
X267170Y35144D01*
X267295Y36417D01*
X267170Y37691D01*
X266798Y38915D01*
X266195Y40044D01*
X265383Y41033D01*
X264394Y41845D01*
X263266Y42448D01*
X262041Y42819D01*
X260768Y42945D01*
D02*
G37*
G36*
X230768D02*
X229494Y42819D01*
X228270Y42448D01*
X227141Y41845D01*
X226152Y41033D01*
X225340Y40044D01*
X224737Y38915D01*
X224366Y37691D01*
X224240Y36417D01*
X224366Y35144D01*
X224737Y33919D01*
X225340Y32791D01*
X226152Y31802D01*
X227141Y30990D01*
X228270Y30387D01*
X229494Y30015D01*
X230768Y29890D01*
X232041Y30015D01*
X233266Y30387D01*
X234394Y30990D01*
X235383Y31802D01*
X236195Y32791D01*
X236798Y33919D01*
X237170Y35144D01*
X237295Y36417D01*
X237170Y37691D01*
X236798Y38915D01*
X236195Y40044D01*
X235383Y41033D01*
X234394Y41845D01*
X233266Y42448D01*
X232041Y42819D01*
X230768Y42945D01*
D02*
G37*
G36*
X202303D02*
X201030Y42819D01*
X199805Y42448D01*
X198677Y41845D01*
X197687Y41033D01*
X196876Y40044D01*
X196273Y38915D01*
X195901Y37691D01*
X195776Y36417D01*
X195901Y35144D01*
X196273Y33919D01*
X196876Y32791D01*
X197687Y31802D01*
X198677Y30990D01*
X199805Y30387D01*
X201030Y30015D01*
X202303Y29890D01*
X203577Y30015D01*
X204801Y30387D01*
X205930Y30990D01*
X206919Y31802D01*
X207731Y32791D01*
X208334Y33919D01*
X208705Y35144D01*
X208831Y36417D01*
X208705Y37691D01*
X208334Y38915D01*
X207731Y40044D01*
X206919Y41033D01*
X205930Y41845D01*
X204801Y42448D01*
X203577Y42819D01*
X202303Y42945D01*
D02*
G37*
G36*
X172303D02*
X171030Y42819D01*
X169805Y42448D01*
X168677Y41845D01*
X167687Y41033D01*
X166876Y40044D01*
X166272Y38915D01*
X165901Y37691D01*
X165776Y36417D01*
X165901Y35144D01*
X166272Y33919D01*
X166876Y32791D01*
X167687Y31802D01*
X168677Y30990D01*
X169805Y30387D01*
X171030Y30015D01*
X172303Y29890D01*
X173577Y30015D01*
X174801Y30387D01*
X175930Y30990D01*
X176919Y31802D01*
X177731Y32791D01*
X178334Y33919D01*
X178705Y35144D01*
X178831Y36417D01*
X178705Y37691D01*
X178334Y38915D01*
X177731Y40044D01*
X176919Y41033D01*
X175930Y41845D01*
X174801Y42448D01*
X173577Y42819D01*
X172303Y42945D01*
D02*
G37*
G36*
X40295D02*
X39022Y42819D01*
X37797Y42448D01*
X36669Y41845D01*
X35680Y41033D01*
X34868Y40044D01*
X34265Y38915D01*
X33893Y37691D01*
X33768Y36417D01*
X33893Y35144D01*
X34265Y33919D01*
X34868Y32791D01*
X35680Y31802D01*
X36669Y30990D01*
X37797Y30387D01*
X39022Y30015D01*
X40295Y29890D01*
X41569Y30015D01*
X42793Y30387D01*
X43922Y30990D01*
X44911Y31802D01*
X45723Y32791D01*
X46326Y33919D01*
X46697Y35144D01*
X46823Y36417D01*
X46697Y37691D01*
X46326Y38915D01*
X45723Y40044D01*
X44911Y41033D01*
X43922Y41845D01*
X42793Y42448D01*
X41569Y42819D01*
X40295Y42945D01*
D02*
G37*
G36*
X10295D02*
X9022Y42819D01*
X7797Y42448D01*
X6669Y41845D01*
X5680Y41033D01*
X4868Y40044D01*
X4265Y38915D01*
X3893Y37691D01*
X3768Y36417D01*
X3893Y35144D01*
X4265Y33919D01*
X4868Y32791D01*
X5680Y31802D01*
X6669Y30990D01*
X7797Y30387D01*
X9022Y30015D01*
X10295Y29890D01*
X11569Y30015D01*
X12793Y30387D01*
X13922Y30990D01*
X14911Y31802D01*
X15723Y32791D01*
X16326Y33919D01*
X16697Y35144D01*
X16823Y36417D01*
X16697Y37691D01*
X16326Y38915D01*
X15723Y40044D01*
X14911Y41033D01*
X13922Y41845D01*
X12793Y42448D01*
X11569Y42819D01*
X10295Y42945D01*
D02*
G37*
%LPD*%
G36*
X278223Y179578D02*
Y178578D01*
X277723Y178528D01*
X277630Y178995D01*
X277152Y179711D01*
X276435Y180189D01*
X276366Y180203D01*
X272576Y183993D01*
X272153Y184276D01*
X271654Y184376D01*
X239606D01*
X239107Y184276D01*
X238684Y183993D01*
X234982Y180291D01*
X233804Y180779D01*
X232520Y180948D01*
X231235Y180779D01*
X230038Y180283D01*
X229010Y179494D01*
X228221Y178466D01*
X227776Y177393D01*
X227776Y177392D01*
X227264D01*
X227263Y177393D01*
X226818Y178466D01*
X226284Y179163D01*
X232824Y185703D01*
X272097D01*
X278223Y179578D01*
D02*
G37*
D11*
X327756Y105315D02*
X346457D01*
X314961Y134843D02*
Y149606D01*
Y115157D02*
Y134843D01*
X29528Y102362D02*
X90551D01*
X95394Y107205D01*
Y118110D01*
X314961Y93504D02*
Y106299D01*
Y93504D02*
X319882Y88583D01*
X314961Y106299D02*
X318898D01*
X314961D02*
Y109252D01*
Y149606D02*
X319882Y154528D01*
D12*
X362205Y87598D02*
X363189Y86614D01*
X337598Y87598D02*
X362205D01*
X337598Y81693D02*
X358268D01*
X359252Y80709D01*
X339567Y84646D02*
X360236D01*
X361221Y83661D01*
X327756Y117126D02*
X330709Y114173D01*
X327756Y117126D02*
Y126969D01*
X368110Y77992D02*
X377795Y87677D01*
X368110Y76772D02*
Y77992D01*
X147638Y68898D02*
X152559Y63976D01*
X136811Y68898D02*
X147638D01*
X138779Y72835D02*
X152559D01*
X125394Y86221D02*
X138779Y72835D01*
X125394Y86221D02*
Y118110D01*
X105394Y94410D02*
X135827Y63976D01*
X145669D01*
X115394Y90315D02*
X136811Y68898D01*
X115394Y90315D02*
Y118110D01*
X105394Y94410D02*
Y118110D01*
X315945Y74803D02*
X322835D01*
X334646Y62992D01*
X324803Y92520D02*
X327756D01*
X322835Y94488D02*
X324803Y92520D01*
X322835Y94488D02*
Y111221D01*
X345472Y62992D02*
X363189D01*
X346457Y73819D02*
X352362D01*
X275590Y178150D02*
Y179134D01*
X279528Y175197D02*
Y180118D01*
X272638Y187008D02*
X279528Y180118D01*
X232283Y187008D02*
X272638D01*
X222520Y177244D02*
X232283Y187008D01*
X222520Y175984D02*
Y177244D01*
X271654Y183071D02*
X275590Y179134D01*
X239606Y183071D02*
X271654D01*
X232520Y175984D02*
X239606Y183071D01*
X361221Y124016D02*
X370079Y115157D01*
X353346Y124016D02*
X361221D01*
D15*
X306102Y134843D02*
X314961D01*
X291339Y53150D02*
Y64961D01*
X275590Y62008D02*
X278543Y64961D01*
Y90551D01*
X333661Y132874D02*
X334646Y133858D01*
X353346D01*
X297244Y112205D02*
X309055Y124016D01*
X297244Y111221D02*
Y112205D01*
X300984Y110039D02*
X309055Y118110D01*
Y120079D01*
D34*
X216535Y54882D02*
D03*
Y44882D02*
D03*
X397795Y87677D02*
D03*
Y77677D02*
D03*
X387795D02*
D03*
Y87677D02*
D03*
X377795D02*
D03*
Y77677D02*
D03*
D35*
X422776Y36417D02*
D03*
X392776D02*
D03*
X230768D02*
D03*
X260768D02*
D03*
X202303D02*
D03*
X172303D02*
D03*
X10295D02*
D03*
X40295D02*
D03*
D36*
X344488Y198819D02*
D03*
X403543D02*
D03*
X265748D02*
D03*
X324803D02*
D03*
X187008D02*
D03*
X246063D02*
D03*
X108268D02*
D03*
X167323D02*
D03*
X29528D02*
D03*
X88583D02*
D03*
D37*
X232520Y175984D02*
D03*
X222520D02*
D03*
X202520D02*
D03*
X212520D02*
D03*
D38*
X171260Y172835D02*
D03*
X263779D02*
D03*
Y79134D02*
D03*
X171260D02*
D03*
D40*
X421260Y82677D02*
D03*
Y216535D02*
D03*
X11811D02*
D03*
D41*
X9685Y102795D02*
D03*
Y122795D02*
D03*
Y142795D02*
D03*
Y162795D02*
D03*
X29685Y102795D02*
D03*
X9685Y112795D02*
D03*
X29685Y122795D02*
D03*
X9685Y132795D02*
D03*
X29685Y142795D02*
D03*
X9685Y152795D02*
D03*
X29685Y162795D02*
D03*
X9685Y172795D02*
D03*
X403386Y102795D02*
D03*
Y122795D02*
D03*
Y142795D02*
D03*
Y162795D02*
D03*
X423386Y102795D02*
D03*
X403386Y112795D02*
D03*
X423386Y122795D02*
D03*
X403386Y132795D02*
D03*
X423386Y142795D02*
D03*
X403386Y152795D02*
D03*
X423386Y162795D02*
D03*
X403386Y172795D02*
D03*
D42*
X353346Y104331D02*
D03*
Y107283D02*
D03*
X337598Y87598D02*
D03*
Y81693D02*
D03*
X339567Y84646D02*
D03*
X327756Y105315D02*
D03*
X330709Y114173D02*
D03*
X327756Y126969D02*
D03*
X306102Y134843D02*
D03*
X335630Y26575D02*
D03*
X371063Y163386D02*
D03*
X291339Y53150D02*
D03*
Y64961D02*
D03*
X361221Y196850D02*
D03*
X282480D02*
D03*
X203740D02*
D03*
X125000D02*
D03*
X46260D02*
D03*
X371063D02*
D03*
X292323D02*
D03*
X213583D02*
D03*
X134843D02*
D03*
X57087D02*
D03*
X333661Y45276D02*
D03*
X327756Y51181D02*
D03*
X353346Y31496D02*
D03*
X309055Y49213D02*
D03*
X324803Y26575D02*
D03*
X309055Y106299D02*
D03*
Y109252D02*
D03*
X359252Y80709D02*
D03*
X361221Y83661D02*
D03*
X363189Y86614D02*
D03*
X368110Y76772D02*
D03*
X275590Y62008D02*
D03*
X278543Y90551D02*
D03*
X152559Y63976D02*
D03*
Y72835D02*
D03*
X145669Y63976D02*
D03*
X315945Y74803D02*
D03*
X327756Y92520D02*
D03*
X322835Y111221D02*
D03*
X319882Y88583D02*
D03*
X318898Y106299D02*
D03*
X346457Y105315D02*
D03*
X363189Y62992D02*
D03*
X345472D02*
D03*
X334646D02*
D03*
X352362Y73819D02*
D03*
X346457D02*
D03*
X275590Y178150D02*
D03*
X279528Y175197D02*
D03*
X370079Y115157D02*
D03*
X353346Y124016D02*
D03*
X333661Y132874D02*
D03*
X353346Y133858D02*
D03*
X297244Y111221D02*
D03*
X300984Y110039D02*
D03*
X309055Y120079D02*
D03*
Y124016D02*
D03*
X314961Y109252D02*
D03*
Y106299D02*
D03*
Y115157D02*
D03*
X319882Y154528D02*
D03*
D43*
X75394Y118110D02*
D03*
X85394D02*
D03*
X95394D02*
D03*
X105394D02*
D03*
X115394D02*
D03*
X125394D02*
D03*
M02*
